<ttFont>
    <TTGlyph name=".notdef" xMin="40" yMin="0" xMax="1083" yMax="1457">
      <contour>
        <pt x="230" y="1152" on="1"/>
        <pt x="292" y="1200" on="0"/>
        <pt x="448" y="1263" on="0"/>
        <pt x="553" y="1263" on="1"/>
        <pt x="631" y="1263" on="0"/>
        <pt x="750" y="1223" on="0"/>
        <pt x="832" y="1151" on="0"/>
        <pt x="874" y="1049" on="0"/>
        <pt x="874" y="987" on="1"/>
        <pt x="874" y="932" on="0"/>
        <pt x="848" y="852" on="0"/>
        <pt x="809" y="794" on="0"/>
        <pt x="762" y="752" on="0"/>
        <pt x="718" y="716" on="0"/>
        <pt x="684" y="682" on="0"/>
        <pt x="678" y="661" on="1"/>
        <pt x="651" y="571" on="1"/>
        <pt x="439" y="571" on="1"/>
        <pt x="417" y="683" on="1"/>
        <pt x="409" y="722" on="0"/>
        <pt x="428" y="777" on="0"/>
        <pt x="466" y="820" on="0"/>
        <pt x="515" y="855" on="0"/>
        <pt x="558" y="893" on="0"/>
        <pt x="587" y="937" on="0"/>
        <pt x="587" y="968" on="1"/>
        <pt x="587" y="991" on="0"/>
        <pt x="561" y="1022" on="0"/>
        <pt x="525" y="1022" on="1"/>
        <pt x="493" y="1022" on="0"/>
        <pt x="451" y="1012" on="0"/>
        <pt x="420" y="999" on="0"/>
        <pt x="393" y="989" on="0"/>
        <pt x="375" y="989" on="1"/>
        <pt x="332" y="989" on="0"/>
        <pt x="312" y="1025" on="1"/>
      </contour>
      <contour>
        <pt x="374" y="331" on="1"/>
        <pt x="374" y="364" on="0"/>
        <pt x="398" y="421" on="0"/>
        <pt x="442" y="463" on="0"/>
        <pt x="500" y="487" on="0"/>
        <pt x="535" y="487" on="1"/>
        <pt x="568" y="487" on="0"/>
        <pt x="626" y="463" on="0"/>
        <pt x="669" y="421" on="0"/>
        <pt x="694" y="364" on="0"/>
        <pt x="694" y="331" on="1"/>
        <pt x="694" y="298" on="0"/>
        <pt x="669" y="241" on="0"/>
        <pt x="626" y="199" on="0"/>
        <pt x="568" y="175" on="0"/>
        <pt x="535" y="175" on="1"/>
        <pt x="500" y="175" on="0"/>
        <pt x="442" y="199" on="0"/>
        <pt x="398" y="241" on="0"/>
        <pt x="374" y="298" on="0"/>
      </contour>
      <contour>
        <pt x="40" y="1457" on="1"/>
        <pt x="1083" y="1457" on="1"/>
        <pt x="1083" y="0" on="1"/>
        <pt x="40" y="0" on="1"/>
      </contour>
      <contour>
        <pt x="117" y="80" on="1"/>
        <pt x="996" y="80" on="1"/>
        <pt x="996" y="1377" on="1"/>
        <pt x="117" y="1377" on="1"/>
      </contour>
    </TTGlyph>
    <TTGlyph name="A" xMin="2" yMin="0" xMax="1476" yMax="1457">
      <contour>
        <pt x="1476" y="0" on="1"/>
        <pt x="1214" y="0" on="1"/>
        <pt x="1170" y="0" on="0"/>
        <pt x="1113" y="41" on="0"/>
        <pt x="1102" y="73" on="1"/>
        <pt x="1016" y="327" on="1"/>
        <pt x="462" y="327" on="1"/>
        <pt x="376" y="73" on="1"/>
        <pt x="366" y="45" on="0"/>
        <pt x="308" y="0" on="0"/>
        <pt x="266" y="0" on="1"/>
        <pt x="2" y="0" on="1"/>
        <pt x="566" y="1457" on="1"/>
        <pt x="912" y="1457" on="1"/>
      </contour>
      <contour>
        <pt x="540" y="557" on="1"/>
        <pt x="938" y="557" on="1"/>
        <pt x="804" y="956" on="1"/>
        <pt x="791" y="994" on="0"/>
        <pt x="756" y="1097" on="0"/>
        <pt x="739" y="1157" on="1"/>
        <pt x="723" y="1096" on="0"/>
        <pt x="689" y="992" on="0"/>
        <pt x="674" y="954" on="1"/>
      </contour>
    </TTGlyph>
    <TTGlyph name="AE" xMin="-32" yMin="0" xMax="1804" yMax="1457">
      <contour>
        <pt x="684" y="1457" on="1"/>
        <pt x="1804" y="1457" on="1"/>
        <pt x="1804" y="1197" on="1"/>
        <pt x="1159" y="1197" on="1"/>
        <pt x="1200" y="857" on="1"/>
        <pt x="1664" y="857" on="1"/>
        <pt x="1664" y="607" on="1"/>
        <pt x="1230" y="607" on="1"/>
        <pt x="1272" y="260" on="1"/>
        <pt x="1804" y="260" on="1"/>
        <pt x="1804" y="0" on="1"/>
        <pt x="984" y="0" on="1"/>
        <pt x="944" y="327" on="1"/>
        <pt x="461" y="327" on="1"/>
        <pt x="350" y="73" on="1"/>
        <pt x="336" y="40" on="0"/>
        <pt x="269" y="0" on="0"/>
        <pt x="224" y="0" on="1"/>
        <pt x="-32" y="0" on="1"/>
      </contour>
      <contour>
        <pt x="562" y="557" on="1"/>
        <pt x="916" y="557" on="1"/>
        <pt x="838" y="1209" on="1"/>
        <pt x="818" y="1150" on="0"/>
        <pt x="778" y="1048" on="0"/>
        <pt x="758" y="1005" on="1"/>
      </contour>
    </TTGlyph>
    <TTGlyph name="Aacute" xMin="2" yMin="0" xMax="1476" yMax="1798">
      <component glyphName="A" x="0" y="0" flags="0x204"/>
      <component glyphName="acute.case" x="388" y="0" flags="0x4"/>
    </TTGlyph>
    <TTGlyph name="Acircumflex" xMin="2" yMin="0" xMax="1476" yMax="1778">
      <component glyphName="A" x="0" y="0" flags="0x204"/>
      <component glyphName="circumflex.case" x="408" y="0" flags="0x4"/>
    </TTGlyph>
    <TTGlyph name="Adieresis" xMin="2" yMin="0" xMax="1476" yMax="1821">
      <component glyphName="A" x="0" y="0" flags="0x204"/>
      <component glyphName="dieresis.case" x="408" y="0" flags="0x4"/>
    </TTGlyph>
    <TTGlyph name="Agrave" xMin="2" yMin="0" xMax="1476" yMax="1798">
      <component glyphName="A" x="0" y="0" flags="0x204"/>
      <component glyphName="grave.case" x="388" y="0" flags="0x4"/>
    </TTGlyph>
    <TTGlyph name="Aogonek" xMin="2" yMin="-347" xMax="1500" yMax="1457">
      <contour>
        <pt x="1426" y="-167" on="1"/>
        <pt x="1447" y="-167" on="0"/>
        <pt x="1454" y="-186" on="1"/>
        <pt x="1500" y="-297" on="1"/>
        <pt x="1465" y="-318" on="0"/>
        <pt x="1361" y="-347" on="0"/>
        <pt x="1302" y="-347" on="1"/>
        <pt x="1195" y="-347" on="0"/>
        <pt x="1084" y="-263" on="0"/>
        <pt x="1084" y="-198" on="1"/>
        <pt x="1084" y="-147" on="0"/>
        <pt x="1151" y="-45" on="0"/>
        <pt x="1226" y="0" on="1"/>
        <pt x="1214" y="0" on="1"/>
        <pt x="1170" y="0" on="0"/>
        <pt x="1113" y="41" on="0"/>
        <pt x="1102" y="73" on="1"/>
        <pt x="1016" y="327" on="1"/>
        <pt x="462" y="327" on="1"/>
        <pt x="376" y="73" on="1"/>
        <pt x="366" y="45" on="0"/>
        <pt x="308" y="0" on="0"/>
        <pt x="266" y="0" on="1"/>
        <pt x="2" y="0" on="1"/>
        <pt x="566" y="1457" on="1"/>
        <pt x="912" y="1457" on="1"/>
        <pt x="1476" y="0" on="1"/>
        <pt x="1408" y="0" on="1"/>
        <pt x="1369" y="-21" on="0"/>
        <pt x="1314" y="-84" on="0"/>
        <pt x="1314" y="-122" on="1"/>
        <pt x="1314" y="-146" on="0"/>
        <pt x="1341" y="-175" on="0"/>
        <pt x="1368" y="-175" on="1"/>
        <pt x="1383" y="-175" on="0"/>
        <pt x="1401" y="-173" on="0"/>
        <pt x="1413" y="-170" on="0"/>
        <pt x="1421" y="-167" on="0"/>
      </contour>
      <contour>
        <pt x="540" y="557" on="1"/>
        <pt x="938" y="557" on="1"/>
        <pt x="804" y="956" on="1"/>
        <pt x="789" y="994" on="0"/>
        <pt x="755" y="1097" on="0"/>
        <pt x="738" y="1157" on="1"/>
        <pt x="722" y="1096" on="0"/>
        <pt x="689" y="992" on="0"/>
        <pt x="674" y="954" on="1"/>
      </contour>
    </TTGlyph>
    <TTGlyph name="Aring" xMin="2" yMin="0" xMax="1476" yMax="1904">
      <component glyphName="A" x="0" y="0" flags="0x204"/>
      <component glyphName="ring.case" x="412" y="0" flags="0x4"/>
    </TTGlyph>
    <TTGlyph name="Atilde" xMin="2" yMin="0" xMax="1476" yMax="1787">
      <component glyphName="A" x="0" y="0" flags="0x204"/>
      <component glyphName="tilde.case" x="408" y="0" flags="0x4"/>
    </TTGlyph>
    <TTGlyph name="B" xMin="120" yMin="0" xMax="1248" yMax="1457">
      <contour>
        <pt x="120" y="0" on="1"/>
        <pt x="120" y="1457" on="1"/>
        <pt x="656" y="1457" on="1"/>
        <pt x="807" y="1457" on="0"/>
        <pt x="1019" y="1401" on="0"/>
        <pt x="1153" y="1299" on="0"/>
        <pt x="1214" y="1153" on="0"/>
        <pt x="1214" y="1063" on="1"/>
        <pt x="1214" y="1014" on="0"/>
        <pt x="1186" y="923" on="0"/>
        <pt x="1126" y="843" on="0"/>
        <pt x="1032" y="778" on="0"/>
        <pt x="966" y="754" on="1"/>
        <pt x="1110" y="719" on="0"/>
        <pt x="1248" y="562" on="0"/>
        <pt x="1248" y="439" on="1"/>
        <pt x="1248" y="346" on="0"/>
        <pt x="1176" y="186" on="0"/>
        <pt x="1037" y="67" on="0"/>
        <pt x="833" y="0" on="0"/>
        <pt x="702" y="0" on="1"/>
      </contour>
      <contour>
        <pt x="458" y="618" on="1"/>
        <pt x="458" y="255" on="1"/>
        <pt x="696" y="255" on="1"/>
        <pt x="763" y="255" on="0"/>
        <pt x="848" y="289" on="0"/>
        <pt x="896" y="343" on="0"/>
        <pt x="914" y="411" on="0"/>
        <pt x="914" y="446" on="1"/>
        <pt x="914" y="486" on="0"/>
        <pt x="893" y="550" on="0"/>
        <pt x="842" y="594" on="0"/>
        <pt x="758" y="618" on="0"/>
        <pt x="694" y="618" on="1"/>
      </contour>
      <contour>
        <pt x="458" y="844" on="1"/>
        <pt x="634" y="844" on="1"/>
        <pt x="690" y="844" on="0"/>
        <pt x="780" y="860" on="0"/>
        <pt x="843" y="900" on="0"/>
        <pt x="876" y="970" on="0"/>
        <pt x="876" y="1023" on="1"/>
        <pt x="876" y="1075" on="0"/>
        <pt x="850" y="1144" on="0"/>
        <pt x="796" y="1186" on="0"/>
        <pt x="713" y="1204" on="0"/>
        <pt x="656" y="1204" on="1"/>
        <pt x="458" y="1204" on="1"/>
      </contour>
    </TTGlyph>
    <TTGlyph name="C" xMin="36" yMin="-16" xMax="1298" yMax="1473">
      <contour>
        <pt x="1099" y="377" on="1"/>
        <pt x="1111" y="377" on="0"/>
        <pt x="1135" y="368" on="0"/>
        <pt x="1146" y="357" on="1"/>
        <pt x="1280" y="216" on="1"/>
        <pt x="1192" y="101" on="0"/>
        <pt x="927" y="-16" on="0"/>
        <pt x="746" y="-16" on="1"/>
        <pt x="580" y="-16" on="0"/>
        <pt x="317" y="97" on="0"/>
        <pt x="134" y="296" on="0"/>
        <pt x="36" y="569" on="0"/>
        <pt x="36" y="729" on="1"/>
        <pt x="36" y="892" on="0"/>
        <pt x="148" y="1165" on="0"/>
        <pt x="349" y="1363" on="0"/>
        <pt x="629" y="1473" on="0"/>
        <pt x="798" y="1473" on="1"/>
        <pt x="880" y="1473" on="0"/>
        <pt x="1025" y="1444" on="0"/>
        <pt x="1151" y="1393" on="0"/>
        <pt x="1257" y="1322" on="0"/>
        <pt x="1298" y="1279" on="1"/>
        <pt x="1184" y="1126" on="1"/>
        <pt x="1173" y="1112" on="0"/>
        <pt x="1143" y="1089" on="0"/>
        <pt x="1116" y="1089" on="1"/>
        <pt x="1098" y="1089" on="0"/>
        <pt x="1066" y="1105" on="0"/>
        <pt x="1030" y="1128" on="0"/>
        <pt x="987" y="1155" on="0"/>
        <pt x="928" y="1178" on="0"/>
        <pt x="849" y="1194" on="0"/>
        <pt x="796" y="1194" on="1"/>
        <pt x="704" y="1194" on="0"/>
        <pt x="552" y="1129" on="0"/>
        <pt x="443" y="1008" on="0"/>
        <pt x="382" y="836" on="0"/>
        <pt x="382" y="729" on="1"/>
        <pt x="382" y="617" on="0"/>
        <pt x="443" y="443" on="0"/>
        <pt x="548" y="324" on="0"/>
        <pt x="688" y="262" on="0"/>
        <pt x="768" y="262" on="1"/>
        <pt x="814" y="262" on="0"/>
        <pt x="890" y="271" on="0"/>
        <pt x="955" y="293" on="0"/>
        <pt x="1014" y="328" on="0"/>
        <pt x="1044" y="354" on="1"/>
        <pt x="1056" y="364" on="0"/>
        <pt x="1084" y="377" on="0"/>
      </contour>
    </TTGlyph>
    <TTGlyph name="Cacute" xMin="36" yMin="-16" xMax="1298" yMax="1798">
      <component glyphName="C" x="0" y="0" flags="0x204"/>
      <component glyphName="acute.case" x="436" y="0" flags="0x4"/>
    </TTGlyph>
    <TTGlyph name="Ccedilla" xMin="36" yMin="-347" xMax="1298" yMax="1473">
      <contour>
        <pt x="622" y="-210" on="1"/>
        <pt x="637" y="-210" on="0"/>
        <pt x="665" y="-218" on="0"/>
        <pt x="686" y="-218" on="1"/>
        <pt x="712" y="-218" on="0"/>
        <pt x="734" y="-199" on="0"/>
        <pt x="734" y="-188" on="1"/>
        <pt x="734" y="-167" on="0"/>
        <pt x="673" y="-146" on="0"/>
        <pt x="600" y="-136" on="1"/>
        <pt x="638" y="-9" on="1"/>
        <pt x="496" y="9" on="0"/>
        <pt x="273" y="134" on="0"/>
        <pt x="118" y="328" on="0"/>
        <pt x="36" y="582" on="0"/>
        <pt x="36" y="729" on="1"/>
        <pt x="36" y="892" on="0"/>
        <pt x="148" y="1165" on="0"/>
        <pt x="349" y="1363" on="0"/>
        <pt x="629" y="1473" on="0"/>
        <pt x="798" y="1473" on="1"/>
        <pt x="880" y="1473" on="0"/>
        <pt x="1025" y="1444" on="0"/>
        <pt x="1151" y="1393" on="0"/>
        <pt x="1257" y="1322" on="0"/>
        <pt x="1298" y="1279" on="1"/>
        <pt x="1184" y="1126" on="1"/>
        <pt x="1173" y="1112" on="0"/>
        <pt x="1143" y="1089" on="0"/>
        <pt x="1116" y="1089" on="1"/>
        <pt x="1098" y="1089" on="0"/>
        <pt x="1066" y="1105" on="0"/>
        <pt x="1030" y="1128" on="0"/>
        <pt x="987" y="1155" on="0"/>
        <pt x="928" y="1178" on="0"/>
        <pt x="849" y="1194" on="0"/>
        <pt x="796" y="1194" on="1"/>
        <pt x="704" y="1194" on="0"/>
        <pt x="552" y="1129" on="0"/>
        <pt x="443" y="1008" on="0"/>
        <pt x="382" y="836" on="0"/>
        <pt x="382" y="729" on="1"/>
        <pt x="382" y="617" on="0"/>
        <pt x="443" y="443" on="0"/>
        <pt x="548" y="324" on="0"/>
        <pt x="688" y="262" on="0"/>
        <pt x="768" y="262" on="1"/>
        <pt x="814" y="262" on="0"/>
        <pt x="890" y="271" on="0"/>
        <pt x="955" y="293" on="0"/>
        <pt x="1014" y="328" on="0"/>
        <pt x="1044" y="354" on="1"/>
        <pt x="1056" y="364" on="0"/>
        <pt x="1084" y="377" on="0"/>
        <pt x="1099" y="377" on="1"/>
        <pt x="1111" y="377" on="0"/>
        <pt x="1135" y="368" on="0"/>
        <pt x="1146" y="357" on="1"/>
        <pt x="1280" y="216" on="1"/>
        <pt x="1203" y="115" on="0"/>
        <pt x="978" y="0" on="0"/>
        <pt x="829" y="-12" on="1"/>
        <pt x="821" y="-43" on="1"/>
        <pt x="866" y="-55" on="0"/>
        <pt x="926" y="-87" on="0"/>
        <pt x="961" y="-125" on="0"/>
        <pt x="976" y="-170" on="0"/>
        <pt x="976" y="-194" on="1"/>
        <pt x="976" y="-229" on="0"/>
        <pt x="937" y="-285" on="0"/>
        <pt x="867" y="-325" on="0"/>
        <pt x="768" y="-347" on="0"/>
        <pt x="708" y="-347" on="1"/>
        <pt x="667" y="-347" on="0"/>
        <pt x="598" y="-339" on="0"/>
        <pt x="560" y="-331" on="1"/>
        <pt x="588" y="-237" on="1"/>
        <pt x="594" y="-210" on="0"/>
      </contour>
    </TTGlyph>
    <TTGlyph name="D" xMin="120" yMin="0" xMax="1442" yMax="1457">
      <contour>
        <pt x="1442" y="729" on="1"/>
        <pt x="1442" y="571" on="0"/>
        <pt x="1333" y="304" on="0"/>
        <pt x="1135" y="109" on="0"/>
        <pt x="856" y="0" on="0"/>
        <pt x="686" y="0" on="1"/>
        <pt x="120" y="0" on="1"/>
        <pt x="120" y="1457" on="1"/>
        <pt x="686" y="1457" on="1"/>
        <pt x="856" y="1457" on="0"/>
        <pt x="1135" y="1347" on="0"/>
        <pt x="1333" y="1153" on="0"/>
        <pt x="1442" y="886" on="0"/>
      </contour>
      <contour>
        <pt x="1096" y="729" on="1"/>
        <pt x="1096" y="837" on="0"/>
        <pt x="1040" y="1011" on="0"/>
        <pt x="935" y="1132" on="0"/>
        <pt x="783" y="1197" on="0"/>
        <pt x="686" y="1197" on="1"/>
        <pt x="460" y="1197" on="1"/>
        <pt x="460" y="260" on="1"/>
        <pt x="686" y="260" on="1"/>
        <pt x="783" y="260" on="0"/>
        <pt x="935" y="325" on="0"/>
        <pt x="1040" y="446" on="0"/>
        <pt x="1096" y="620" on="0"/>
      </contour>
    </TTGlyph>
    <TTGlyph name="Delta" xMin="10" yMin="0" xMax="1524" yMax="1457">
      <contour>
        <pt x="614" y="1457" on="1"/>
        <pt x="920" y="1457" on="1"/>
        <pt x="1524" y="0" on="1"/>
        <pt x="10" y="0" on="1"/>
      </contour>
      <contour>
        <pt x="453" y="258" on="1"/>
        <pt x="1081" y="258" on="1"/>
        <pt x="824" y="956" on="1"/>
        <pt x="812" y="989" on="0"/>
        <pt x="781" y="1074" on="0"/>
        <pt x="767" y="1124" on="1"/>
        <pt x="754" y="1074" on="0"/>
        <pt x="725" y="987" on="0"/>
        <pt x="712" y="954" on="1"/>
      </contour>
    </TTGlyph>
    <TTGlyph name="E" xMin="120" yMin="0" xMax="1058" yMax="1457">
      <contour>
        <pt x="1058" y="1457" on="1"/>
        <pt x="1058" y="1197" on="1"/>
        <pt x="460" y="1197" on="1"/>
        <pt x="460" y="857" on="1"/>
        <pt x="918" y="857" on="1"/>
        <pt x="918" y="607" on="1"/>
        <pt x="460" y="607" on="1"/>
        <pt x="460" y="260" on="1"/>
        <pt x="1058" y="260" on="1"/>
        <pt x="1058" y="0" on="1"/>
        <pt x="120" y="0" on="1"/>
        <pt x="120" y="1457" on="1"/>
      </contour>
    </TTGlyph>
    <TTGlyph name="Eacute" xMin="120" yMin="0" xMax="1058" yMax="1798">
      <component glyphName="E" x="0" y="0" flags="0x204"/>
      <component glyphName="acute.case" x="256" y="0" flags="0x4"/>
    </TTGlyph>
    <TTGlyph name="Ecircumflex" xMin="120" yMin="0" xMax="1058" yMax="1778">
      <component glyphName="E" x="0" y="0" flags="0x204"/>
      <component glyphName="circumflex.case" x="276" y="0" flags="0x4"/>
    </TTGlyph>
    <TTGlyph name="Edieresis" xMin="120" yMin="0" xMax="1058" yMax="1821">
      <component glyphName="E" x="0" y="0" flags="0x204"/>
      <component glyphName="dieresis.case" x="276" y="0" flags="0x4"/>
    </TTGlyph>
    <TTGlyph name="Egrave" xMin="120" yMin="0" xMax="1058" yMax="1798">
      <component glyphName="E" x="0" y="0" flags="0x204"/>
      <component glyphName="grave.case" x="256" y="0" flags="0x4"/>
    </TTGlyph>
    <TTGlyph name="Eogonek" xMin="120" yMin="-347" xMax="1058" yMax="1457">
      <contour>
        <pt x="984" y="-167" on="1"/>
        <pt x="1005" y="-167" on="0"/>
        <pt x="1012" y="-186" on="1"/>
        <pt x="1058" y="-297" on="1"/>
        <pt x="1023" y="-318" on="0"/>
        <pt x="919" y="-347" on="0"/>
        <pt x="860" y="-347" on="1"/>
        <pt x="753" y="-347" on="0"/>
        <pt x="642" y="-263" on="0"/>
        <pt x="642" y="-198" on="1"/>
        <pt x="642" y="-147" on="0"/>
        <pt x="709" y="-45" on="0"/>
        <pt x="784" y="0" on="1"/>
        <pt x="120" y="0" on="1"/>
        <pt x="120" y="1457" on="1"/>
        <pt x="1058" y="1457" on="1"/>
        <pt x="1058" y="1197" on="1"/>
        <pt x="460" y="1197" on="1"/>
        <pt x="460" y="857" on="1"/>
        <pt x="918" y="857" on="1"/>
        <pt x="918" y="607" on="1"/>
        <pt x="460" y="607" on="1"/>
        <pt x="460" y="260" on="1"/>
        <pt x="1058" y="260" on="1"/>
        <pt x="1058" y="0" on="1"/>
        <pt x="966" y="0" on="1"/>
        <pt x="927" y="-21" on="0"/>
        <pt x="872" y="-84" on="0"/>
        <pt x="872" y="-122" on="1"/>
        <pt x="872" y="-146" on="0"/>
        <pt x="899" y="-175" on="0"/>
        <pt x="926" y="-175" on="1"/>
        <pt x="941" y="-175" on="0"/>
        <pt x="959" y="-173" on="0"/>
        <pt x="971" y="-170" on="0"/>
        <pt x="979" y="-167" on="0"/>
      </contour>
    </TTGlyph>
    <TTGlyph name="Eth" xMin="54" yMin="0" xMax="1542" yMax="1457">
      <contour>
        <pt x="54" y="823" on="1"/>
        <pt x="220" y="823" on="1"/>
        <pt x="220" y="1457" on="1"/>
        <pt x="786" y="1457" on="1"/>
        <pt x="956" y="1457" on="0"/>
        <pt x="1235" y="1347" on="0"/>
        <pt x="1433" y="1153" on="0"/>
        <pt x="1542" y="886" on="0"/>
        <pt x="1542" y="729" on="1"/>
        <pt x="1542" y="571" on="0"/>
        <pt x="1433" y="304" on="0"/>
        <pt x="1235" y="109" on="0"/>
        <pt x="956" y="0" on="0"/>
        <pt x="786" y="0" on="1"/>
        <pt x="220" y="0" on="1"/>
        <pt x="220" y="639" on="1"/>
        <pt x="54" y="639" on="1"/>
      </contour>
      <contour>
        <pt x="1196" y="729" on="1"/>
        <pt x="1196" y="837" on="0"/>
        <pt x="1140" y="1011" on="0"/>
        <pt x="1035" y="1132" on="0"/>
        <pt x="883" y="1197" on="0"/>
        <pt x="786" y="1197" on="1"/>
        <pt x="560" y="1197" on="1"/>
        <pt x="560" y="823" on="1"/>
        <pt x="904" y="823" on="1"/>
        <pt x="904" y="639" on="1"/>
        <pt x="560" y="639" on="1"/>
        <pt x="560" y="260" on="1"/>
        <pt x="786" y="260" on="1"/>
        <pt x="883" y="260" on="0"/>
        <pt x="1035" y="325" on="0"/>
        <pt x="1140" y="446" on="0"/>
        <pt x="1196" y="620" on="0"/>
      </contour>
    </TTGlyph>
    <TTGlyph name="Euro" xMin="40" yMin="-14" xMax="1144" yMax="1471">
      <contour>
        <pt x="40" y="950" on="1"/>
        <pt x="160" y="950" on="1"/>
        <pt x="185" y="1068" on="0"/>
        <pt x="289" y="1261" on="0"/>
        <pt x="435" y="1397" on="0"/>
        <pt x="619" y="1471" on="0"/>
        <pt x="724" y="1471" on="1"/>
        <pt x="866" y="1471" on="0"/>
        <pt x="1073" y="1358" on="0"/>
        <pt x="1136" y="1265" on="1"/>
        <pt x="1022" y="1147" on="1"/>
        <pt x="1011" y="1135" on="0"/>
        <pt x="984" y="1116" on="0"/>
        <pt x="962" y="1116" on="1"/>
        <pt x="938" y="1116" on="0"/>
        <pt x="905" y="1146" on="0"/>
        <pt x="861" y="1183" on="0"/>
        <pt x="795" y="1213" on="0"/>
        <pt x="738" y="1213" on="1"/>
        <pt x="644" y="1213" on="0"/>
        <pt x="511" y="1080" on="0"/>
        <pt x="480" y="950" on="1"/>
        <pt x="940" y="950" on="1"/>
        <pt x="940" y="858" on="1"/>
        <pt x="940" y="845" on="0"/>
        <pt x="928" y="819" on="0"/>
        <pt x="906" y="798" on="0"/>
        <pt x="875" y="785" on="0"/>
        <pt x="856" y="785" on="1"/>
        <pt x="459" y="785" on="1"/>
        <pt x="458" y="771" on="0"/>
        <pt x="458" y="743" on="0"/>
        <pt x="458" y="729" on="1"/>
        <pt x="458" y="694" on="1"/>
        <pt x="844" y="694" on="1"/>
        <pt x="844" y="602" on="1"/>
        <pt x="844" y="589" on="0"/>
        <pt x="832" y="563" on="0"/>
        <pt x="810" y="542" on="0"/>
        <pt x="779" y="529" on="0"/>
        <pt x="760" y="529" on="1"/>
        <pt x="474" y="529" on="1"/>
        <pt x="500" y="384" on="0"/>
        <pt x="630" y="244" on="0"/>
        <pt x="724" y="244" on="1"/>
        <pt x="766" y="244" on="0"/>
        <pt x="826" y="261" on="0"/>
        <pt x="868" y="285" on="0"/>
        <pt x="897" y="315" on="0"/>
        <pt x="922" y="339" on="0"/>
        <pt x="947" y="356" on="0"/>
        <pt x="964" y="356" on="1"/>
        <pt x="978" y="356" on="0"/>
        <pt x="997" y="348" on="0"/>
        <pt x="1008" y="337" on="1"/>
        <pt x="1144" y="216" on="1"/>
        <pt x="1075" y="103" on="0"/>
        <pt x="851" y="-14" on="0"/>
        <pt x="708" y="-14" on="1"/>
        <pt x="589" y="-14" on="0"/>
        <pt x="400" y="65" on="0"/>
        <pt x="261" y="207" on="0"/>
        <pt x="172" y="407" on="0"/>
        <pt x="153" y="529" on="1"/>
        <pt x="40" y="529" on="1"/>
        <pt x="40" y="694" on="1"/>
        <pt x="138" y="694" on="1"/>
        <pt x="138" y="729" on="1"/>
        <pt x="138" y="743" on="0"/>
        <pt x="138" y="771" on="0"/>
        <pt x="139" y="785" on="1"/>
        <pt x="40" y="785" on="1"/>
      </contour>
    </TTGlyph>
    <TTGlyph name="F" xMin="120" yMin="0" xMax="1058" yMax="1457">
      <contour>
        <pt x="1058" y="1457" on="1"/>
        <pt x="1058" y="1197" on="1"/>
        <pt x="460" y="1197" on="1"/>
        <pt x="460" y="828" on="1"/>
        <pt x="958" y="828" on="1"/>
        <pt x="958" y="567" on="1"/>
        <pt x="460" y="567" on="1"/>
        <pt x="460" y="0" on="1"/>
        <pt x="120" y="0" on="1"/>
        <pt x="120" y="1457" on="1"/>
      </contour>
    </TTGlyph>
    <TTGlyph name="G" xMin="36" yMin="-16" xMax="1348" yMax="1473">
      <contour>
        <pt x="806" y="244" on="1"/>
        <pt x="876" y="244" on="0"/>
        <pt x="984" y="268" on="0"/>
        <pt x="1032" y="288" on="1"/>
        <pt x="1032" y="509" on="1"/>
        <pt x="888" y="509" on="1"/>
        <pt x="856" y="509" on="0"/>
        <pt x="820" y="543" on="0"/>
        <pt x="820" y="569" on="1"/>
        <pt x="820" y="755" on="1"/>
        <pt x="1338" y="755" on="1"/>
        <pt x="1338" y="140" on="1"/>
        <pt x="1282" y="99" on="0"/>
        <pt x="1161" y="40" on="0"/>
        <pt x="1024" y="2" on="0"/>
        <pt x="869" y="-16" on="0"/>
        <pt x="780" y="-16" on="1"/>
        <pt x="620" y="-16" on="0"/>
        <pt x="348" y="97" on="0"/>
        <pt x="149" y="296" on="0"/>
        <pt x="36" y="569" on="0"/>
        <pt x="36" y="729" on="1"/>
        <pt x="36" y="892" on="0"/>
        <pt x="144" y="1165" on="0"/>
        <pt x="345" y="1363" on="0"/>
        <pt x="630" y="1473" on="0"/>
        <pt x="806" y="1473" on="1"/>
        <pt x="897" y="1473" on="0"/>
        <pt x="1057" y="1443" on="0"/>
        <pt x="1192" y="1391" on="0"/>
        <pt x="1304" y="1319" on="0"/>
        <pt x="1348" y="1277" on="1"/>
        <pt x="1250" y="1128" on="1"/>
        <pt x="1236" y="1107" on="0"/>
        <pt x="1197" y="1083" on="0"/>
        <pt x="1174" y="1083" on="1"/>
        <pt x="1144" y="1083" on="0"/>
        <pt x="1112" y="1103" on="1"/>
        <pt x="1072" y="1127" on="0"/>
        <pt x="1001" y="1162" on="0"/>
        <pt x="927" y="1184" on="0"/>
        <pt x="845" y="1194" on="0"/>
        <pt x="794" y="1194" on="1"/>
        <pt x="699" y="1194" on="0"/>
        <pt x="547" y="1127" on="0"/>
        <pt x="440" y="1005" on="0"/>
        <pt x="382" y="834" on="0"/>
        <pt x="382" y="729" on="1"/>
        <pt x="382" y="613" on="0"/>
        <pt x="446" y="433" on="0"/>
        <pt x="559" y="309" on="0"/>
        <pt x="714" y="244" on="0"/>
      </contour>
    </TTGlyph>
    <TTGlyph name="H" xMin="120" yMin="0" xMax="1392" yMax="1457">
      <contour>
        <pt x="1392" y="0" on="1"/>
        <pt x="1052" y="0" on="1"/>
        <pt x="1052" y="616" on="1"/>
        <pt x="460" y="616" on="1"/>
        <pt x="460" y="0" on="1"/>
        <pt x="120" y="0" on="1"/>
        <pt x="120" y="1457" on="1"/>
        <pt x="460" y="1457" on="1"/>
        <pt x="460" y="848" on="1"/>
        <pt x="1052" y="848" on="1"/>
        <pt x="1052" y="1457" on="1"/>
        <pt x="1392" y="1457" on="1"/>
      </contour>
    </TTGlyph>
    <TTGlyph name="I" xMin="150" yMin="0" xMax="490" yMax="1457">
      <contour>
        <pt x="490" y="0" on="1"/>
        <pt x="150" y="0" on="1"/>
        <pt x="150" y="1457" on="1"/>
        <pt x="490" y="1457" on="1"/>
      </contour>
    </TTGlyph>
    <TTGlyph name="Iacute" xMin="103" yMin="0" xMax="749" yMax="1798">
      <component glyphName="I" x="0" y="0" flags="0x204"/>
      <component glyphName="acute.case" x="-25" y="0" flags="0x4"/>
    </TTGlyph>
    <TTGlyph name="Icircumflex" xMin="-75" yMin="0" xMax="725" yMax="1778">
      <component glyphName="I" x="0" y="0" flags="0x204"/>
      <component glyphName="circumflex.case" x="-5" y="0" flags="0x4"/>
    </TTGlyph>
    <TTGlyph name="Idieresis" xMin="-51" yMin="0" xMax="701" yMax="1821">
      <component glyphName="I" x="0" y="0" flags="0x204"/>
      <component glyphName="dieresis.case" x="-5" y="0" flags="0x4"/>
    </TTGlyph>
    <TTGlyph name="Igrave" xMin="-143" yMin="0" xMax="503" yMax="1798">
      <component glyphName="I" x="0" y="0" flags="0x204"/>
      <component glyphName="grave.case" x="-25" y="0" flags="0x4"/>
    </TTGlyph>
    <TTGlyph name="J" xMin="16" yMin="-16" xMax="740" yMax="1457">
      <contour>
        <pt x="740" y="528" on="1"/>
        <pt x="740" y="406" on="0"/>
        <pt x="679" y="206" on="0"/>
        <pt x="556" y="63" on="0"/>
        <pt x="370" y="-16" on="0"/>
        <pt x="244" y="-16" on="1"/>
        <pt x="187" y="-16" on="0"/>
        <pt x="76" y="-4" on="0"/>
        <pt x="16" y="10" on="1"/>
        <pt x="34" y="207" on="1"/>
        <pt x="36" y="233" on="0"/>
        <pt x="73" y="265" on="0"/>
        <pt x="106" y="265" on="1"/>
        <pt x="123" y="265" on="0"/>
        <pt x="173" y="254" on="0"/>
        <pt x="208" y="254" on="1"/>
        <pt x="257" y="254" on="0"/>
        <pt x="330" y="281" on="0"/>
        <pt x="378" y="344" on="0"/>
        <pt x="402" y="446" on="0"/>
        <pt x="402" y="521" on="1"/>
        <pt x="402" y="1457" on="1"/>
        <pt x="740" y="1457" on="1"/>
      </contour>
    </TTGlyph>
    <TTGlyph name="K" xMin="120" yMin="0" xMax="1424" yMax="1457">
      <contour>
        <pt x="458" y="867" on="1"/>
        <pt x="512" y="867" on="1"/>
        <pt x="587" y="867" on="0"/>
        <pt x="620" y="914" on="1"/>
        <pt x="948" y="1390" on="1"/>
        <pt x="975" y="1429" on="0"/>
        <pt x="1044" y="1457" on="0"/>
        <pt x="1094" y="1457" on="1"/>
        <pt x="1388" y="1457" on="1"/>
        <pt x="956" y="868" on="1"/>
        <pt x="933" y="836" on="0"/>
        <pt x="883" y="794" on="0"/>
        <pt x="857" y="780" on="1"/>
        <pt x="895" y="766" on="0"/>
        <pt x="958" y="717" on="0"/>
        <pt x="984" y="676" on="1"/>
        <pt x="1424" y="0" on="1"/>
        <pt x="1122" y="0" on="1"/>
        <pt x="1093" y="0" on="0"/>
        <pt x="1052" y="8" on="0"/>
        <pt x="1022" y="24" on="0"/>
        <pt x="1000" y="47" on="0"/>
        <pt x="990" y="62" on="1"/>
        <pt x="660" y="569" on="1"/>
        <pt x="642" y="597" on="0"/>
        <pt x="587" y="620" on="0"/>
        <pt x="540" y="620" on="1"/>
        <pt x="458" y="620" on="1"/>
        <pt x="458" y="0" on="1"/>
        <pt x="120" y="0" on="1"/>
        <pt x="120" y="1457" on="1"/>
        <pt x="458" y="1457" on="1"/>
      </contour>
    </TTGlyph>
    <TTGlyph name="L" xMin="120" yMin="0" xMax="998" yMax="1457">
      <contour>
        <pt x="458" y="270" on="1"/>
        <pt x="998" y="270" on="1"/>
        <pt x="998" y="0" on="1"/>
        <pt x="120" y="0" on="1"/>
        <pt x="120" y="1457" on="1"/>
        <pt x="458" y="1457" on="1"/>
      </contour>
    </TTGlyph>
    <TTGlyph name="Lslash" xMin="24" yMin="0" xMax="1076" yMax="1457">
      <contour>
        <pt x="536" y="923" on="1"/>
        <pt x="870" y="1088" on="1"/>
        <pt x="870" y="867" on="1"/>
        <pt x="870" y="819" on="0"/>
        <pt x="830" y="805" on="1"/>
        <pt x="536" y="653" on="1"/>
        <pt x="536" y="270" on="1"/>
        <pt x="1076" y="270" on="1"/>
        <pt x="1076" y="0" on="1"/>
        <pt x="198" y="0" on="1"/>
        <pt x="198" y="505" on="1"/>
        <pt x="24" y="420" on="1"/>
        <pt x="24" y="648" on="1"/>
        <pt x="24" y="687" on="0"/>
        <pt x="60" y="702" on="1"/>
        <pt x="198" y="773" on="1"/>
        <pt x="198" y="1457" on="1"/>
        <pt x="536" y="1457" on="1"/>
      </contour>
    </TTGlyph>
    <TTGlyph name="M" xMin="120" yMin="0" xMax="1758" yMax="1457">
      <contour>
        <pt x="865" y="666" on="1"/>
        <pt x="885" y="628" on="0"/>
        <pt x="922" y="546" on="0"/>
        <pt x="939" y="503" on="1"/>
        <pt x="956" y="547" on="0"/>
        <pt x="994" y="630" on="0"/>
        <pt x="1014" y="669" on="1"/>
        <pt x="1388" y="1405" on="1"/>
        <pt x="1398" y="1424" on="0"/>
        <pt x="1419" y="1445" on="0"/>
        <pt x="1445" y="1455" on="0"/>
        <pt x="1478" y="1457" on="0"/>
        <pt x="1500" y="1457" on="1"/>
        <pt x="1758" y="1457" on="1"/>
        <pt x="1758" y="0" on="1"/>
        <pt x="1460" y="0" on="1"/>
        <pt x="1460" y="838" on="1"/>
        <pt x="1460" y="899" on="0"/>
        <pt x="1466" y="970" on="1"/>
        <pt x="1080" y="221" on="1"/>
        <pt x="1062" y="186" on="0"/>
        <pt x="1001" y="150" on="0"/>
        <pt x="962" y="150" on="1"/>
        <pt x="916" y="150" on="1"/>
        <pt x="877" y="150" on="0"/>
        <pt x="816" y="186" on="0"/>
        <pt x="798" y="221" on="1"/>
        <pt x="410" y="971" on="1"/>
        <pt x="414" y="936" on="0"/>
        <pt x="418" y="867" on="0"/>
        <pt x="418" y="838" on="1"/>
        <pt x="418" y="0" on="1"/>
        <pt x="120" y="0" on="1"/>
        <pt x="120" y="1457" on="1"/>
        <pt x="378" y="1457" on="1"/>
        <pt x="400" y="1457" on="0"/>
        <pt x="433" y="1455" on="0"/>
        <pt x="459" y="1445" on="0"/>
        <pt x="480" y="1424" on="0"/>
        <pt x="490" y="1405" on="1"/>
        <pt x="865" y="666" on="1"/>
      </contour>
    </TTGlyph>
    <TTGlyph name="N" xMin="120" yMin="0" xMax="1392" yMax="1457">
      <contour>
        <pt x="298" y="1457" on="1"/>
        <pt x="320" y="1457" on="0"/>
        <pt x="350" y="1453" on="0"/>
        <pt x="374" y="1442" on="0"/>
        <pt x="396" y="1422" on="0"/>
        <pt x="410" y="1405" on="1"/>
        <pt x="1102" y="530" on="1"/>
        <pt x="1098" y="572" on="0"/>
        <pt x="1094" y="651" on="0"/>
        <pt x="1094" y="686" on="1"/>
        <pt x="1094" y="1457" on="1"/>
        <pt x="1392" y="1457" on="1"/>
        <pt x="1392" y="0" on="1"/>
        <pt x="1216" y="0" on="1"/>
        <pt x="1177" y="0" on="0"/>
        <pt x="1123" y="24" on="0"/>
        <pt x="1098" y="56" on="1"/>
        <pt x="411" y="924" on="1"/>
        <pt x="414" y="886" on="0"/>
        <pt x="418" y="813" on="0"/>
        <pt x="418" y="781" on="1"/>
        <pt x="418" y="0" on="1"/>
        <pt x="120" y="0" on="1"/>
        <pt x="120" y="1457" on="1"/>
        <pt x="298" y="1457" on="1"/>
      </contour>
    </TTGlyph>
    <TTGlyph name="Nacute" xMin="120" yMin="0" xMax="1392" yMax="1798">
      <component glyphName="N" x="0" y="0" flags="0x204"/>
      <component glyphName="acute.case" x="414" y="0" flags="0x4"/>
    </TTGlyph>
    <TTGlyph name="Ntilde" xMin="120" yMin="0" xMax="1392" yMax="1787">
      <component glyphName="N" x="0" y="0" flags="0x204"/>
      <component glyphName="tilde.case" x="434" y="0" flags="0x4"/>
    </TTGlyph>
    <TTGlyph name="O" xMin="44" yMin="-16" xMax="1558" yMax="1473">
      <contour>
        <pt x="1558" y="729" on="1"/>
        <pt x="1558" y="571" on="0"/>
        <pt x="1449" y="299" on="0"/>
        <pt x="1251" y="98" on="0"/>
        <pt x="972" y="-16" on="0"/>
        <pt x="802" y="-16" on="1"/>
        <pt x="632" y="-16" on="0"/>
        <pt x="352" y="98" on="0"/>
        <pt x="153" y="299" on="0"/>
        <pt x="44" y="571" on="0"/>
        <pt x="44" y="729" on="1"/>
        <pt x="44" y="887" on="0"/>
        <pt x="153" y="1159" on="0"/>
        <pt x="352" y="1359" on="0"/>
        <pt x="632" y="1473" on="0"/>
        <pt x="802" y="1473" on="1"/>
        <pt x="972" y="1473" on="0"/>
        <pt x="1251" y="1358" on="0"/>
        <pt x="1449" y="1158" on="0"/>
        <pt x="1558" y="886" on="0"/>
      </contour>
      <contour>
        <pt x="1212" y="729" on="1"/>
        <pt x="1212" y="837" on="0"/>
        <pt x="1156" y="1010" on="0"/>
        <pt x="1051" y="1130" on="0"/>
        <pt x="899" y="1194" on="0"/>
        <pt x="802" y="1194" on="1"/>
        <pt x="704" y="1194" on="0"/>
        <pt x="551" y="1130" on="0"/>
        <pt x="446" y="1010" on="0"/>
        <pt x="390" y="837" on="0"/>
        <pt x="390" y="729" on="1"/>
        <pt x="390" y="620" on="0"/>
        <pt x="446" y="447" on="0"/>
        <pt x="551" y="327" on="0"/>
        <pt x="704" y="264" on="0"/>
        <pt x="802" y="264" on="1"/>
        <pt x="899" y="264" on="0"/>
        <pt x="1051" y="327" on="0"/>
        <pt x="1156" y="447" on="0"/>
        <pt x="1212" y="620" on="0"/>
      </contour>
    </TTGlyph>
    <TTGlyph name="OE" xMin="44" yMin="-16" xMax="2064" yMax="1473">
      <contour>
        <pt x="2064" y="1457" on="1"/>
        <pt x="2064" y="1197" on="1"/>
        <pt x="1466" y="1197" on="1"/>
        <pt x="1466" y="857" on="1"/>
        <pt x="1924" y="857" on="1"/>
        <pt x="1924" y="607" on="1"/>
        <pt x="1466" y="607" on="1"/>
        <pt x="1466" y="260" on="1"/>
        <pt x="2064" y="260" on="1"/>
        <pt x="2064" y="0" on="1"/>
        <pt x="1166" y="0" on="1"/>
        <pt x="1166" y="148" on="1"/>
        <pt x="1080" y="70" on="0"/>
        <pt x="859" y="-16" on="0"/>
        <pt x="726" y="-16" on="1"/>
        <pt x="572" y="-16" on="0"/>
        <pt x="321" y="98" on="0"/>
        <pt x="142" y="299" on="0"/>
        <pt x="44" y="571" on="0"/>
        <pt x="44" y="729" on="1"/>
        <pt x="44" y="887" on="0"/>
        <pt x="142" y="1159" on="0"/>
        <pt x="321" y="1359" on="0"/>
        <pt x="572" y="1473" on="0"/>
        <pt x="726" y="1473" on="1"/>
        <pt x="859" y="1473" on="0"/>
        <pt x="1080" y="1386" on="0"/>
        <pt x="1166" y="1308" on="1"/>
        <pt x="1166" y="1457" on="1"/>
      </contour>
      <contour>
        <pt x="1126" y="729" on="1"/>
        <pt x="1126" y="837" on="0"/>
        <pt x="1077" y="1013" on="0"/>
        <pt x="983" y="1136" on="0"/>
        <pt x="847" y="1203" on="0"/>
        <pt x="760" y="1203" on="1"/>
        <pt x="671" y="1203" on="0"/>
        <pt x="534" y="1136" on="0"/>
        <pt x="439" y="1013" on="0"/>
        <pt x="390" y="837" on="0"/>
        <pt x="390" y="729" on="1"/>
        <pt x="390" y="620" on="0"/>
        <pt x="439" y="444" on="0"/>
        <pt x="534" y="321" on="0"/>
        <pt x="671" y="254" on="0"/>
        <pt x="760" y="254" on="1"/>
        <pt x="847" y="254" on="0"/>
        <pt x="983" y="321" on="0"/>
        <pt x="1077" y="444" on="0"/>
        <pt x="1126" y="620" on="0"/>
      </contour>
    </TTGlyph>
    <TTGlyph name="Oacute" xMin="44" yMin="-16" xMax="1558" yMax="1798">
      <component glyphName="O" x="0" y="0" flags="0x204"/>
      <component glyphName="acute.case" x="454" y="0" flags="0x4"/>
    </TTGlyph>
    <TTGlyph name="Ocircumflex" xMin="44" yMin="-16" xMax="1558" yMax="1778">
      <component glyphName="O" x="0" y="0" flags="0x204"/>
      <component glyphName="circumflex.case" x="474" y="0" flags="0x4"/>
    </TTGlyph>
    <TTGlyph name="Odieresis" xMin="44" yMin="-16" xMax="1558" yMax="1821">
      <component glyphName="O" x="0" y="0" flags="0x204"/>
      <component glyphName="dieresis.case" x="474" y="0" flags="0x4"/>
    </TTGlyph>
    <TTGlyph name="Ograve" xMin="44" yMin="-16" xMax="1558" yMax="1798">
      <component glyphName="O" x="0" y="0" flags="0x204"/>
      <component glyphName="grave.case" x="454" y="0" flags="0x4"/>
    </TTGlyph>
    <TTGlyph name="Omega" xMin="56" yMin="0" xMax="1412" yMax="1473">
      <contour>
        <pt x="788" y="0" on="1"/>
        <pt x="788" y="544" on="1"/>
        <pt x="846" y="552" on="0"/>
        <pt x="947" y="597" on="0"/>
        <pt x="1022" y="677" on="0"/>
        <pt x="1066" y="794" on="0"/>
        <pt x="1066" y="874" on="1"/>
        <pt x="1066" y="1036" on="0"/>
        <pt x="897" y="1213" on="0"/>
        <pt x="734" y="1213" on="1"/>
        <pt x="570" y="1213" on="0"/>
        <pt x="402" y="1036" on="0"/>
        <pt x="402" y="874" on="1"/>
        <pt x="402" y="794" on="0"/>
        <pt x="446" y="677" on="0"/>
        <pt x="521" y="597" on="0"/>
        <pt x="622" y="552" on="0"/>
        <pt x="680" y="544" on="1"/>
        <pt x="680" y="0" on="1"/>
        <pt x="170" y="0" on="1"/>
        <pt x="119" y="0" on="0"/>
        <pt x="58" y="57" on="0"/>
        <pt x="58" y="102" on="1"/>
        <pt x="58" y="268" on="1"/>
        <pt x="420" y="268" on="1"/>
        <pt x="420" y="378" on="1"/>
        <pt x="330" y="404" on="0"/>
        <pt x="193" y="504" on="0"/>
        <pt x="102" y="638" on="0"/>
        <pt x="56" y="801" on="0"/>
        <pt x="56" y="891" on="1"/>
        <pt x="56" y="968" on="0"/>
        <pt x="99" y="1114" on="0"/>
        <pt x="180" y="1243" on="0"/>
        <pt x="298" y="1352" on="0"/>
        <pt x="449" y="1430" on="0"/>
        <pt x="630" y="1473" on="0"/>
        <pt x="734" y="1473" on="1"/>
        <pt x="838" y="1473" on="0"/>
        <pt x="1019" y="1430" on="0"/>
        <pt x="1170" y="1352" on="0"/>
        <pt x="1288" y="1243" on="0"/>
        <pt x="1369" y="1114" on="0"/>
        <pt x="1412" y="968" on="0"/>
        <pt x="1412" y="891" on="1"/>
        <pt x="1412" y="801" on="0"/>
        <pt x="1366" y="638" on="0"/>
        <pt x="1274" y="504" on="0"/>
        <pt x="1138" y="404" on="0"/>
        <pt x="1048" y="378" on="1"/>
        <pt x="1048" y="268" on="1"/>
        <pt x="1410" y="268" on="1"/>
        <pt x="1410" y="102" on="1"/>
        <pt x="1410" y="57" on="0"/>
        <pt x="1349" y="0" on="0"/>
        <pt x="1298" y="0" on="1"/>
      </contour>
    </TTGlyph>
    <TTGlyph name="Oslash" xMin="44" yMin="-113" xMax="1558" yMax="1523">
      <contour>
        <pt x="1558" y="729" on="1"/>
        <pt x="1558" y="571" on="0"/>
        <pt x="1449" y="299" on="0"/>
        <pt x="1251" y="98" on="0"/>
        <pt x="972" y="-16" on="0"/>
        <pt x="802" y="-16" on="1"/>
        <pt x="708" y="-16" on="0"/>
        <pt x="540" y="19" on="0"/>
        <pt x="465" y="52" on="1"/>
        <pt x="408" y="-27" on="1"/>
        <pt x="391" y="-51" on="0"/>
        <pt x="347" y="-84" on="0"/>
        <pt x="299" y="-104" on="0"/>
        <pt x="248" y="-113" on="0"/>
        <pt x="224" y="-113" on="1"/>
        <pt x="92" y="-113" on="1"/>
        <pt x="291" y="163" on="1"/>
        <pt x="173" y="265" on="0"/>
        <pt x="44" y="555" on="0"/>
        <pt x="44" y="729" on="1"/>
        <pt x="44" y="887" on="0"/>
        <pt x="153" y="1159" on="0"/>
        <pt x="352" y="1359" on="0"/>
        <pt x="632" y="1473" on="0"/>
        <pt x="802" y="1473" on="1"/>
        <pt x="907" y="1473" on="0"/>
        <pt x="1092" y="1429" on="0"/>
        <pt x="1173" y="1387" on="1"/>
        <pt x="1214" y="1444" on="1"/>
        <pt x="1230" y="1466" on="0"/>
        <pt x="1257" y="1496" on="0"/>
        <pt x="1287" y="1515" on="0"/>
        <pt x="1325" y="1523" on="0"/>
        <pt x="1352" y="1523" on="1"/>
        <pt x="1524" y="1523" on="1"/>
        <pt x="1340" y="1268" on="1"/>
        <pt x="1445" y="1166" on="0"/>
        <pt x="1558" y="890" on="0"/>
      </contour>
      <contour>
        <pt x="390" y="729" on="1"/>
        <pt x="390" y="537" on="0"/>
        <pt x="474" y="418" on="1"/>
        <pt x="1001" y="1149" on="1"/>
        <pt x="959" y="1171" on="0"/>
        <pt x="859" y="1194" on="0"/>
        <pt x="802" y="1194" on="1"/>
        <pt x="704" y="1194" on="0"/>
        <pt x="551" y="1130" on="0"/>
        <pt x="446" y="1010" on="0"/>
        <pt x="390" y="837" on="0"/>
      </contour>
      <contour>
        <pt x="1212" y="729" on="1"/>
        <pt x="1212" y="810" on="0"/>
        <pt x="1180" y="948" on="0"/>
        <pt x="1150" y="1003" on="1"/>
        <pt x="638" y="292" on="1"/>
        <pt x="709" y="264" on="0"/>
        <pt x="802" y="264" on="1"/>
        <pt x="899" y="264" on="0"/>
        <pt x="1051" y="327" on="0"/>
        <pt x="1156" y="447" on="0"/>
        <pt x="1212" y="620" on="0"/>
      </contour>
    </TTGlyph>
    <TTGlyph name="Otilde" xMin="44" yMin="-16" xMax="1558" yMax="1787">
      <component glyphName="O" x="0" y="0" flags="0x204"/>
      <component glyphName="tilde.case" x="474" y="0" flags="0x4"/>
    </TTGlyph>
    <TTGlyph name="P" xMin="120" yMin="0" xMax="1220" yMax="1457">
      <contour>
        <pt x="458" y="487" on="1"/>
        <pt x="458" y="0" on="1"/>
        <pt x="120" y="0" on="1"/>
        <pt x="120" y="1457" on="1"/>
        <pt x="634" y="1457" on="1"/>
        <pt x="788" y="1457" on="0"/>
        <pt x="1009" y="1384" on="0"/>
        <pt x="1152" y="1256" on="0"/>
        <pt x="1220" y="1082" on="0"/>
        <pt x="1220" y="981" on="1"/>
        <pt x="1220" y="872" on="0"/>
        <pt x="1150" y="690" on="0"/>
        <pt x="1006" y="560" on="0"/>
        <pt x="785" y="487" on="0"/>
        <pt x="634" y="487" on="1"/>
      </contour>
      <contour>
        <pt x="458" y="742" on="1"/>
        <pt x="634" y="742" on="1"/>
        <pt x="766" y="742" on="0"/>
        <pt x="882" y="868" on="0"/>
        <pt x="882" y="981" on="1"/>
        <pt x="882" y="1031" on="0"/>
        <pt x="852" y="1113" on="0"/>
        <pt x="791" y="1172" on="0"/>
        <pt x="698" y="1204" on="0"/>
        <pt x="634" y="1204" on="1"/>
        <pt x="458" y="1204" on="1"/>
      </contour>
    </TTGlyph>
    <TTGlyph name="Q" xMin="44" yMin="-273" xMax="1640" yMax="1473">
      <contour>
        <pt x="1558" y="729" on="1"/>
        <pt x="1558" y="635" on="0"/>
        <pt x="1519" y="462" on="0"/>
        <pt x="1446" y="310" on="0"/>
        <pt x="1339" y="180" on="0"/>
        <pt x="1271" y="130" on="1"/>
        <pt x="1640" y="-273" on="1"/>
        <pt x="1362" y="-273" on="1"/>
        <pt x="1302" y="-273" on="0"/>
        <pt x="1204" y="-244" on="0"/>
        <pt x="1166" y="-200" on="1"/>
        <pt x="985" y="3" on="1"/>
        <pt x="941" y="-6" on="0"/>
        <pt x="850" y="-16" on="0"/>
        <pt x="802" y="-16" on="1"/>
        <pt x="632" y="-16" on="0"/>
        <pt x="352" y="98" on="0"/>
        <pt x="153" y="299" on="0"/>
        <pt x="44" y="571" on="0"/>
        <pt x="44" y="729" on="1"/>
        <pt x="44" y="887" on="0"/>
        <pt x="153" y="1159" on="0"/>
        <pt x="352" y="1359" on="0"/>
        <pt x="632" y="1473" on="0"/>
        <pt x="802" y="1473" on="1"/>
        <pt x="972" y="1473" on="0"/>
        <pt x="1251" y="1358" on="0"/>
        <pt x="1449" y="1158" on="0"/>
        <pt x="1558" y="886" on="0"/>
      </contour>
      <contour>
        <pt x="1212" y="729" on="1"/>
        <pt x="1212" y="837" on="0"/>
        <pt x="1156" y="1010" on="0"/>
        <pt x="1051" y="1130" on="0"/>
        <pt x="899" y="1194" on="0"/>
        <pt x="802" y="1194" on="1"/>
        <pt x="704" y="1194" on="0"/>
        <pt x="551" y="1130" on="0"/>
        <pt x="446" y="1010" on="0"/>
        <pt x="390" y="837" on="0"/>
        <pt x="390" y="729" on="1"/>
        <pt x="390" y="620" on="0"/>
        <pt x="446" y="447" on="0"/>
        <pt x="551" y="327" on="0"/>
        <pt x="704" y="264" on="0"/>
        <pt x="802" y="264" on="1"/>
        <pt x="899" y="264" on="0"/>
        <pt x="1051" y="327" on="0"/>
        <pt x="1156" y="447" on="0"/>
        <pt x="1212" y="620" on="0"/>
      </contour>
    </TTGlyph>
    <TTGlyph name="R" xMin="120" yMin="0" xMax="1312" yMax="1457">
      <contour>
        <pt x="458" y="539" on="1"/>
        <pt x="458" y="0" on="1"/>
        <pt x="120" y="0" on="1"/>
        <pt x="120" y="1457" on="1"/>
        <pt x="594" y="1457" on="1"/>
        <pt x="752" y="1457" on="0"/>
        <pt x="975" y="1392" on="0"/>
        <pt x="1116" y="1276" on="0"/>
        <pt x="1180" y="1118" on="0"/>
        <pt x="1180" y="1025" on="1"/>
        <pt x="1180" y="954" on="0"/>
        <pt x="1142" y="828" on="0"/>
        <pt x="1067" y="721" on="0"/>
        <pt x="958" y="637" on="0"/>
        <pt x="887" y="610" on="1"/>
        <pt x="921" y="593" on="0"/>
        <pt x="980" y="543" on="0"/>
        <pt x="1002" y="507" on="1"/>
        <pt x="1312" y="0" on="1"/>
        <pt x="1006" y="0" on="1"/>
        <pt x="921" y="0" on="0"/>
        <pt x="884" y="64" on="1"/>
        <pt x="642" y="487" on="1"/>
        <pt x="626" y="515" on="0"/>
        <pt x="583" y="539" on="0"/>
        <pt x="544" y="539" on="1"/>
      </contour>
      <contour>
        <pt x="458" y="772" on="1"/>
        <pt x="594" y="772" on="1"/>
        <pt x="663" y="772" on="0"/>
        <pt x="760" y="807" on="0"/>
        <pt x="822" y="869" on="0"/>
        <pt x="850" y="952" on="0"/>
        <pt x="850" y="1000" on="1"/>
        <pt x="850" y="1096" on="0"/>
        <pt x="725" y="1204" on="0"/>
        <pt x="594" y="1204" on="1"/>
        <pt x="458" y="1204" on="1"/>
      </contour>
    </TTGlyph>
    <TTGlyph name="S" xMin="14" yMin="-16" xMax="1036" yMax="1473">
      <contour>
        <pt x="932" y="1161" on="1"/>
        <pt x="917" y="1137" on="0"/>
        <pt x="884" y="1113" on="0"/>
        <pt x="858" y="1113" on="1"/>
        <pt x="835" y="1113" on="0"/>
        <pt x="782" y="1142" on="0"/>
        <pt x="715" y="1178" on="0"/>
        <pt x="629" y="1207" on="0"/>
        <pt x="574" y="1207" on="1"/>
        <pt x="479" y="1207" on="0"/>
        <pt x="386" y="1126" on="0"/>
        <pt x="386" y="1057" on="1"/>
        <pt x="386" y="1013" on="0"/>
        <pt x="442" y="955" on="0"/>
        <pt x="533" y="913" on="0"/>
        <pt x="650" y="878" on="0"/>
        <pt x="772" y="835" on="0"/>
        <pt x="889" y="777" on="0"/>
        <pt x="980" y="687" on="0"/>
        <pt x="1036" y="558" on="0"/>
        <pt x="1036" y="467" on="1"/>
        <pt x="1036" y="366" on="0"/>
        <pt x="966" y="190" on="0"/>
        <pt x="833" y="59" on="0"/>
        <pt x="638" y="-16" on="0"/>
        <pt x="514" y="-16" on="1"/>
        <pt x="446" y="-16" on="0"/>
        <pt x="305" y="12" on="0"/>
        <pt x="173" y="63" on="0"/>
        <pt x="57" y="133" on="0"/>
        <pt x="14" y="176" on="1"/>
        <pt x="114" y="334" on="1"/>
        <pt x="125" y="352" on="0"/>
        <pt x="165" y="374" on="0"/>
        <pt x="188" y="374" on="1"/>
        <pt x="218" y="374" on="0"/>
        <pt x="279" y="336" on="0"/>
        <pt x="356" y="290" on="0"/>
        <pt x="456" y="252" on="0"/>
        <pt x="524" y="252" on="1"/>
        <pt x="616" y="252" on="0"/>
        <pt x="718" y="333" on="0"/>
        <pt x="718" y="421" on="1"/>
        <pt x="718" y="472" on="0"/>
        <pt x="662" y="536" on="0"/>
        <pt x="571" y="578" on="0"/>
        <pt x="455" y="610" on="0"/>
        <pt x="333" y="649" on="0"/>
        <pt x="217" y="706" on="0"/>
        <pt x="126" y="799" on="0"/>
        <pt x="70" y="938" on="0"/>
        <pt x="70" y="1040" on="1"/>
        <pt x="70" y="1122" on="0"/>
        <pt x="136" y="1278" on="0"/>
        <pt x="264" y="1400" on="0"/>
        <pt x="450" y="1473" on="0"/>
        <pt x="570" y="1473" on="1"/>
        <pt x="637" y="1473" on="0"/>
        <pt x="764" y="1452" on="0"/>
        <pt x="878" y="1411" on="0"/>
        <pt x="977" y="1354" on="0"/>
        <pt x="1016" y="1318" on="1"/>
      </contour>
    </TTGlyph>
    <TTGlyph name="Sacute" xMin="14" yMin="-16" xMax="1036" yMax="1798">
      <component glyphName="S" x="0" y="0" flags="0x4"/>
      <component glyphName="acute.case" x="254" y="0" flags="0x4"/>
    </TTGlyph>
    <TTGlyph name="Scaron" xMin="14" yMin="-16" xMax="1036" yMax="1778">
      <component glyphName="S" x="0" y="0" flags="0x204"/>
      <component glyphName="caron.case" x="256" y="0" flags="0x4"/>
    </TTGlyph>
    <TTGlyph name="T" xMin="20" yMin="0" xMax="1178" yMax="1457">
      <contour>
        <pt x="1178" y="1457" on="1"/>
        <pt x="1178" y="1189" on="1"/>
        <pt x="768" y="1189" on="1"/>
        <pt x="768" y="0" on="1"/>
        <pt x="430" y="0" on="1"/>
        <pt x="430" y="1189" on="1"/>
        <pt x="20" y="1189" on="1"/>
        <pt x="20" y="1457" on="1"/>
      </contour>
    </TTGlyph>
    <TTGlyph name="Thorn" xMin="120" yMin="0" xMax="1220" yMax="1457">
      <contour>
        <pt x="458" y="252" on="1"/>
        <pt x="458" y="0" on="1"/>
        <pt x="120" y="0" on="1"/>
        <pt x="120" y="1457" on="1"/>
        <pt x="458" y="1457" on="1"/>
        <pt x="458" y="1222" on="1"/>
        <pt x="634" y="1222" on="1"/>
        <pt x="788" y="1222" on="0"/>
        <pt x="1009" y="1149" on="0"/>
        <pt x="1152" y="1021" on="0"/>
        <pt x="1220" y="847" on="0"/>
        <pt x="1220" y="746" on="1"/>
        <pt x="1220" y="637" on="0"/>
        <pt x="1150" y="455" on="0"/>
        <pt x="1006" y="325" on="0"/>
        <pt x="785" y="252" on="0"/>
        <pt x="634" y="252" on="1"/>
      </contour>
      <contour>
        <pt x="458" y="507" on="1"/>
        <pt x="634" y="507" on="1"/>
        <pt x="766" y="507" on="0"/>
        <pt x="882" y="633" on="0"/>
        <pt x="882" y="746" on="1"/>
        <pt x="882" y="796" on="0"/>
        <pt x="852" y="878" on="0"/>
        <pt x="791" y="937" on="0"/>
        <pt x="698" y="969" on="0"/>
        <pt x="634" y="969" on="1"/>
        <pt x="458" y="969" on="1"/>
      </contour>
    </TTGlyph>
    <TTGlyph name="U" xMin="100" yMin="-16" xMax="1352" yMax="1457">
      <contour>
        <pt x="726" y="267" on="1"/>
        <pt x="794" y="267" on="0"/>
        <pt x="901" y="312" on="0"/>
        <pt x="975" y="396" on="0"/>
        <pt x="1014" y="517" on="0"/>
        <pt x="1014" y="594" on="1"/>
        <pt x="1014" y="1457" on="1"/>
        <pt x="1352" y="1457" on="1"/>
        <pt x="1352" y="594" on="1"/>
        <pt x="1352" y="460" on="0"/>
        <pt x="1265" y="236" on="0"/>
        <pt x="1103" y="74" on="0"/>
        <pt x="871" y="-16" on="0"/>
        <pt x="726" y="-16" on="1"/>
        <pt x="580" y="-16" on="0"/>
        <pt x="348" y="74" on="0"/>
        <pt x="186" y="236" on="0"/>
        <pt x="100" y="460" on="0"/>
        <pt x="100" y="594" on="1"/>
        <pt x="100" y="1457" on="1"/>
        <pt x="438" y="1457" on="1"/>
        <pt x="438" y="595" on="1"/>
        <pt x="438" y="518" on="0"/>
        <pt x="477" y="397" on="0"/>
        <pt x="551" y="312" on="0"/>
        <pt x="658" y="267" on="0"/>
      </contour>
    </TTGlyph>
    <TTGlyph name="Uacute" xMin="100" yMin="-16" xMax="1352" yMax="1798">
      <component glyphName="U" x="0" y="0" flags="0x204"/>
      <component glyphName="acute.case" x="376" y="0" flags="0x4"/>
    </TTGlyph>
    <TTGlyph name="Ucircumflex" xMin="100" yMin="-16" xMax="1352" yMax="1778">
      <component glyphName="U" x="0" y="0" flags="0x204"/>
      <component glyphName="circumflex.case" x="396" y="0" flags="0x4"/>
    </TTGlyph>
    <TTGlyph name="Udieresis" xMin="100" yMin="-16" xMax="1352" yMax="1821">
      <component glyphName="U" x="0" y="0" flags="0x204"/>
      <component glyphName="dieresis.case" x="396" y="0" flags="0x4"/>
    </TTGlyph>
    <TTGlyph name="Ugrave" xMin="100" yMin="-16" xMax="1352" yMax="1798">
      <component glyphName="U" x="0" y="0" flags="0x204"/>
      <component glyphName="grave.case" x="376" y="0" flags="0x4"/>
    </TTGlyph>
    <TTGlyph name="V" xMin="0" yMin="0" xMax="1474" yMax="1457">
      <contour>
        <pt x="0" y="1457" on="1"/>
        <pt x="272" y="1457" on="1"/>
        <pt x="316" y="1457" on="0"/>
        <pt x="372" y="1417" on="0"/>
        <pt x="384" y="1384" on="1"/>
        <pt x="666" y="604" on="1"/>
        <pt x="685" y="553" on="0"/>
        <pt x="724" y="433" on="0"/>
        <pt x="741" y="367" on="1"/>
        <pt x="755" y="433" on="0"/>
        <pt x="792" y="553" on="0"/>
        <pt x="810" y="604" on="1"/>
        <pt x="1090" y="1384" on="1"/>
        <pt x="1100" y="1412" on="0"/>
        <pt x="1158" y="1457" on="0"/>
        <pt x="1200" y="1457" on="1"/>
        <pt x="1474" y="1457" on="1"/>
        <pt x="890" y="0" on="1"/>
        <pt x="584" y="0" on="1"/>
      </contour>
    </TTGlyph>
    <TTGlyph name="W" xMin="10" yMin="0" xMax="2132" yMax="1457">
      <contour>
        <pt x="10" y="1457" on="1"/>
        <pt x="294" y="1457" on="1"/>
        <pt x="338" y="1457" on="0"/>
        <pt x="397" y="1417" on="0"/>
        <pt x="406" y="1384" on="1"/>
        <pt x="606" y="624" on="1"/>
        <pt x="616" y="587" on="0"/>
        <pt x="636" y="503" on="0"/>
        <pt x="641" y="457" on="1"/>
        <pt x="651" y="504" on="0"/>
        <pt x="675" y="587" on="0"/>
        <pt x="686" y="624" on="1"/>
        <pt x="922" y="1384" on="1"/>
        <pt x="931" y="1412" on="0"/>
        <pt x="990" y="1457" on="0"/>
        <pt x="1032" y="1457" on="1"/>
        <pt x="1132" y="1457" on="1"/>
        <pt x="1176" y="1457" on="0"/>
        <pt x="1233" y="1418" on="0"/>
        <pt x="1244" y="1384" on="1"/>
        <pt x="1478" y="624" on="1"/>
        <pt x="1489" y="589" on="0"/>
        <pt x="1513" y="510" on="0"/>
        <pt x="1522" y="465" on="1"/>
        <pt x="1530" y="509" on="0"/>
        <pt x="1547" y="589" on="0"/>
        <pt x="1556" y="624" on="1"/>
        <pt x="1756" y="1384" on="1"/>
        <pt x="1764" y="1413" on="0"/>
        <pt x="1824" y="1457" on="0"/>
        <pt x="1866" y="1457" on="1"/>
        <pt x="2132" y="1457" on="1"/>
        <pt x="1682" y="0" on="1"/>
        <pt x="1376" y="0" on="1"/>
        <pt x="1102" y="903" on="1"/>
        <pt x="1095" y="924" on="0"/>
        <pt x="1080" y="974" on="0"/>
        <pt x="1073" y="1002" on="1"/>
        <pt x="1066" y="974" on="0"/>
        <pt x="1051" y="924" on="0"/>
        <pt x="1044" y="903" on="1"/>
        <pt x="766" y="0" on="1"/>
        <pt x="460" y="0" on="1"/>
      </contour>
    </TTGlyph>
    <TTGlyph name="X" xMin="10" yMin="0" xMax="1414" yMax="1457">
      <contour>
        <pt x="479" y="749" on="1"/>
        <pt x="28" y="1457" on="1"/>
        <pt x="366" y="1457" on="1"/>
        <pt x="399" y="1457" on="0"/>
        <pt x="430" y="1440" on="0"/>
        <pt x="442" y="1420" on="1"/>
        <pt x="732" y="929" on="1"/>
        <pt x="737" y="942" on="0"/>
        <pt x="750" y="966" on="0"/>
        <pt x="758" y="979" on="1"/>
        <pt x="1012" y="1415" on="1"/>
        <pt x="1037" y="1457" on="0"/>
        <pt x="1080" y="1457" on="1"/>
        <pt x="1404" y="1457" on="1"/>
        <pt x="947" y="764" on="1"/>
        <pt x="1414" y="0" on="1"/>
        <pt x="1076" y="0" on="1"/>
        <pt x="1043" y="0" on="0"/>
        <pt x="1002" y="32" on="0"/>
        <pt x="990" y="54" on="1"/>
        <pt x="698" y="564" on="1"/>
        <pt x="690" y="542" on="0"/>
        <pt x="680" y="526" on="1"/>
        <pt x="408" y="54" on="1"/>
        <pt x="396" y="33" on="0"/>
        <pt x="356" y="0" on="0"/>
        <pt x="326" y="0" on="1"/>
        <pt x="10" y="0" on="1"/>
      </contour>
    </TTGlyph>
    <TTGlyph name="Y" xMin="-20" yMin="0" xMax="1374" yMax="1457">
      <contour>
        <pt x="846" y="554" on="1"/>
        <pt x="846" y="0" on="1"/>
        <pt x="508" y="0" on="1"/>
        <pt x="508" y="554" on="1"/>
        <pt x="-20" y="1457" on="1"/>
        <pt x="278" y="1457" on="1"/>
        <pt x="322" y="1457" on="0"/>
        <pt x="374" y="1416" on="0"/>
        <pt x="390" y="1384" on="1"/>
        <pt x="596" y="960" on="1"/>
        <pt x="621" y="909" on="0"/>
        <pt x="663" y="823" on="0"/>
        <pt x="679" y="781" on="1"/>
        <pt x="694" y="824" on="0"/>
        <pt x="736" y="910" on="0"/>
        <pt x="760" y="960" on="1"/>
        <pt x="964" y="1384" on="1"/>
        <pt x="970" y="1397" on="0"/>
        <pt x="991" y="1423" on="0"/>
        <pt x="1018" y="1444" on="0"/>
        <pt x="1053" y="1457" on="0"/>
        <pt x="1074" y="1457" on="1"/>
        <pt x="1374" y="1457" on="1"/>
      </contour>
    </TTGlyph>
    <TTGlyph name="Yacute" xMin="-20" yMin="0" xMax="1374" yMax="1798">
      <component glyphName="Y" x="0" y="0" flags="0x204"/>
      <component glyphName="acute.case" x="330" y="0" flags="0x4"/>
    </TTGlyph>
    <TTGlyph name="Ydieresis" xMin="-20" yMin="0" xMax="1374" yMax="1821">
      <component glyphName="Y" x="0" y="0" flags="0x204"/>
      <component glyphName="dieresis.case" x="350" y="0" flags="0x4"/>
    </TTGlyph>
    <TTGlyph name="Z" xMin="40" yMin="0" xMax="1186" yMax="1457">
      <contour>
        <pt x="1186" y="1457" on="1"/>
        <pt x="1186" y="1335" on="1"/>
        <pt x="1186" y="1309" on="0"/>
        <pt x="1169" y="1259" on="0"/>
        <pt x="1154" y="1237" on="1"/>
        <pt x="470" y="260" on="1"/>
        <pt x="1164" y="260" on="1"/>
        <pt x="1164" y="0" on="1"/>
        <pt x="40" y="0" on="1"/>
        <pt x="40" y="130" on="1"/>
        <pt x="40" y="153" on="0"/>
        <pt x="56" y="198" on="0"/>
        <pt x="70" y="217" on="1"/>
        <pt x="756" y="1197" on="1"/>
        <pt x="96" y="1197" on="1"/>
        <pt x="96" y="1457" on="1"/>
      </contour>
    </TTGlyph>
    <TTGlyph name="Zacute" xMin="40" yMin="0" xMax="1186" yMax="1798">
      <component glyphName="Z" x="0" y="0" flags="0x204"/>
      <component glyphName="acute.case" x="294" y="0" flags="0x4"/>
    </TTGlyph>
    <TTGlyph name="Zcaron" xMin="40" yMin="0" xMax="1186" yMax="1777">
      <component glyphName="Z" x="0" y="0" flags="0x204"/>
      <component glyphName="caron.case" x="314" y="-1" flags="0x4"/>
    </TTGlyph>
    <TTGlyph name="Zdotaccent" xMin="40" yMin="0" xMax="1186" yMax="1876">
      <component glyphName="Z" x="0" y="0" flags="0x204"/>
      <component glyphName="dotaccent.case" x="314" y="-1" flags="0x4"/>
    </TTGlyph>
    <TTGlyph name="a" xMin="70" yMin="-16" xMax="978" yMax="1057">
      <contour>
        <pt x="836" y="0" on="1"/>
        <pt x="792" y="0" on="0"/>
        <pt x="747" y="24" on="0"/>
        <pt x="732" y="62" on="1"/>
        <pt x="710" y="119" on="1"/>
        <pt x="671" y="86" on="0"/>
        <pt x="599" y="36" on="0"/>
        <pt x="522" y="1" on="0"/>
        <pt x="435" y="-16" on="0"/>
        <pt x="382" y="-16" on="1"/>
        <pt x="311" y="-16" on="0"/>
        <pt x="195" y="21" on="0"/>
        <pt x="114" y="93" on="0"/>
        <pt x="70" y="200" on="0"/>
        <pt x="70" y="270" on="1"/>
        <pt x="70" y="325" on="0"/>
        <pt x="126" y="441" on="0"/>
        <pt x="264" y="536" on="0"/>
        <pt x="498" y="600" on="0"/>
        <pt x="676" y="604" on="1"/>
        <pt x="676" y="648" on="1"/>
        <pt x="676" y="739" on="0"/>
        <pt x="601" y="820" on="0"/>
        <pt x="532" y="820" on="1"/>
        <pt x="477" y="820" on="0"/>
        <pt x="407" y="796" on="0"/>
        <pt x="352" y="766" on="0"/>
        <pt x="300" y="742" on="0"/>
        <pt x="264" y="742" on="1"/>
        <pt x="232" y="742" on="0"/>
        <pt x="187" y="773" on="0"/>
        <pt x="174" y="796" on="1"/>
        <pt x="118" y="893" on="1"/>
        <pt x="212" y="976" on="0"/>
        <pt x="441" y="1057" on="0"/>
        <pt x="572" y="1057" on="1"/>
        <pt x="666" y="1057" on="0"/>
        <pt x="817" y="996" on="0"/>
        <pt x="922" y="887" on="0"/>
        <pt x="978" y="737" on="0"/>
        <pt x="978" y="648" on="1"/>
        <pt x="978" y="0" on="1"/>
      </contour>
      <contour>
        <pt x="480" y="189" on="1"/>
        <pt x="540" y="189" on="0"/>
        <pt x="630" y="231" on="0"/>
        <pt x="676" y="278" on="1"/>
        <pt x="676" y="422" on="1"/>
        <pt x="583" y="418" on="0"/>
        <pt x="463" y="394" on="0"/>
        <pt x="393" y="358" on="0"/>
        <pt x="366" y="312" on="0"/>
        <pt x="366" y="285" on="1"/>
        <pt x="366" y="232" on="0"/>
        <pt x="424" y="189" on="0"/>
      </contour>
    </TTGlyph>
    <TTGlyph name="aacute" xMin="70" yMin="-16" xMax="978" yMax="1473">
      <component glyphName="a" x="0" y="0" flags="0x204"/>
      <component glyphName="acute" x="232" y="0" flags="0x4"/>
    </TTGlyph>
    <TTGlyph name="acircumflex" xMin="70" yMin="-16" xMax="978" yMax="1457">
      <component glyphName="a" x="0" y="0" flags="0x204"/>
      <component glyphName="circumflex" x="232" y="0" flags="0x4"/>
    </TTGlyph>
    <TTGlyph name="acute" xMin="180" yMin="1168" xMax="726" yMax="1473">
      <contour>
        <pt x="726" y="1473" on="1"/>
        <pt x="466" y="1210" on="1"/>
        <pt x="443" y="1187" on="0"/>
        <pt x="401" y="1168" on="0"/>
        <pt x="366" y="1168" on="1"/>
        <pt x="180" y="1168" on="1"/>
        <pt x="316" y="1413" on="1"/>
        <pt x="333" y="1442" on="0"/>
        <pt x="379" y="1473" on="0"/>
        <pt x="426" y="1473" on="1"/>
      </contour>
    </TTGlyph>
    <TTGlyph name="acute.case" xMin="128" yMin="1551" xMax="774" yMax="1798">
      <contour>
        <pt x="774" y="1798" on="1"/>
        <pt x="479" y="1584" on="1"/>
        <pt x="453" y="1564" on="0"/>
        <pt x="408" y="1551" on="0"/>
        <pt x="374" y="1551" on="1"/>
        <pt x="128" y="1551" on="1"/>
        <pt x="309" y="1748" on="1"/>
        <pt x="322" y="1763" on="0"/>
        <pt x="347" y="1782" on="0"/>
        <pt x="375" y="1794" on="0"/>
        <pt x="409" y="1798" on="0"/>
        <pt x="432" y="1798" on="1"/>
      </contour>
    </TTGlyph>
    <TTGlyph name="adieresis" xMin="70" yMin="-16" xMax="978" yMax="1454">
      <component glyphName="a" x="0" y="0" flags="0x204"/>
      <component glyphName="dieresis" x="232" y="0" flags="0x4"/>
    </TTGlyph>
    <TTGlyph name="ae" xMin="70" yMin="-16" xMax="1610" yMax="1057">
      <contour>
        <pt x="1180" y="1053" on="1"/>
        <pt x="1272" y="1053" on="0"/>
        <pt x="1430" y="983" on="0"/>
        <pt x="1545" y="854" on="0"/>
        <pt x="1610" y="671" on="0"/>
        <pt x="1610" y="558" on="1"/>
        <pt x="1610" y="523" on="0"/>
        <pt x="1604" y="479" on="0"/>
        <pt x="1589" y="453" on="0"/>
        <pt x="1563" y="443" on="0"/>
        <pt x="1542" y="443" on="1"/>
        <pt x="972" y="443" on="1"/>
        <pt x="989" y="324" on="0"/>
        <pt x="1110" y="216" on="0"/>
        <pt x="1202" y="216" on="1"/>
        <pt x="1269" y="216" on="0"/>
        <pt x="1348" y="240" on="0"/>
        <pt x="1399" y="268" on="0"/>
        <pt x="1436" y="292" on="0"/>
        <pt x="1462" y="292" on="1"/>
        <pt x="1505" y="292" on="0"/>
        <pt x="1524" y="265" on="1"/>
        <pt x="1608" y="162" on="1"/>
        <pt x="1560" y="107" on="0"/>
        <pt x="1451" y="38" on="0"/>
        <pt x="1337" y="-1" on="0"/>
        <pt x="1224" y="-16" on="0"/>
        <pt x="1172" y="-16" on="1"/>
        <pt x="1121" y="-16" on="0"/>
        <pt x="1021" y="5" on="0"/>
        <pt x="929" y="50" on="0"/>
        <pt x="848" y="120" on="0"/>
        <pt x="815" y="168" on="1"/>
        <pt x="783" y="120" on="0"/>
        <pt x="694" y="50" on="0"/>
        <pt x="588" y="5" on="0"/>
        <pt x="468" y="-16" on="0"/>
        <pt x="404" y="-16" on="1"/>
        <pt x="244" y="-16" on="0"/>
        <pt x="70" y="140" on="0"/>
        <pt x="70" y="281" on="1"/>
        <pt x="70" y="318" on="0"/>
        <pt x="94" y="396" on="0"/>
        <pt x="149" y="471" on="0"/>
        <pt x="240" y="538" on="0"/>
        <pt x="375" y="590" on="0"/>
        <pt x="557" y="622" on="0"/>
        <pt x="676" y="625" on="1"/>
        <pt x="676" y="648" on="1"/>
        <pt x="676" y="739" on="0"/>
        <pt x="601" y="829" on="0"/>
        <pt x="532" y="829" on="1"/>
        <pt x="477" y="829" on="0"/>
        <pt x="407" y="802" on="0"/>
        <pt x="352" y="769" on="0"/>
        <pt x="300" y="742" on="0"/>
        <pt x="264" y="742" on="1"/>
        <pt x="232" y="742" on="0"/>
        <pt x="187" y="773" on="0"/>
        <pt x="174" y="796" on="1"/>
        <pt x="118" y="893" on="1"/>
        <pt x="212" y="976" on="0"/>
        <pt x="416" y="1057" on="0"/>
        <pt x="538" y="1057" on="1"/>
        <pt x="651" y="1057" on="0"/>
        <pt x="801" y="979" on="0"/>
        <pt x="843" y="910" on="1"/>
        <pt x="902" y="976" on="0"/>
        <pt x="1070" y="1053" on="0"/>
      </contour>
      <contour>
        <pt x="1166" y="839" on="1"/>
        <pt x="1078" y="839" on="0"/>
        <pt x="983" y="728" on="0"/>
        <pt x="970" y="623" on="1"/>
        <pt x="1334" y="623" on="1"/>
        <pt x="1334" y="660" on="0"/>
        <pt x="1317" y="737" on="0"/>
        <pt x="1278" y="799" on="0"/>
        <pt x="1213" y="839" on="0"/>
      </contour>
      <contour>
        <pt x="676" y="443" on="1"/>
        <pt x="583" y="438" on="0"/>
        <pt x="463" y="411" on="0"/>
        <pt x="393" y="371" on="0"/>
        <pt x="366" y="322" on="0"/>
        <pt x="366" y="296" on="1"/>
        <pt x="366" y="242" on="0"/>
        <pt x="424" y="189" on="0"/>
        <pt x="480" y="189" on="1"/>
        <pt x="522" y="189" on="0"/>
        <pt x="594" y="214" on="0"/>
        <pt x="646" y="270" on="0"/>
        <pt x="676" y="361" on="0"/>
        <pt x="676" y="427" on="1"/>
      </contour>
    </TTGlyph>
    <TTGlyph name="agrave" xMin="70" yMin="-16" xMax="978" yMax="1473">
      <component glyphName="a" x="0" y="0" flags="0x204"/>
      <component glyphName="grave" x="232" y="0" flags="0x4"/>
    </TTGlyph>
    <TTGlyph name="ampersand" xMin="46" yMin="-16" xMax="1460" yMax="1473">
      <contour>
        <pt x="664" y="1473" on="1"/>
        <pt x="761" y="1473" on="0"/>
        <pt x="909" y="1416" on="0"/>
        <pt x="1011" y="1323" on="0"/>
        <pt x="1069" y="1201" on="0"/>
        <pt x="1076" y="1137" on="1"/>
        <pt x="876" y="1097" on="1"/>
        <pt x="871" y="1096" on="0"/>
        <pt x="864" y="1095" on="0"/>
        <pt x="860" y="1095" on="1"/>
        <pt x="818" y="1095" on="0"/>
        <pt x="798" y="1139" on="1"/>
        <pt x="775" y="1191" on="0"/>
        <pt x="714" y="1245" on="0"/>
        <pt x="664" y="1245" on="1"/>
        <pt x="629" y="1245" on="0"/>
        <pt x="577" y="1219" on="0"/>
        <pt x="542" y="1177" on="0"/>
        <pt x="524" y="1121" on="0"/>
        <pt x="524" y="1091" on="1"/>
        <pt x="524" y="1065" on="0"/>
        <pt x="533" y="1017" on="0"/>
        <pt x="554" y="968" on="0"/>
        <pt x="591" y="916" on="0"/>
        <pt x="620" y="886" on="1"/>
        <pt x="980" y="506" on="1"/>
        <pt x="1007" y="566" on="0"/>
        <pt x="1039" y="696" on="0"/>
        <pt x="1046" y="766" on="1"/>
        <pt x="1048" y="794" on="0"/>
        <pt x="1081" y="826" on="0"/>
        <pt x="1108" y="826" on="1"/>
        <pt x="1304" y="826" on="1"/>
        <pt x="1304" y="680" on="0"/>
        <pt x="1226" y="427" on="0"/>
        <pt x="1154" y="322" on="1"/>
        <pt x="1460" y="0" on="1"/>
        <pt x="1154" y="0" on="1"/>
        <pt x="1131" y="0" on="0"/>
        <pt x="1095" y="5" on="0"/>
        <pt x="1064" y="17" on="0"/>
        <pt x="1036" y="39" on="0"/>
        <pt x="1020" y="56" on="1"/>
        <pt x="957" y="122" on="1"/>
        <pt x="862" y="56" on="0"/>
        <pt x="637" y="-16" on="0"/>
        <pt x="510" y="-16" on="1"/>
        <pt x="423" y="-16" on="0"/>
        <pt x="256" y="44" on="0"/>
        <pt x="126" y="155" on="0"/>
        <pt x="46" y="313" on="0"/>
        <pt x="46" y="411" on="1"/>
        <pt x="46" y="477" on="0"/>
        <pt x="87" y="595" on="0"/>
        <pt x="161" y="696" on="0"/>
        <pt x="264" y="779" on="0"/>
        <pt x="325" y="810" on="1"/>
        <pt x="278" y="883" on="0"/>
        <pt x="236" y="1023" on="0"/>
        <pt x="236" y="1089" on="1"/>
        <pt x="236" y="1167" on="0"/>
        <pt x="293" y="1306" on="0"/>
        <pt x="402" y="1411" on="0"/>
        <pt x="561" y="1473" on="0"/>
      </contour>
      <contour>
        <pt x="362" y="436" on="1"/>
        <pt x="362" y="388" on="0"/>
        <pt x="391" y="310" on="0"/>
        <pt x="445" y="254" on="0"/>
        <pt x="520" y="223" on="0"/>
        <pt x="566" y="223" on="1"/>
        <pt x="633" y="223" on="0"/>
        <pt x="748" y="258" on="0"/>
        <pt x="798" y="290" on="1"/>
        <pt x="463" y="645" on="1"/>
        <pt x="408" y="600" on="0"/>
        <pt x="362" y="494" on="0"/>
      </contour>
    </TTGlyph>
    <TTGlyph name="aogonek" xMin="70" yMin="-347" xMax="1070" yMax="1057">
      <contour>
        <pt x="996" y="-167" on="1"/>
        <pt x="1017" y="-167" on="0"/>
        <pt x="1024" y="-186" on="1"/>
        <pt x="1070" y="-297" on="1"/>
        <pt x="1035" y="-318" on="0"/>
        <pt x="931" y="-347" on="0"/>
        <pt x="872" y="-347" on="1"/>
        <pt x="765" y="-347" on="0"/>
        <pt x="654" y="-263" on="0"/>
        <pt x="654" y="-198" on="1"/>
        <pt x="654" y="-146" on="0"/>
        <pt x="724" y="-43" on="0"/>
        <pt x="800" y="2" on="1"/>
        <pt x="774" y="6" on="0"/>
        <pt x="743" y="33" on="0"/>
        <pt x="732" y="62" on="1"/>
        <pt x="710" y="119" on="1"/>
        <pt x="671" y="86" on="0"/>
        <pt x="599" y="36" on="0"/>
        <pt x="522" y="1" on="0"/>
        <pt x="435" y="-16" on="0"/>
        <pt x="382" y="-16" on="1"/>
        <pt x="311" y="-16" on="0"/>
        <pt x="195" y="21" on="0"/>
        <pt x="114" y="93" on="0"/>
        <pt x="70" y="200" on="0"/>
        <pt x="70" y="270" on="1"/>
        <pt x="70" y="325" on="0"/>
        <pt x="126" y="441" on="0"/>
        <pt x="264" y="536" on="0"/>
        <pt x="498" y="600" on="0"/>
        <pt x="676" y="604" on="1"/>
        <pt x="676" y="648" on="1"/>
        <pt x="676" y="739" on="0"/>
        <pt x="601" y="820" on="0"/>
        <pt x="532" y="820" on="1"/>
        <pt x="477" y="820" on="0"/>
        <pt x="407" y="796" on="0"/>
        <pt x="352" y="766" on="0"/>
        <pt x="300" y="742" on="0"/>
        <pt x="264" y="742" on="1"/>
        <pt x="232" y="742" on="0"/>
        <pt x="187" y="773" on="0"/>
        <pt x="174" y="796" on="1"/>
        <pt x="118" y="893" on="1"/>
        <pt x="212" y="976" on="0"/>
        <pt x="441" y="1057" on="0"/>
        <pt x="572" y="1057" on="1"/>
        <pt x="666" y="1057" on="0"/>
        <pt x="817" y="996" on="0"/>
        <pt x="922" y="887" on="0"/>
        <pt x="978" y="737" on="0"/>
        <pt x="978" y="648" on="1"/>
        <pt x="978" y="0" on="1"/>
        <pt x="939" y="-21" on="0"/>
        <pt x="884" y="-84" on="0"/>
        <pt x="884" y="-122" on="1"/>
        <pt x="884" y="-146" on="0"/>
        <pt x="911" y="-175" on="0"/>
        <pt x="938" y="-175" on="1"/>
        <pt x="953" y="-175" on="0"/>
        <pt x="971" y="-173" on="0"/>
        <pt x="983" y="-170" on="0"/>
        <pt x="991" y="-167" on="0"/>
      </contour>
      <contour>
        <pt x="480" y="189" on="1"/>
        <pt x="540" y="189" on="0"/>
        <pt x="630" y="231" on="0"/>
        <pt x="676" y="278" on="1"/>
        <pt x="676" y="422" on="1"/>
        <pt x="583" y="418" on="0"/>
        <pt x="463" y="394" on="0"/>
        <pt x="393" y="358" on="0"/>
        <pt x="366" y="312" on="0"/>
        <pt x="366" y="285" on="1"/>
        <pt x="366" y="232" on="0"/>
        <pt x="424" y="189" on="0"/>
      </contour>
    </TTGlyph>
    <TTGlyph name="approxequal" xMin="140" yMin="330" xMax="1020" yMax="1020">
      <contour>
        <pt x="796" y="926" on="1"/>
        <pt x="830" y="926" on="0"/>
        <pt x="893" y="942" on="0"/>
        <pt x="944" y="963" on="0"/>
        <pt x="980" y="985" on="0"/>
        <pt x="986" y="991" on="1"/>
        <pt x="1020" y="800" on="1"/>
        <pt x="999" y="773" on="0"/>
        <pt x="943" y="735" on="0"/>
        <pt x="880" y="711" on="0"/>
        <pt x="810" y="700" on="0"/>
        <pt x="776" y="700" on="1"/>
        <pt x="723" y="700" on="0"/>
        <pt x="616" y="729" on="0"/>
        <pt x="514" y="765" on="0"/>
        <pt x="418" y="794" on="0"/>
        <pt x="376" y="794" on="1"/>
        <pt x="341" y="794" on="0"/>
        <pt x="277" y="779" on="0"/>
        <pt x="224" y="757" on="0"/>
        <pt x="188" y="733" on="0"/>
        <pt x="182" y="725" on="1"/>
        <pt x="140" y="909" on="1"/>
        <pt x="161" y="939" on="0"/>
        <pt x="218" y="981" on="0"/>
        <pt x="285" y="1008" on="0"/>
        <pt x="358" y="1020" on="0"/>
        <pt x="396" y="1020" on="1"/>
        <pt x="449" y="1020" on="0"/>
        <pt x="556" y="991" on="0"/>
        <pt x="658" y="955" on="0"/>
        <pt x="754" y="926" on="0"/>
      </contour>
      <contour>
        <pt x="796" y="556" on="1"/>
        <pt x="830" y="556" on="0"/>
        <pt x="893" y="571" on="0"/>
        <pt x="944" y="592" on="0"/>
        <pt x="980" y="614" on="0"/>
        <pt x="986" y="621" on="1"/>
        <pt x="1020" y="429" on="1"/>
        <pt x="999" y="402" on="0"/>
        <pt x="943" y="365" on="0"/>
        <pt x="880" y="341" on="0"/>
        <pt x="810" y="330" on="0"/>
        <pt x="776" y="330" on="1"/>
        <pt x="723" y="330" on="0"/>
        <pt x="616" y="359" on="0"/>
        <pt x="514" y="394" on="0"/>
        <pt x="418" y="423" on="0"/>
        <pt x="376" y="423" on="1"/>
        <pt x="341" y="423" on="0"/>
        <pt x="277" y="408" on="0"/>
        <pt x="224" y="386" on="0"/>
        <pt x="188" y="363" on="0"/>
        <pt x="182" y="355" on="1"/>
        <pt x="140" y="539" on="1"/>
        <pt x="161" y="568" on="0"/>
        <pt x="218" y="610" on="0"/>
        <pt x="285" y="637" on="0"/>
        <pt x="358" y="649" on="0"/>
        <pt x="396" y="649" on="1"/>
        <pt x="449" y="649" on="0"/>
        <pt x="556" y="620" on="0"/>
        <pt x="658" y="585" on="0"/>
        <pt x="754" y="556" on="0"/>
      </contour>
    </TTGlyph>
    <TTGlyph name="aring" xMin="70" yMin="-16" xMax="978" yMax="1554">
      <component glyphName="a" x="0" y="0" flags="0x204"/>
      <component glyphName="ring" x="234" y="0" flags="0x4"/>
    </TTGlyph>
    <TTGlyph name="asciicircum" xMin="88" yMin="768" xMax="1062" yMax="1457">
      <contour>
        <pt x="1062" y="768" on="1"/>
        <pt x="834" y="768" on="1"/>
        <pt x="807" y="768" on="0"/>
        <pt x="771" y="795" on="0"/>
        <pt x="760" y="816" on="1"/>
        <pt x="636" y="1053" on="1"/>
        <pt x="619" y="1085" on="0"/>
        <pt x="590" y="1143" on="0"/>
        <pt x="579" y="1172" on="1"/>
        <pt x="569" y="1143" on="0"/>
        <pt x="543" y="1085" on="0"/>
        <pt x="526" y="1053" on="1"/>
        <pt x="406" y="816" on="1"/>
        <pt x="395" y="796" on="0"/>
        <pt x="358" y="768" on="0"/>
        <pt x="328" y="768" on="1"/>
        <pt x="88" y="768" on="1"/>
        <pt x="474" y="1457" on="1"/>
        <pt x="676" y="1457" on="1"/>
      </contour>
    </TTGlyph>
    <TTGlyph name="asciitilde" xMin="80" yMin="385" xMax="1080" yMax="799">
      <contour>
        <pt x="730" y="677" on="1"/>
        <pt x="778" y="677" on="0"/>
        <pt x="830" y="739" on="0"/>
        <pt x="830" y="799" on="1"/>
        <pt x="1080" y="799" on="1"/>
        <pt x="1080" y="714" on="0"/>
        <pt x="1035" y="578" on="0"/>
        <pt x="951" y="483" on="0"/>
        <pt x="828" y="432" on="0"/>
        <pt x="750" y="432" on="1"/>
        <pt x="697" y="432" on="0"/>
        <pt x="604" y="455" on="0"/>
        <pt x="524" y="484" on="0"/>
        <pt x="457" y="507" on="0"/>
        <pt x="430" y="507" on="1"/>
        <pt x="382" y="507" on="0"/>
        <pt x="330" y="445" on="0"/>
        <pt x="330" y="385" on="1"/>
        <pt x="80" y="385" on="1"/>
        <pt x="80" y="470" on="0"/>
        <pt x="125" y="606" on="0"/>
        <pt x="209" y="701" on="0"/>
        <pt x="332" y="752" on="0"/>
        <pt x="410" y="752" on="1"/>
        <pt x="463" y="752" on="0"/>
        <pt x="556" y="729" on="0"/>
        <pt x="636" y="700" on="0"/>
        <pt x="703" y="677" on="0"/>
      </contour>
    </TTGlyph>
    <TTGlyph name="asterisk" xMin="56" yMin="815" xMax="742" yMax="1524">
      <contour>
        <pt x="326" y="815" on="1"/>
        <pt x="326" y="988" on="1"/>
        <pt x="326" y="1008" on="0"/>
        <pt x="331" y="1049" on="0"/>
        <pt x="337" y="1066" on="1"/>
        <pt x="324" y="1052" on="0"/>
        <pt x="292" y="1030" on="0"/>
        <pt x="274" y="1019" on="1"/>
        <pt x="128" y="934" on="1"/>
        <pt x="56" y="1053" on="1"/>
        <pt x="202" y="1138" on="1"/>
        <pt x="221" y="1149" on="0"/>
        <pt x="259" y="1165" on="0"/>
        <pt x="279" y="1169" on="1"/>
        <pt x="259" y="1173" on="0"/>
        <pt x="221" y="1190" on="0"/>
        <pt x="202" y="1201" on="1"/>
        <pt x="56" y="1288" on="1"/>
        <pt x="128" y="1408" on="1"/>
        <pt x="274" y="1320" on="1"/>
        <pt x="292" y="1309" on="0"/>
        <pt x="325" y="1286" on="0"/>
        <pt x="338" y="1272" on="1"/>
        <pt x="326" y="1306" on="0"/>
        <pt x="326" y="1349" on="1"/>
        <pt x="326" y="1524" on="1"/>
        <pt x="472" y="1524" on="1"/>
        <pt x="472" y="1351" on="1"/>
        <pt x="472" y="1330" on="0"/>
        <pt x="467" y="1290" on="0"/>
        <pt x="461" y="1272" on="1"/>
        <pt x="474" y="1286" on="0"/>
        <pt x="506" y="1309" on="0"/>
        <pt x="524" y="1320" on="1"/>
        <pt x="670" y="1406" on="1"/>
        <pt x="742" y="1286" on="1"/>
        <pt x="596" y="1201" on="1"/>
        <pt x="576" y="1190" on="0"/>
        <pt x="538" y="1174" on="0"/>
        <pt x="518" y="1170" on="1"/>
        <pt x="538" y="1166" on="0"/>
        <pt x="577" y="1149" on="0"/>
        <pt x="596" y="1138" on="1"/>
        <pt x="742" y="1051" on="1"/>
        <pt x="670" y="932" on="1"/>
        <pt x="524" y="1019" on="1"/>
        <pt x="505" y="1030" on="0"/>
        <pt x="473" y="1053" on="0"/>
        <pt x="459" y="1067" on="1"/>
        <pt x="472" y="1032" on="0"/>
        <pt x="472" y="990" on="1"/>
        <pt x="472" y="815" on="1"/>
      </contour>
    </TTGlyph>
    <TTGlyph name="at" xMin="50" yMin="-242" xMax="1604" yMax="1399">
      <contour>
        <pt x="1166" y="182" on="1"/>
        <pt x="1134" y="182" on="0"/>
        <pt x="1074" y="195" on="0"/>
        <pt x="1021" y="224" on="0"/>
        <pt x="978" y="271" on="0"/>
        <pt x="965" y="305" on="1"/>
        <pt x="905" y="239" on="0"/>
        <pt x="775" y="183" on="0"/>
        <pt x="700" y="183" on="1"/>
        <pt x="635" y="183" on="0"/>
        <pt x="537" y="228" on="0"/>
        <pt x="471" y="308" on="0"/>
        <pt x="438" y="418" on="0"/>
        <pt x="438" y="483" on="1"/>
        <pt x="438" y="540" on="0"/>
        <pt x="467" y="658" on="0"/>
        <pt x="525" y="767" on="0"/>
        <pt x="614" y="864" on="0"/>
        <pt x="734" y="935" on="0"/>
        <pt x="887" y="977" on="0"/>
        <pt x="980" y="977" on="1"/>
        <pt x="1024" y="977" on="0"/>
        <pt x="1096" y="970" on="0"/>
        <pt x="1158" y="958" on="0"/>
        <pt x="1213" y="939" on="0"/>
        <pt x="1242" y="927" on="1"/>
        <pt x="1144" y="548" on="1"/>
        <pt x="1129" y="489" on="0"/>
        <pt x="1129" y="454" on="1"/>
        <pt x="1129" y="404" on="0"/>
        <pt x="1174" y="366" on="0"/>
        <pt x="1212" y="366" on="1"/>
        <pt x="1248" y="366" on="0"/>
        <pt x="1311" y="417" on="0"/>
        <pt x="1357" y="507" on="0"/>
        <pt x="1384" y="629" on="0"/>
        <pt x="1384" y="701" on="1"/>
        <pt x="1384" y="825" on="0"/>
        <pt x="1310" y="1014" on="0"/>
        <pt x="1173" y="1142" on="0"/>
        <pt x="980" y="1208" on="0"/>
        <pt x="862" y="1208" on="1"/>
        <pt x="733" y="1208" on="0"/>
        <pt x="517" y="1112" on="0"/>
        <pt x="361" y="945" on="0"/>
        <pt x="274" y="722" on="0"/>
        <pt x="274" y="595" on="1"/>
        <pt x="274" y="435" on="0"/>
        <pt x="371" y="193" on="0"/>
        <pt x="542" y="31" on="0"/>
        <pt x="777" y="-50" on="0"/>
        <pt x="914" y="-50" on="1"/>
        <pt x="993" y="-50" on="0"/>
        <pt x="1126" y="-33" on="0"/>
        <pt x="1234" y="-6" on="0"/>
        <pt x="1318" y="28" on="0"/>
        <pt x="1348" y="45" on="1"/>
        <pt x="1370" y="57" on="0"/>
        <pt x="1389" y="57" on="1"/>
        <pt x="1424" y="57" on="0"/>
        <pt x="1438" y="20" on="1"/>
        <pt x="1480" y="-88" on="1"/>
        <pt x="1430" y="-121" on="0"/>
        <pt x="1309" y="-177" on="0"/>
        <pt x="1168" y="-219" on="0"/>
        <pt x="1006" y="-242" on="0"/>
        <pt x="914" y="-242" on="1"/>
        <pt x="726" y="-242" on="0"/>
        <pt x="410" y="-125" on="0"/>
        <pt x="179" y="93" on="0"/>
        <pt x="50" y="403" on="0"/>
        <pt x="50" y="595" on="1"/>
        <pt x="50" y="700" on="0"/>
        <pt x="106" y="902" on="0"/>
        <pt x="210" y="1080" on="0"/>
        <pt x="356" y="1230" on="0"/>
        <pt x="536" y="1339" on="0"/>
        <pt x="746" y="1399" on="0"/>
        <pt x="862" y="1399" on="1"/>
        <pt x="959" y="1399" on="0"/>
        <pt x="1144" y="1355" on="0"/>
        <pt x="1309" y="1271" on="0"/>
        <pt x="1448" y="1149" on="0"/>
        <pt x="1548" y="994" on="0"/>
        <pt x="1604" y="807" on="0"/>
        <pt x="1604" y="701" on="1"/>
        <pt x="1604" y="594" on="0"/>
        <pt x="1539" y="405" on="0"/>
        <pt x="1422" y="264" on="0"/>
        <pt x="1261" y="182" on="0"/>
      </contour>
      <contour>
        <pt x="762" y="374" on="1"/>
        <pt x="784" y="374" on="0"/>
        <pt x="827" y="388" on="0"/>
        <pt x="865" y="421" on="0"/>
        <pt x="896" y="475" on="0"/>
        <pt x="906" y="515" on="1"/>
        <pt x="976" y="788" on="1"/>
        <pt x="952" y="791" on="0"/>
        <pt x="928" y="791" on="1"/>
        <pt x="878" y="791" on="0"/>
        <pt x="786" y="743" on="0"/>
        <pt x="717" y="661" on="0"/>
        <pt x="676" y="552" on="0"/>
        <pt x="676" y="491" on="1"/>
        <pt x="676" y="432" on="0"/>
        <pt x="721" y="374" on="0"/>
      </contour>
    </TTGlyph>
    <TTGlyph name="atilde" xMin="70" yMin="-16" xMax="978" yMax="1461">
      <component glyphName="a" x="0" y="0" flags="0x204"/>
      <component glyphName="tilde" x="232" y="0" flags="0x4"/>
    </TTGlyph>
    <TTGlyph name="b" xMin="120" yMin="-16" xMax="1110" yMax="1497">
      <contour>
        <pt x="120" y="0" on="1"/>
        <pt x="120" y="1497" on="1"/>
        <pt x="430" y="1497" on="1"/>
        <pt x="430" y="927" on="1"/>
        <pt x="488" y="984" on="0"/>
        <pt x="635" y="1053" on="0"/>
        <pt x="734" y="1053" on="1"/>
        <pt x="815" y="1053" on="0"/>
        <pt x="953" y="983" on="0"/>
        <pt x="1053" y="848" on="0"/>
        <pt x="1110" y="652" on="0"/>
        <pt x="1110" y="527" on="1"/>
        <pt x="1110" y="410" on="0"/>
        <pt x="1045" y="212" on="0"/>
        <pt x="928" y="66" on="0"/>
        <pt x="765" y="-16" on="0"/>
        <pt x="666" y="-16" on="1"/>
        <pt x="620" y="-16" on="0"/>
        <pt x="547" y="2" on="0"/>
        <pt x="486" y="35" on="0"/>
        <pt x="435" y="81" on="0"/>
        <pt x="411" y="108" on="1"/>
        <pt x="400" y="56" on="1"/>
        <pt x="393" y="24" on="0"/>
        <pt x="356" y="0" on="0"/>
        <pt x="326" y="0" on="1"/>
      </contour>
      <contour>
        <pt x="626" y="820" on="1"/>
        <pt x="592" y="820" on="0"/>
        <pt x="537" y="807" on="0"/>
        <pt x="490" y="783" on="0"/>
        <pt x="450" y="746" on="0"/>
        <pt x="430" y="722" on="1"/>
        <pt x="430" y="282" on="1"/>
        <pt x="465" y="243" on="0"/>
        <pt x="547" y="212" on="0"/>
        <pt x="592" y="212" on="1"/>
        <pt x="635" y="212" on="0"/>
        <pt x="707" y="246" on="0"/>
        <pt x="760" y="321" on="0"/>
        <pt x="790" y="441" on="0"/>
        <pt x="790" y="527" on="1"/>
        <pt x="790" y="609" on="0"/>
        <pt x="766" y="721" on="0"/>
        <pt x="723" y="790" on="0"/>
        <pt x="663" y="820" on="0"/>
      </contour>
    </TTGlyph>
    <TTGlyph name="backslash" xMin="-36" yMin="-99" xMax="820" yMax="1497">
      <contour>
        <pt x="-36" y="1497" on="1"/>
        <pt x="96" y="1497" on="1"/>
        <pt x="150" y="1497" on="0"/>
        <pt x="232" y="1443" on="0"/>
        <pt x="252" y="1392" on="1"/>
        <pt x="820" y="-99" on="1"/>
        <pt x="688" y="-99" on="1"/>
        <pt x="664" y="-99" on="0"/>
        <pt x="615" y="-85" on="0"/>
        <pt x="572" y="-57" on="0"/>
        <pt x="536" y="-15" on="0"/>
        <pt x="526" y="12" on="1"/>
      </contour>
    </TTGlyph>
    <TTGlyph name="bar" xMin="180" yMin="-329" xMax="420" yMax="1557">
      <contour>
        <pt x="180" y="1557" on="1"/>
        <pt x="420" y="1557" on="1"/>
        <pt x="420" y="-329" on="1"/>
        <pt x="180" y="-329" on="1"/>
      </contour>
    </TTGlyph>
    <TTGlyph name="braceleft" xMin="14" yMin="-324" xMax="540" yMax="1557">
      <contour>
        <pt x="120" y="397" on="1"/>
        <pt x="120" y="457" on="0"/>
        <pt x="74" y="530" on="0"/>
        <pt x="14" y="530" on="1"/>
        <pt x="14" y="703" on="1"/>
        <pt x="44" y="703" on="0"/>
        <pt x="85" y="723" on="0"/>
        <pt x="109" y="758" on="0"/>
        <pt x="120" y="807" on="0"/>
        <pt x="120" y="836" on="1"/>
        <pt x="120" y="880" on="0"/>
        <pt x="109" y="970" on="0"/>
        <pt x="95" y="1060" on="0"/>
        <pt x="84" y="1152" on="0"/>
        <pt x="84" y="1198" on="1"/>
        <pt x="84" y="1279" on="0"/>
        <pt x="131" y="1412" on="0"/>
        <pt x="230" y="1506" on="0"/>
        <pt x="382" y="1557" on="0"/>
        <pt x="488" y="1557" on="1"/>
        <pt x="540" y="1557" on="1"/>
        <pt x="540" y="1423" on="1"/>
        <pt x="540" y="1407" on="0"/>
        <pt x="526" y="1385" on="0"/>
        <pt x="506" y="1371" on="0"/>
        <pt x="484" y="1364" on="0"/>
        <pt x="476" y="1364" on="1"/>
        <pt x="413" y="1364" on="0"/>
        <pt x="354" y="1286" on="0"/>
        <pt x="354" y="1217" on="1"/>
        <pt x="354" y="1162" on="0"/>
        <pt x="363" y="1064" on="0"/>
        <pt x="373" y="973" on="0"/>
        <pt x="382" y="885" on="0"/>
        <pt x="382" y="840" on="1"/>
        <pt x="382" y="802" on="0"/>
        <pt x="362" y="732" on="0"/>
        <pt x="321" y="673" on="0"/>
        <pt x="261" y="628" on="0"/>
        <pt x="222" y="616" on="1"/>
        <pt x="261" y="604" on="0"/>
        <pt x="321" y="560" on="0"/>
        <pt x="362" y="501" on="0"/>
        <pt x="382" y="430" on="0"/>
        <pt x="382" y="393" on="1"/>
        <pt x="382" y="348" on="0"/>
        <pt x="373" y="260" on="0"/>
        <pt x="363" y="169" on="0"/>
        <pt x="354" y="71" on="0"/>
        <pt x="354" y="16" on="1"/>
        <pt x="354" y="-53" on="0"/>
        <pt x="413" y="-131" on="0"/>
        <pt x="476" y="-131" on="1"/>
        <pt x="484" y="-131" on="0"/>
        <pt x="506" y="-138" on="0"/>
        <pt x="526" y="-152" on="0"/>
        <pt x="540" y="-174" on="0"/>
        <pt x="540" y="-190" on="1"/>
        <pt x="540" y="-324" on="1"/>
        <pt x="488" y="-324" on="1"/>
        <pt x="382" y="-324" on="0"/>
        <pt x="230" y="-273" on="0"/>
        <pt x="131" y="-178" on="0"/>
        <pt x="84" y="-46" on="0"/>
        <pt x="84" y="35" on="1"/>
        <pt x="84" y="81" on="0"/>
        <pt x="95" y="173" on="0"/>
        <pt x="109" y="263" on="0"/>
        <pt x="120" y="353" on="0"/>
      </contour>
    </TTGlyph>
    <TTGlyph name="braceright" xMin="60" yMin="-324" xMax="586" yMax="1557">
      <contour>
        <pt x="480" y="397" on="1"/>
        <pt x="480" y="353" on="0"/>
        <pt x="491" y="263" on="0"/>
        <pt x="505" y="173" on="0"/>
        <pt x="516" y="81" on="0"/>
        <pt x="516" y="35" on="1"/>
        <pt x="516" y="-46" on="0"/>
        <pt x="469" y="-178" on="0"/>
        <pt x="370" y="-273" on="0"/>
        <pt x="218" y="-324" on="0"/>
        <pt x="112" y="-324" on="1"/>
        <pt x="60" y="-324" on="1"/>
        <pt x="60" y="-190" on="1"/>
        <pt x="60" y="-174" on="0"/>
        <pt x="74" y="-152" on="0"/>
        <pt x="94" y="-138" on="0"/>
        <pt x="116" y="-131" on="0"/>
        <pt x="124" y="-131" on="1"/>
        <pt x="187" y="-131" on="0"/>
        <pt x="246" y="-53" on="0"/>
        <pt x="246" y="16" on="1"/>
        <pt x="246" y="71" on="0"/>
        <pt x="237" y="169" on="0"/>
        <pt x="227" y="260" on="0"/>
        <pt x="218" y="348" on="0"/>
        <pt x="218" y="393" on="1"/>
        <pt x="218" y="430" on="0"/>
        <pt x="238" y="501" on="0"/>
        <pt x="279" y="560" on="0"/>
        <pt x="338" y="604" on="0"/>
        <pt x="377" y="616" on="1"/>
        <pt x="338" y="628" on="0"/>
        <pt x="279" y="673" on="0"/>
        <pt x="238" y="732" on="0"/>
        <pt x="218" y="802" on="0"/>
        <pt x="218" y="840" on="1"/>
        <pt x="218" y="885" on="0"/>
        <pt x="227" y="973" on="0"/>
        <pt x="237" y="1064" on="0"/>
        <pt x="246" y="1162" on="0"/>
        <pt x="246" y="1217" on="1"/>
        <pt x="246" y="1286" on="0"/>
        <pt x="187" y="1364" on="0"/>
        <pt x="124" y="1364" on="1"/>
        <pt x="116" y="1364" on="0"/>
        <pt x="94" y="1371" on="0"/>
        <pt x="74" y="1385" on="0"/>
        <pt x="60" y="1407" on="0"/>
        <pt x="60" y="1423" on="1"/>
        <pt x="60" y="1557" on="1"/>
        <pt x="112" y="1557" on="1"/>
        <pt x="218" y="1557" on="0"/>
        <pt x="370" y="1506" on="0"/>
        <pt x="469" y="1412" on="0"/>
        <pt x="516" y="1279" on="0"/>
        <pt x="516" y="1198" on="1"/>
        <pt x="516" y="1152" on="0"/>
        <pt x="505" y="1060" on="0"/>
        <pt x="491" y="970" on="0"/>
        <pt x="480" y="880" on="0"/>
        <pt x="480" y="836" on="1"/>
        <pt x="480" y="807" on="0"/>
        <pt x="491" y="758" on="0"/>
        <pt x="515" y="723" on="0"/>
        <pt x="556" y="703" on="0"/>
        <pt x="586" y="703" on="1"/>
        <pt x="586" y="530" on="1"/>
        <pt x="526" y="530" on="0"/>
        <pt x="480" y="457" on="0"/>
      </contour>
    </TTGlyph>
    <TTGlyph name="bracketleft" xMin="90" yMin="-324" xMax="538" yMax="1557">
      <contour>
        <pt x="90" y="-324" on="1"/>
        <pt x="90" y="1557" on="1"/>
        <pt x="538" y="1557" on="1"/>
        <pt x="538" y="1439" on="1"/>
        <pt x="538" y="1408" on="0"/>
        <pt x="493" y="1364" on="0"/>
        <pt x="458" y="1364" on="1"/>
        <pt x="348" y="1364" on="1"/>
        <pt x="348" y="-131" on="1"/>
        <pt x="458" y="-131" on="1"/>
        <pt x="493" y="-131" on="0"/>
        <pt x="538" y="-175" on="0"/>
        <pt x="538" y="-205" on="1"/>
        <pt x="538" y="-324" on="1"/>
      </contour>
    </TTGlyph>
    <TTGlyph name="bracketright" xMin="62" yMin="-324" xMax="510" yMax="1557">
      <contour>
        <pt x="62" y="1557" on="1"/>
        <pt x="510" y="1557" on="1"/>
        <pt x="510" y="-324" on="1"/>
        <pt x="62" y="-324" on="1"/>
        <pt x="62" y="-205" on="1"/>
        <pt x="62" y="-175" on="0"/>
        <pt x="107" y="-131" on="0"/>
        <pt x="142" y="-131" on="1"/>
        <pt x="252" y="-131" on="1"/>
        <pt x="252" y="1364" on="1"/>
        <pt x="142" y="1364" on="1"/>
        <pt x="107" y="1364" on="0"/>
        <pt x="62" y="1408" on="0"/>
        <pt x="62" y="1439" on="1"/>
      </contour>
    </TTGlyph>
    <TTGlyph name="breve" xMin="2" yMin="1159" xMax="658" yMax="1457">
      <contour>
        <pt x="330" y="1159" on="1"/>
        <pt x="236" y="1159" on="0"/>
        <pt x="110" y="1207" on="0"/>
        <pt x="34" y="1288" on="0"/>
        <pt x="2" y="1396" on="0"/>
        <pt x="2" y="1457" on="1"/>
        <pt x="218" y="1457" on="1"/>
        <pt x="218" y="1430" on="0"/>
        <pt x="227" y="1388" on="0"/>
        <pt x="252" y="1361" on="0"/>
        <pt x="295" y="1347" on="0"/>
        <pt x="330" y="1347" on="1"/>
        <pt x="364" y="1347" on="0"/>
        <pt x="408" y="1361" on="0"/>
        <pt x="433" y="1388" on="0"/>
        <pt x="442" y="1430" on="0"/>
        <pt x="442" y="1457" on="1"/>
        <pt x="658" y="1457" on="1"/>
        <pt x="658" y="1396" on="0"/>
        <pt x="626" y="1288" on="0"/>
        <pt x="550" y="1207" on="0"/>
        <pt x="424" y="1159" on="0"/>
      </contour>
    </TTGlyph>
    <TTGlyph name="breve.case" xMin="-8" yMin="1526" xMax="668" yMax="1778">
      <contour>
        <pt x="330" y="1526" on="1"/>
        <pt x="251" y="1526" on="0"/>
        <pt x="126" y="1556" on="0"/>
        <pt x="39" y="1619" on="0"/>
        <pt x="-8" y="1713" on="0"/>
        <pt x="-8" y="1778" on="1"/>
        <pt x="188" y="1778" on="1"/>
        <pt x="188" y="1735" on="0"/>
        <pt x="261" y="1703" on="0"/>
        <pt x="330" y="1703" on="1"/>
        <pt x="399" y="1703" on="0"/>
        <pt x="472" y="1735" on="0"/>
        <pt x="472" y="1778" on="1"/>
        <pt x="668" y="1778" on="1"/>
        <pt x="668" y="1721" on="0"/>
        <pt x="621" y="1628" on="0"/>
        <pt x="534" y="1562" on="0"/>
        <pt x="409" y="1526" on="0"/>
      </contour>
    </TTGlyph>
    <TTGlyph name="brokenbar" xMin="180" yMin="-329" xMax="420" yMax="1557">
      <contour>
        <pt x="180" y="1557" on="1"/>
        <pt x="420" y="1557" on="1"/>
        <pt x="420" y="738" on="1"/>
        <pt x="180" y="738" on="1"/>
      </contour>
      <contour>
        <pt x="180" y="490" on="1"/>
        <pt x="420" y="490" on="1"/>
        <pt x="420" y="-329" on="1"/>
        <pt x="180" y="-329" on="1"/>
      </contour>
    </TTGlyph>
    <TTGlyph name="bullet" xMin="84" yMin="111" xMax="1074" yMax="1076">
      <contour>
        <pt x="84" y="592" on="1"/>
        <pt x="84" y="692" on="0"/>
        <pt x="162" y="868" on="0"/>
        <pt x="296" y="1000" on="0"/>
        <pt x="476" y="1076" on="0"/>
        <pt x="578" y="1076" on="1"/>
        <pt x="681" y="1076" on="0"/>
        <pt x="861" y="1000" on="0"/>
        <pt x="996" y="868" on="0"/>
        <pt x="1074" y="692" on="0"/>
        <pt x="1074" y="592" on="1"/>
        <pt x="1074" y="493" on="0"/>
        <pt x="996" y="317" on="0"/>
        <pt x="861" y="187" on="0"/>
        <pt x="681" y="111" on="0"/>
        <pt x="578" y="111" on="1"/>
        <pt x="476" y="111" on="0"/>
        <pt x="296" y="187" on="0"/>
        <pt x="162" y="317" on="0"/>
        <pt x="84" y="493" on="0"/>
      </contour>
    </TTGlyph>
    <TTGlyph name="c" xMin="52" yMin="-16" xMax="958" yMax="1053">
      <contour>
        <pt x="868" y="791" on="1"/>
        <pt x="854" y="774" on="0"/>
        <pt x="828" y="754" on="0"/>
        <pt x="804" y="754" on="1"/>
        <pt x="781" y="754" on="0"/>
        <pt x="744" y="776" on="0"/>
        <pt x="698" y="803" on="0"/>
        <pt x="636" y="825" on="0"/>
        <pt x="590" y="825" on="1"/>
        <pt x="533" y="825" on="0"/>
        <pt x="450" y="783" on="0"/>
        <pt x="396" y="705" on="0"/>
        <pt x="370" y="592" on="0"/>
        <pt x="370" y="521" on="1"/>
        <pt x="370" y="372" on="0"/>
        <pt x="485" y="212" on="0"/>
        <pt x="586" y="212" on="1"/>
        <pt x="640" y="212" on="0"/>
        <pt x="703" y="239" on="0"/>
        <pt x="747" y="272" on="0"/>
        <pt x="784" y="300" on="0"/>
        <pt x="812" y="300" on="1"/>
        <pt x="849" y="300" on="0"/>
        <pt x="868" y="273" on="1"/>
        <pt x="958" y="162" on="1"/>
        <pt x="910" y="107" on="0"/>
        <pt x="804" y="38" on="0"/>
        <pt x="693" y="-1" on="0"/>
        <pt x="581" y="-16" on="0"/>
        <pt x="528" y="-16" on="1"/>
        <pt x="433" y="-16" on="0"/>
        <pt x="260" y="56" on="0"/>
        <pt x="129" y="193" on="0"/>
        <pt x="52" y="393" on="0"/>
        <pt x="52" y="521" on="1"/>
        <pt x="52" y="633" on="0"/>
        <pt x="119" y="828" on="0"/>
        <pt x="250" y="971" on="0"/>
        <pt x="443" y="1053" on="0"/>
        <pt x="570" y="1053" on="1"/>
        <pt x="692" y="1053" on="0"/>
        <pt x="876" y="975" on="0"/>
        <pt x="950" y="900" on="1"/>
      </contour>
    </TTGlyph>
    <TTGlyph name="cacute" xMin="52" yMin="-16" xMax="962" yMax="1473">
      <component glyphName="c" x="0" y="0" flags="0x204"/>
      <component glyphName="acute" x="236" y="0" flags="0x4"/>
    </TTGlyph>
    <TTGlyph name="caron" xMin="-50" yMin="1168" xMax="710" yMax="1457">
      <contour>
        <pt x="-50" y="1457" on="1"/>
        <pt x="164" y="1457" on="1"/>
        <pt x="182" y="1457" on="0"/>
        <pt x="215" y="1446" on="0"/>
        <pt x="224" y="1438" on="1"/>
        <pt x="308" y="1366" on="1"/>
        <pt x="314" y="1361" on="0"/>
        <pt x="328" y="1347" on="0"/>
        <pt x="334" y="1339" on="1"/>
        <pt x="345" y="1355" on="0"/>
        <pt x="360" y="1366" on="1"/>
        <pt x="444" y="1438" on="1"/>
        <pt x="453" y="1444" on="0"/>
        <pt x="486" y="1457" on="0"/>
        <pt x="504" y="1457" on="1"/>
        <pt x="710" y="1457" on="1"/>
        <pt x="476" y="1168" on="1"/>
        <pt x="184" y="1168" on="1"/>
      </contour>
    </TTGlyph>
    <TTGlyph name="caron.case" xMin="-70" yMin="1551" xMax="730" yMax="1778">
      <contour>
        <pt x="-70" y="1778" on="1"/>
        <pt x="164" y="1778" on="1"/>
        <pt x="182" y="1778" on="0"/>
        <pt x="224" y="1768" on="0"/>
        <pt x="238" y="1760" on="1"/>
        <pt x="312" y="1715" on="1"/>
        <pt x="317" y="1712" on="0"/>
        <pt x="325" y="1707" on="0"/>
        <pt x="330" y="1703" on="1"/>
        <pt x="334" y="1706" on="0"/>
        <pt x="343" y="1712" on="0"/>
        <pt x="348" y="1715" on="1"/>
        <pt x="422" y="1760" on="1"/>
        <pt x="436" y="1768" on="0"/>
        <pt x="478" y="1778" on="0"/>
        <pt x="496" y="1778" on="1"/>
        <pt x="730" y="1778" on="1"/>
        <pt x="486" y="1551" on="1"/>
        <pt x="174" y="1551" on="1"/>
      </contour>
    </TTGlyph>
    <TTGlyph name="caron.salt" xMin="178" yMin="1137" xMax="502" yMax="1499">
      <contour>
        <pt x="454" y="1499" on="1"/>
        <pt x="470" y="1499" on="0"/>
        <pt x="490" y="1491" on="0"/>
        <pt x="499" y="1478" on="0"/>
        <pt x="502" y="1464" on="0"/>
        <pt x="502" y="1458" on="1"/>
        <pt x="502" y="1448" on="0"/>
        <pt x="492" y="1416" on="0"/>
        <pt x="475" y="1376" on="1"/>
        <pt x="394" y="1189" on="1"/>
        <pt x="379" y="1155" on="0"/>
        <pt x="327" y="1137" on="0"/>
        <pt x="288" y="1137" on="1"/>
        <pt x="178" y="1137" on="1"/>
        <pt x="244" y="1499" on="1"/>
      </contour>
    </TTGlyph>
    <TTGlyph name="ccedilla" xMin="52" yMin="-347" xMax="958" yMax="1053">
      <contour>
        <pt x="410" y="-210" on="1"/>
        <pt x="425" y="-210" on="0"/>
        <pt x="453" y="-218" on="0"/>
        <pt x="474" y="-218" on="1"/>
        <pt x="500" y="-218" on="0"/>
        <pt x="522" y="-199" on="0"/>
        <pt x="522" y="-188" on="1"/>
        <pt x="522" y="-167" on="0"/>
        <pt x="461" y="-146" on="0"/>
        <pt x="388" y="-136" on="1"/>
        <pt x="427" y="-5" on="1"/>
        <pt x="349" y="11" on="0"/>
        <pt x="212" y="97" on="0"/>
        <pt x="110" y="231" on="0"/>
        <pt x="52" y="410" on="0"/>
        <pt x="52" y="521" on="1"/>
        <pt x="52" y="633" on="0"/>
        <pt x="119" y="828" on="0"/>
        <pt x="250" y="971" on="0"/>
        <pt x="443" y="1053" on="0"/>
        <pt x="570" y="1053" on="1"/>
        <pt x="692" y="1053" on="0"/>
        <pt x="876" y="975" on="0"/>
        <pt x="950" y="900" on="1"/>
        <pt x="868" y="791" on="1"/>
        <pt x="854" y="774" on="0"/>
        <pt x="828" y="754" on="0"/>
        <pt x="804" y="754" on="1"/>
        <pt x="781" y="754" on="0"/>
        <pt x="744" y="776" on="0"/>
        <pt x="698" y="803" on="0"/>
        <pt x="636" y="825" on="0"/>
        <pt x="590" y="825" on="1"/>
        <pt x="533" y="825" on="0"/>
        <pt x="450" y="783" on="0"/>
        <pt x="396" y="705" on="0"/>
        <pt x="370" y="592" on="0"/>
        <pt x="370" y="521" on="1"/>
        <pt x="370" y="372" on="0"/>
        <pt x="485" y="212" on="0"/>
        <pt x="586" y="212" on="1"/>
        <pt x="640" y="212" on="0"/>
        <pt x="703" y="239" on="0"/>
        <pt x="747" y="272" on="0"/>
        <pt x="784" y="300" on="0"/>
        <pt x="812" y="300" on="1"/>
        <pt x="849" y="300" on="0"/>
        <pt x="868" y="273" on="1"/>
        <pt x="958" y="162" on="1"/>
        <pt x="920" y="118" on="0"/>
        <pt x="837" y="57" on="0"/>
        <pt x="750" y="17" on="0"/>
        <pt x="662" y="-6" on="0"/>
        <pt x="618" y="-11" on="1"/>
        <pt x="609" y="-43" on="1"/>
        <pt x="654" y="-55" on="0"/>
        <pt x="714" y="-87" on="0"/>
        <pt x="749" y="-125" on="0"/>
        <pt x="764" y="-170" on="0"/>
        <pt x="764" y="-194" on="1"/>
        <pt x="764" y="-229" on="0"/>
        <pt x="725" y="-285" on="0"/>
        <pt x="655" y="-325" on="0"/>
        <pt x="556" y="-347" on="0"/>
        <pt x="496" y="-347" on="1"/>
        <pt x="455" y="-347" on="0"/>
        <pt x="386" y="-339" on="0"/>
        <pt x="348" y="-331" on="1"/>
        <pt x="376" y="-237" on="1"/>
        <pt x="382" y="-210" on="0"/>
      </contour>
    </TTGlyph>
    <TTGlyph name="cedilla" xMin="132" yMin="-347" xMax="548" yMax="17">
      <contour>
        <pt x="194" y="-210" on="1"/>
        <pt x="209" y="-210" on="0"/>
        <pt x="237" y="-218" on="0"/>
        <pt x="258" y="-218" on="1"/>
        <pt x="284" y="-218" on="0"/>
        <pt x="306" y="-199" on="0"/>
        <pt x="306" y="-188" on="1"/>
        <pt x="306" y="-167" on="0"/>
        <pt x="245" y="-146" on="0"/>
        <pt x="172" y="-136" on="1"/>
        <pt x="218" y="17" on="1"/>
        <pt x="410" y="17" on="1"/>
        <pt x="393" y="-43" on="1"/>
        <pt x="438" y="-55" on="0"/>
        <pt x="498" y="-87" on="0"/>
        <pt x="533" y="-125" on="0"/>
        <pt x="548" y="-170" on="0"/>
        <pt x="548" y="-194" on="1"/>
        <pt x="548" y="-229" on="0"/>
        <pt x="509" y="-285" on="0"/>
        <pt x="439" y="-325" on="0"/>
        <pt x="340" y="-347" on="0"/>
        <pt x="280" y="-347" on="1"/>
        <pt x="239" y="-347" on="0"/>
        <pt x="170" y="-339" on="0"/>
        <pt x="132" y="-331" on="1"/>
        <pt x="160" y="-237" on="1"/>
        <pt x="166" y="-210" on="0"/>
      </contour>
    </TTGlyph>
    <TTGlyph name="cent" xMin="108" yMin="-211" xMax="1078" yMax="1263">
      <contour>
        <pt x="518" y="-6" on="1"/>
        <pt x="432" y="10" on="0"/>
        <pt x="282" y="94" on="0"/>
        <pt x="171" y="228" on="0"/>
        <pt x="108" y="408" on="0"/>
        <pt x="108" y="519" on="1"/>
        <pt x="108" y="627" on="0"/>
        <pt x="175" y="816" on="0"/>
        <pt x="307" y="958" on="0"/>
        <pt x="500" y="1044" on="0"/>
        <pt x="626" y="1050" on="1"/>
        <pt x="640" y="1190" on="1"/>
        <pt x="643" y="1217" on="0"/>
        <pt x="687" y="1263" on="0"/>
        <pt x="722" y="1263" on="1"/>
        <pt x="836" y="1263" on="1"/>
        <pt x="813" y="1036" on="1"/>
        <pt x="888" y="1019" on="0"/>
        <pt x="1014" y="951" on="0"/>
        <pt x="1068" y="900" on="1"/>
        <pt x="988" y="795" on="1"/>
        <pt x="975" y="778" on="0"/>
        <pt x="950" y="760" on="0"/>
        <pt x="926" y="760" on="1"/>
        <pt x="911" y="760" on="0"/>
        <pt x="883" y="770" on="0"/>
        <pt x="851" y="785" on="0"/>
        <pt x="813" y="802" on="0"/>
        <pt x="790" y="810" on="1"/>
        <pt x="729" y="212" on="1"/>
        <pt x="772" y="218" on="0"/>
        <pt x="830" y="245" on="0"/>
        <pt x="875" y="272" on="0"/>
        <pt x="913" y="292" on="0"/>
        <pt x="936" y="292" on="1"/>
        <pt x="954" y="292" on="0"/>
        <pt x="983" y="278" on="0"/>
        <pt x="992" y="267" on="1"/>
        <pt x="1078" y="160" on="1"/>
        <pt x="1038" y="116" on="0"/>
        <pt x="949" y="55" on="0"/>
        <pt x="855" y="14" on="0"/>
        <pt x="756" y="-8" on="0"/>
        <pt x="706" y="-12" on="1"/>
        <pt x="694" y="-138" on="1"/>
        <pt x="691" y="-165" on="0"/>
        <pt x="647" y="-211" on="0"/>
        <pt x="612" y="-211" on="1"/>
        <pt x="498" y="-211" on="1"/>
      </contour>
      <contour>
        <pt x="414" y="519" on="1"/>
        <pt x="414" y="411" on="0"/>
        <pt x="480" y="269" on="0"/>
        <pt x="543" y="236" on="1"/>
        <pt x="602" y="820" on="1"/>
        <pt x="504" y="800" on="0"/>
        <pt x="414" y="644" on="0"/>
      </contour>
    </TTGlyph>
    <TTGlyph name="circumflex" xMin="-50" yMin="1168" xMax="710" yMax="1457">
      <contour>
        <pt x="710" y="1168" on="1"/>
        <pt x="504" y="1168" on="1"/>
        <pt x="486" y="1168" on="0"/>
        <pt x="456" y="1179" on="0"/>
        <pt x="444" y="1188" on="1"/>
        <pt x="360" y="1260" on="1"/>
        <pt x="353" y="1265" on="0"/>
        <pt x="341" y="1277" on="0"/>
        <pt x="335" y="1285" on="1"/>
        <pt x="329" y="1277" on="0"/>
        <pt x="316" y="1265" on="0"/>
        <pt x="310" y="1260" on="1"/>
        <pt x="224" y="1188" on="1"/>
        <pt x="215" y="1180" on="0"/>
        <pt x="182" y="1168" on="0"/>
        <pt x="164" y="1168" on="1"/>
        <pt x="-50" y="1168" on="1"/>
        <pt x="184" y="1457" on="1"/>
        <pt x="476" y="1457" on="1"/>
      </contour>
    </TTGlyph>
    <TTGlyph name="circumflex.case" xMin="-70" yMin="1551" xMax="730" yMax="1778">
      <contour>
        <pt x="730" y="1551" on="1"/>
        <pt x="496" y="1551" on="1"/>
        <pt x="478" y="1551" on="0"/>
        <pt x="436" y="1561" on="0"/>
        <pt x="422" y="1569" on="1"/>
        <pt x="348" y="1614" on="1"/>
        <pt x="343" y="1616" on="0"/>
        <pt x="335" y="1622" on="0"/>
        <pt x="330" y="1625" on="1"/>
        <pt x="325" y="1622" on="0"/>
        <pt x="317" y="1616" on="0"/>
        <pt x="312" y="1614" on="1"/>
        <pt x="238" y="1569" on="1"/>
        <pt x="224" y="1561" on="0"/>
        <pt x="182" y="1551" on="0"/>
        <pt x="164" y="1551" on="1"/>
        <pt x="-70" y="1551" on="1"/>
        <pt x="174" y="1778" on="1"/>
        <pt x="486" y="1778" on="1"/>
      </contour>
    </TTGlyph>
    <TTGlyph name="colon" xMin="100" yMin="-14" xMax="452" yMax="1011">
      <contour>
        <pt x="100" y="157" on="1"/>
        <pt x="100" y="193" on="0"/>
        <pt x="127" y="255" on="0"/>
        <pt x="174" y="301" on="0"/>
        <pt x="238" y="328" on="0"/>
        <pt x="276" y="328" on="1"/>
        <pt x="313" y="328" on="0"/>
        <pt x="377" y="301" on="0"/>
        <pt x="425" y="255" on="0"/>
        <pt x="452" y="193" on="0"/>
        <pt x="452" y="157" on="1"/>
        <pt x="452" y="121" on="0"/>
        <pt x="425" y="58" on="0"/>
        <pt x="377" y="12" on="0"/>
        <pt x="313" y="-14" on="0"/>
        <pt x="276" y="-14" on="1"/>
        <pt x="238" y="-14" on="0"/>
        <pt x="174" y="12" on="0"/>
        <pt x="127" y="58" on="0"/>
        <pt x="100" y="121" on="0"/>
      </contour>
      <contour>
        <pt x="100" y="840" on="1"/>
        <pt x="100" y="876" on="0"/>
        <pt x="127" y="938" on="0"/>
        <pt x="174" y="984" on="0"/>
        <pt x="238" y="1011" on="0"/>
        <pt x="276" y="1011" on="1"/>
        <pt x="313" y="1011" on="0"/>
        <pt x="377" y="984" on="0"/>
        <pt x="425" y="938" on="0"/>
        <pt x="452" y="876" on="0"/>
        <pt x="452" y="840" on="1"/>
        <pt x="452" y="804" on="0"/>
        <pt x="425" y="741" on="0"/>
        <pt x="377" y="695" on="0"/>
        <pt x="313" y="669" on="0"/>
        <pt x="276" y="669" on="1"/>
        <pt x="238" y="669" on="0"/>
        <pt x="174" y="695" on="0"/>
        <pt x="127" y="741" on="0"/>
        <pt x="100" y="804" on="0"/>
      </contour>
    </TTGlyph>
    <TTGlyph name="comma" xMin="68" yMin="-295" xMax="412" yMax="328">
      <contour>
        <pt x="68" y="176" on="1"/>
        <pt x="68" y="208" on="0"/>
        <pt x="92" y="263" on="0"/>
        <pt x="137" y="304" on="0"/>
        <pt x="198" y="328" on="0"/>
        <pt x="236" y="328" on="1"/>
        <pt x="281" y="328" on="0"/>
        <pt x="347" y="297" on="0"/>
        <pt x="391" y="244" on="0"/>
        <pt x="412" y="175" on="0"/>
        <pt x="412" y="137" on="1"/>
        <pt x="412" y="87" on="0"/>
        <pt x="380" y="-26" on="0"/>
        <pt x="317" y="-140" on="0"/>
        <pt x="223" y="-250" on="0"/>
        <pt x="162" y="-295" on="1"/>
        <pt x="108" y="-247" on="1"/>
        <pt x="97" y="-236" on="0"/>
        <pt x="86" y="-217" on="0"/>
        <pt x="86" y="-203" on="1"/>
        <pt x="86" y="-193" on="0"/>
        <pt x="100" y="-170" on="0"/>
        <pt x="110" y="-161" on="1"/>
        <pt x="122" y="-149" on="0"/>
        <pt x="154" y="-115" on="0"/>
        <pt x="186" y="-73" on="0"/>
        <pt x="213" y="-23" on="0"/>
        <pt x="220" y="5" on="1"/>
        <pt x="185" y="8" on="0"/>
        <pt x="129" y="36" on="0"/>
        <pt x="90" y="82" on="0"/>
        <pt x="68" y="141" on="0"/>
      </contour>
    </TTGlyph>
    <TTGlyph name="copyright" xMin="40" yMin="-14" xMax="1530" yMax="1473">
      <contour>
        <pt x="984" y="542" on="1"/>
        <pt x="996" y="542" on="0"/>
        <pt x="1018" y="530" on="0"/>
        <pt x="1026" y="521" on="1"/>
        <pt x="1128" y="416" on="1"/>
        <pt x="1074" y="341" on="0"/>
        <pt x="899" y="264" on="0"/>
        <pt x="784" y="264" on="1"/>
        <pt x="683" y="264" on="0"/>
        <pt x="520" y="337" on="0"/>
        <pt x="406" y="464" on="0"/>
        <pt x="344" y="634" on="0"/>
        <pt x="344" y="732" on="1"/>
        <pt x="344" y="834" on="0"/>
        <pt x="416" y="1005" on="0"/>
        <pt x="541" y="1130" on="0"/>
        <pt x="709" y="1199" on="0"/>
        <pt x="806" y="1199" on="1"/>
        <pt x="921" y="1199" on="0"/>
        <pt x="1087" y="1119" on="0"/>
        <pt x="1138" y="1059" on="1"/>
        <pt x="1056" y="950" on="1"/>
        <pt x="1048" y="942" on="0"/>
        <pt x="1024" y="921" on="0"/>
        <pt x="1004" y="921" on="1"/>
        <pt x="984" y="921" on="0"/>
        <pt x="955" y="939" on="0"/>
        <pt x="919" y="961" on="0"/>
        <pt x="866" y="979" on="0"/>
        <pt x="822" y="979" on="1"/>
        <pt x="721" y="979" on="0"/>
        <pt x="618" y="846" on="0"/>
        <pt x="618" y="732" on="1"/>
        <pt x="618" y="672" on="0"/>
        <pt x="645" y="580" on="0"/>
        <pt x="693" y="518" on="0"/>
        <pt x="760" y="486" on="0"/>
        <pt x="800" y="486" on="1"/>
        <pt x="847" y="486" on="0"/>
        <pt x="902" y="503" on="0"/>
        <pt x="938" y="523" on="0"/>
        <pt x="964" y="541" on="0"/>
      </contour>
      <contour>
        <pt x="40" y="729" on="1"/>
        <pt x="40" y="832" on="0"/>
        <pt x="93" y="1022" on="0"/>
        <pt x="190" y="1187" on="0"/>
        <pt x="326" y="1323" on="0"/>
        <pt x="492" y="1420" on="0"/>
        <pt x="681" y="1473" on="0"/>
        <pt x="784" y="1473" on="1"/>
        <pt x="887" y="1473" on="0"/>
        <pt x="1078" y="1420" on="0"/>
        <pt x="1243" y="1323" on="0"/>
        <pt x="1380" y="1187" on="0"/>
        <pt x="1477" y="1022" on="0"/>
        <pt x="1530" y="832" on="0"/>
        <pt x="1530" y="729" on="1"/>
        <pt x="1530" y="627" on="0"/>
        <pt x="1477" y="437" on="0"/>
        <pt x="1380" y="272" on="0"/>
        <pt x="1243" y="136" on="0"/>
        <pt x="1078" y="39" on="0"/>
        <pt x="887" y="-14" on="0"/>
        <pt x="784" y="-14" on="1"/>
        <pt x="682" y="-14" on="0"/>
        <pt x="492" y="39" on="0"/>
        <pt x="326" y="136" on="0"/>
        <pt x="190" y="272" on="0"/>
        <pt x="93" y="437" on="0"/>
        <pt x="40" y="626" on="0"/>
      </contour>
      <contour>
        <pt x="206" y="729" on="1"/>
        <pt x="206" y="602" on="0"/>
        <pt x="295" y="382" on="0"/>
        <pt x="451" y="219" on="0"/>
        <pt x="662" y="126" on="0"/>
        <pt x="784" y="126" on="1"/>
        <pt x="907" y="126" on="0"/>
        <pt x="1120" y="219" on="0"/>
        <pt x="1278" y="382" on="0"/>
        <pt x="1368" y="602" on="0"/>
        <pt x="1368" y="729" on="1"/>
        <pt x="1368" y="814" on="0"/>
        <pt x="1327" y="970" on="0"/>
        <pt x="1252" y="1105" on="0"/>
        <pt x="1146" y="1216" on="0"/>
        <pt x="1016" y="1294" on="0"/>
        <pt x="866" y="1337" on="0"/>
        <pt x="784" y="1337" on="1"/>
        <pt x="662" y="1337" on="0"/>
        <pt x="451" y="1243" on="0"/>
        <pt x="295" y="1078" on="0"/>
        <pt x="206" y="856" on="0"/>
      </contour>
    </TTGlyph>
    <TTGlyph name="currency" xMin="90" yMin="188" xMax="1070" yMax="1160">
      <contour>
        <pt x="200" y="674" on="1"/>
        <pt x="200" y="723" on="0"/>
        <pt x="223" y="813" on="0"/>
        <pt x="244" y="853" on="1"/>
        <pt x="90" y="1006" on="1"/>
        <pt x="246" y="1154" on="1"/>
        <pt x="396" y="1006" on="1"/>
        <pt x="437" y="1028" on="0"/>
        <pt x="529" y="1052" on="0"/>
        <pt x="580" y="1052" on="1"/>
        <pt x="628" y="1052" on="0"/>
        <pt x="717" y="1029" on="0"/>
        <pt x="757" y="1008" on="1"/>
        <pt x="910" y="1160" on="1"/>
        <pt x="1064" y="1010" on="1"/>
        <pt x="911" y="859" on="1"/>
        <pt x="934" y="818" on="0"/>
        <pt x="960" y="725" on="0"/>
        <pt x="960" y="674" on="1"/>
        <pt x="960" y="625" on="0"/>
        <pt x="937" y="535" on="0"/>
        <pt x="915" y="495" on="1"/>
        <pt x="1070" y="343" on="1"/>
        <pt x="914" y="194" on="1"/>
        <pt x="763" y="342" on="1"/>
        <pt x="722" y="320" on="0"/>
        <pt x="630" y="296" on="0"/>
        <pt x="580" y="296" on="1"/>
        <pt x="532" y="296" on="0"/>
        <pt x="443" y="318" on="0"/>
        <pt x="403" y="338" on="1"/>
        <pt x="250" y="188" on="1"/>
        <pt x="96" y="338" on="1"/>
        <pt x="248" y="488" on="1"/>
        <pt x="225" y="529" on="0"/>
        <pt x="200" y="623" on="0"/>
      </contour>
      <contour>
        <pt x="428" y="674" on="1"/>
        <pt x="428" y="642" on="0"/>
        <pt x="452" y="584" on="0"/>
        <pt x="493" y="540" on="0"/>
        <pt x="548" y="515" on="0"/>
        <pt x="580" y="515" on="1"/>
        <pt x="612" y="515" on="0"/>
        <pt x="668" y="540" on="0"/>
        <pt x="710" y="584" on="0"/>
        <pt x="734" y="642" on="0"/>
        <pt x="734" y="674" on="1"/>
        <pt x="734" y="708" on="0"/>
        <pt x="710" y="766" on="0"/>
        <pt x="668" y="810" on="0"/>
        <pt x="612" y="835" on="0"/>
        <pt x="580" y="835" on="1"/>
        <pt x="548" y="835" on="0"/>
        <pt x="493" y="810" on="0"/>
        <pt x="452" y="766" on="0"/>
        <pt x="428" y="708" on="0"/>
      </contour>
    </TTGlyph>
    <TTGlyph name="d" xMin="50" yMin="-16" xMax="1040" yMax="1497">
      <contour>
        <pt x="848" y="0" on="1"/>
        <pt x="819" y="0" on="0"/>
        <pt x="780" y="26" on="0"/>
        <pt x="772" y="52" on="1"/>
        <pt x="748" y="131" on="1"/>
        <pt x="717" y="98" on="0"/>
        <pt x="649" y="44" on="0"/>
        <pt x="570" y="5" on="0"/>
        <pt x="479" y="-16" on="0"/>
        <pt x="426" y="-16" on="1"/>
        <pt x="345" y="-16" on="0"/>
        <pt x="207" y="56" on="0"/>
        <pt x="107" y="192" on="0"/>
        <pt x="50" y="389" on="0"/>
        <pt x="50" y="515" on="1"/>
        <pt x="50" y="631" on="0"/>
        <pt x="114" y="830" on="0"/>
        <pt x="231" y="975" on="0"/>
        <pt x="395" y="1057" on="0"/>
        <pt x="494" y="1057" on="1"/>
        <pt x="574" y="1057" on="0"/>
        <pt x="685" y="1010" on="0"/>
        <pt x="730" y="972" on="1"/>
        <pt x="730" y="1497" on="1"/>
        <pt x="1040" y="1497" on="1"/>
        <pt x="1040" y="0" on="1"/>
      </contour>
      <contour>
        <pt x="534" y="222" on="1"/>
        <pt x="568" y="222" on="0"/>
        <pt x="623" y="235" on="0"/>
        <pt x="669" y="259" on="0"/>
        <pt x="710" y="295" on="0"/>
        <pt x="730" y="319" on="1"/>
        <pt x="730" y="759" on="1"/>
        <pt x="694" y="798" on="0"/>
        <pt x="613" y="829" on="0"/>
        <pt x="568" y="829" on="1"/>
        <pt x="525" y="829" on="0"/>
        <pt x="453" y="795" on="0"/>
        <pt x="400" y="720" on="0"/>
        <pt x="370" y="600" on="0"/>
        <pt x="370" y="515" on="1"/>
        <pt x="370" y="433" on="0"/>
        <pt x="394" y="321" on="0"/>
        <pt x="437" y="252" on="0"/>
        <pt x="497" y="222" on="0"/>
      </contour>
    </TTGlyph>
    <TTGlyph name="dagger" xMin="52" yMin="-353" xMax="1116" yMax="1515">
      <contour>
        <pt x="52" y="909" on="1"/>
        <pt x="52" y="934" on="0"/>
        <pt x="69" y="980" on="0"/>
        <pt x="104" y="1016" on="0"/>
        <pt x="158" y="1037" on="0"/>
        <pt x="196" y="1037" on="1"/>
        <pt x="224" y="1037" on="0"/>
        <pt x="289" y="1027" on="0"/>
        <pt x="357" y="1012" on="0"/>
        <pt x="428" y="995" on="0"/>
        <pt x="463" y="988" on="1"/>
        <pt x="424" y="1477" on="1"/>
        <pt x="457" y="1496" on="0"/>
        <pt x="539" y="1515" on="0"/>
        <pt x="584" y="1515" on="1"/>
        <pt x="629" y="1515" on="0"/>
        <pt x="711" y="1496" on="0"/>
        <pt x="744" y="1477" on="1"/>
        <pt x="704" y="988" on="1"/>
        <pt x="739" y="995" on="0"/>
        <pt x="810" y="1012" on="0"/>
        <pt x="879" y="1027" on="0"/>
        <pt x="943" y="1037" on="0"/>
        <pt x="972" y="1037" on="1"/>
        <pt x="1009" y="1037" on="0"/>
        <pt x="1064" y="1016" on="0"/>
        <pt x="1099" y="980" on="0"/>
        <pt x="1116" y="934" on="0"/>
        <pt x="1116" y="909" on="1"/>
        <pt x="1116" y="809" on="1"/>
        <pt x="704" y="809" on="1"/>
        <pt x="704" y="505" on="1"/>
        <pt x="744" y="-314" on="1"/>
        <pt x="711" y="-333" on="0"/>
        <pt x="629" y="-353" on="0"/>
        <pt x="584" y="-353" on="1"/>
        <pt x="539" y="-353" on="0"/>
        <pt x="457" y="-333" on="0"/>
        <pt x="424" y="-314" on="1"/>
        <pt x="464" y="505" on="1"/>
        <pt x="464" y="809" on="1"/>
        <pt x="52" y="809" on="1"/>
      </contour>
    </TTGlyph>
    <TTGlyph name="daggerdbl" xMin="52" yMin="-353" xMax="1116" yMax="1515">
      <contour>
        <pt x="52" y="353" on="1"/>
        <pt x="464" y="353" on="1"/>
        <pt x="464" y="809" on="1"/>
        <pt x="52" y="809" on="1"/>
        <pt x="52" y="909" on="1"/>
        <pt x="52" y="934" on="0"/>
        <pt x="69" y="980" on="0"/>
        <pt x="104" y="1016" on="0"/>
        <pt x="158" y="1037" on="0"/>
        <pt x="196" y="1037" on="1"/>
        <pt x="224" y="1037" on="0"/>
        <pt x="289" y="1027" on="0"/>
        <pt x="357" y="1012" on="0"/>
        <pt x="428" y="995" on="0"/>
        <pt x="463" y="988" on="1"/>
        <pt x="424" y="1477" on="1"/>
        <pt x="457" y="1496" on="0"/>
        <pt x="539" y="1515" on="0"/>
        <pt x="584" y="1515" on="1"/>
        <pt x="629" y="1515" on="0"/>
        <pt x="711" y="1496" on="0"/>
        <pt x="744" y="1477" on="1"/>
        <pt x="704" y="988" on="1"/>
        <pt x="739" y="995" on="0"/>
        <pt x="810" y="1012" on="0"/>
        <pt x="879" y="1027" on="0"/>
        <pt x="943" y="1037" on="0"/>
        <pt x="972" y="1037" on="1"/>
        <pt x="1009" y="1037" on="0"/>
        <pt x="1064" y="1016" on="0"/>
        <pt x="1099" y="980" on="0"/>
        <pt x="1116" y="934" on="0"/>
        <pt x="1116" y="909" on="1"/>
        <pt x="1116" y="809" on="1"/>
        <pt x="704" y="809" on="1"/>
        <pt x="704" y="353" on="1"/>
        <pt x="1116" y="353" on="1"/>
        <pt x="1116" y="254" on="1"/>
        <pt x="1116" y="229" on="0"/>
        <pt x="1099" y="182" on="0"/>
        <pt x="1064" y="146" on="0"/>
        <pt x="1009" y="125" on="0"/>
        <pt x="972" y="125" on="1"/>
        <pt x="943" y="125" on="0"/>
        <pt x="879" y="135" on="0"/>
        <pt x="810" y="150" on="0"/>
        <pt x="739" y="167" on="0"/>
        <pt x="704" y="174" on="1"/>
        <pt x="744" y="-314" on="1"/>
        <pt x="711" y="-333" on="0"/>
        <pt x="629" y="-353" on="0"/>
        <pt x="584" y="-353" on="1"/>
        <pt x="539" y="-353" on="0"/>
        <pt x="457" y="-333" on="0"/>
        <pt x="424" y="-314" on="1"/>
        <pt x="463" y="174" on="1"/>
        <pt x="428" y="167" on="0"/>
        <pt x="357" y="150" on="0"/>
        <pt x="289" y="135" on="0"/>
        <pt x="224" y="125" on="0"/>
        <pt x="196" y="125" on="1"/>
        <pt x="158" y="125" on="0"/>
        <pt x="104" y="146" on="0"/>
        <pt x="69" y="182" on="0"/>
        <pt x="52" y="229" on="0"/>
        <pt x="52" y="254" on="1"/>
      </contour>
    </TTGlyph>
    <TTGlyph name="degree" xMin="40" yMin="765" xMax="770" yMax="1475">
      <contour>
        <pt x="40" y="1119" on="1"/>
        <pt x="40" y="1193" on="0"/>
        <pt x="96" y="1323" on="0"/>
        <pt x="194" y="1419" on="0"/>
        <pt x="327" y="1475" on="0"/>
        <pt x="404" y="1475" on="1"/>
        <pt x="481" y="1475" on="0"/>
        <pt x="615" y="1419" on="0"/>
        <pt x="714" y="1323" on="0"/>
        <pt x="770" y="1193" on="0"/>
        <pt x="770" y="1119" on="1"/>
        <pt x="770" y="1047" on="0"/>
        <pt x="714" y="918" on="0"/>
        <pt x="615" y="822" on="0"/>
        <pt x="481" y="765" on="0"/>
        <pt x="404" y="765" on="1"/>
        <pt x="327" y="765" on="0"/>
        <pt x="194" y="822" on="0"/>
        <pt x="96" y="918" on="0"/>
        <pt x="40" y="1047" on="0"/>
      </contour>
      <contour>
        <pt x="254" y="1117" on="1"/>
        <pt x="254" y="1084" on="0"/>
        <pt x="276" y="1027" on="0"/>
        <pt x="316" y="984" on="0"/>
        <pt x="371" y="960" on="0"/>
        <pt x="404" y="960" on="1"/>
        <pt x="437" y="960" on="0"/>
        <pt x="492" y="984" on="0"/>
        <pt x="532" y="1027" on="0"/>
        <pt x="554" y="1084" on="0"/>
        <pt x="554" y="1117" on="1"/>
        <pt x="554" y="1151" on="0"/>
        <pt x="532" y="1210" on="0"/>
        <pt x="492" y="1253" on="0"/>
        <pt x="437" y="1278" on="0"/>
        <pt x="404" y="1278" on="1"/>
        <pt x="371" y="1278" on="0"/>
        <pt x="316" y="1253" on="0"/>
        <pt x="276" y="1210" on="0"/>
        <pt x="254" y="1151" on="0"/>
      </contour>
    </TTGlyph>
    <TTGlyph name="dieresis" xMin="-24" yMin="1142" xMax="684" yMax="1454">
      <contour>
        <pt x="298" y="1295" on="1"/>
        <pt x="298" y="1263" on="0"/>
        <pt x="272" y="1207" on="0"/>
        <pt x="227" y="1166" on="0"/>
        <pt x="168" y="1142" on="0"/>
        <pt x="134" y="1142" on="1"/>
        <pt x="102" y="1142" on="0"/>
        <pt x="45" y="1166" on="0"/>
        <pt x="2" y="1207" on="0"/>
        <pt x="-24" y="1263" on="0"/>
        <pt x="-24" y="1295" on="1"/>
        <pt x="-24" y="1328" on="0"/>
        <pt x="2" y="1386" on="0"/>
        <pt x="45" y="1429" on="0"/>
        <pt x="102" y="1454" on="0"/>
        <pt x="134" y="1454" on="1"/>
        <pt x="168" y="1454" on="0"/>
        <pt x="227" y="1429" on="0"/>
        <pt x="272" y="1386" on="0"/>
        <pt x="298" y="1328" on="0"/>
      </contour>
      <contour>
        <pt x="684" y="1295" on="1"/>
        <pt x="684" y="1263" on="0"/>
        <pt x="659" y="1207" on="0"/>
        <pt x="615" y="1166" on="0"/>
        <pt x="556" y="1142" on="0"/>
        <pt x="522" y="1142" on="1"/>
        <pt x="489" y="1142" on="0"/>
        <pt x="431" y="1166" on="0"/>
        <pt x="387" y="1207" on="0"/>
        <pt x="362" y="1263" on="0"/>
        <pt x="362" y="1295" on="1"/>
        <pt x="362" y="1328" on="0"/>
        <pt x="387" y="1386" on="0"/>
        <pt x="431" y="1429" on="0"/>
        <pt x="489" y="1454" on="0"/>
        <pt x="522" y="1454" on="1"/>
        <pt x="556" y="1454" on="0"/>
        <pt x="615" y="1429" on="0"/>
        <pt x="659" y="1386" on="0"/>
        <pt x="684" y="1328" on="0"/>
      </contour>
    </TTGlyph>
    <TTGlyph name="dieresis.case" xMin="-46" yMin="1518" xMax="706" yMax="1821">
      <contour>
        <pt x="266" y="1668" on="1"/>
        <pt x="266" y="1636" on="0"/>
        <pt x="241" y="1582" on="0"/>
        <pt x="197" y="1541" on="0"/>
        <pt x="139" y="1518" on="0"/>
        <pt x="106" y="1518" on="1"/>
        <pt x="76" y="1518" on="0"/>
        <pt x="21" y="1541" on="0"/>
        <pt x="-21" y="1582" on="0"/>
        <pt x="-46" y="1636" on="0"/>
        <pt x="-46" y="1668" on="1"/>
        <pt x="-46" y="1699" on="0"/>
        <pt x="-21" y="1755" on="0"/>
        <pt x="21" y="1797" on="0"/>
        <pt x="76" y="1821" on="0"/>
        <pt x="106" y="1821" on="1"/>
        <pt x="139" y="1821" on="0"/>
        <pt x="197" y="1797" on="0"/>
        <pt x="241" y="1755" on="0"/>
        <pt x="266" y="1699" on="0"/>
      </contour>
      <contour>
        <pt x="706" y="1668" on="1"/>
        <pt x="706" y="1636" on="0"/>
        <pt x="681" y="1582" on="0"/>
        <pt x="639" y="1541" on="0"/>
        <pt x="582" y="1518" on="0"/>
        <pt x="550" y="1518" on="1"/>
        <pt x="518" y="1518" on="0"/>
        <pt x="461" y="1541" on="0"/>
        <pt x="419" y="1582" on="0"/>
        <pt x="394" y="1636" on="0"/>
        <pt x="394" y="1668" on="1"/>
        <pt x="394" y="1699" on="0"/>
        <pt x="419" y="1755" on="0"/>
        <pt x="461" y="1797" on="0"/>
        <pt x="518" y="1821" on="0"/>
        <pt x="550" y="1821" on="1"/>
        <pt x="582" y="1821" on="0"/>
        <pt x="639" y="1797" on="0"/>
        <pt x="681" y="1755" on="0"/>
        <pt x="706" y="1699" on="0"/>
      </contour>
    </TTGlyph>
    <TTGlyph name="divide" xMin="84" yMin="145" xMax="1074" yMax="1199">
      <contour>
        <pt x="84" y="783" on="1"/>
        <pt x="1074" y="783" on="1"/>
        <pt x="1074" y="561" on="1"/>
        <pt x="84" y="561" on="1"/>
      </contour>
      <contour>
        <pt x="402" y="1028" on="1"/>
        <pt x="402" y="1064" on="0"/>
        <pt x="429" y="1126" on="0"/>
        <pt x="476" y="1172" on="0"/>
        <pt x="540" y="1199" on="0"/>
        <pt x="578" y="1199" on="1"/>
        <pt x="615" y="1199" on="0"/>
        <pt x="679" y="1172" on="0"/>
        <pt x="727" y="1126" on="0"/>
        <pt x="754" y="1064" on="0"/>
        <pt x="754" y="1028" on="1"/>
        <pt x="754" y="992" on="0"/>
        <pt x="727" y="929" on="0"/>
        <pt x="679" y="883" on="0"/>
        <pt x="615" y="857" on="0"/>
        <pt x="578" y="857" on="1"/>
        <pt x="540" y="857" on="0"/>
        <pt x="476" y="883" on="0"/>
        <pt x="429" y="929" on="0"/>
        <pt x="402" y="992" on="0"/>
      </contour>
      <contour>
        <pt x="402" y="316" on="1"/>
        <pt x="402" y="352" on="0"/>
        <pt x="429" y="414" on="0"/>
        <pt x="476" y="460" on="0"/>
        <pt x="540" y="487" on="0"/>
        <pt x="578" y="487" on="1"/>
        <pt x="615" y="487" on="0"/>
        <pt x="679" y="460" on="0"/>
        <pt x="727" y="414" on="0"/>
        <pt x="754" y="352" on="0"/>
        <pt x="754" y="316" on="1"/>
        <pt x="754" y="280" on="0"/>
        <pt x="727" y="217" on="0"/>
        <pt x="679" y="171" on="0"/>
        <pt x="615" y="145" on="0"/>
        <pt x="578" y="145" on="1"/>
        <pt x="540" y="145" on="0"/>
        <pt x="476" y="171" on="0"/>
        <pt x="429" y="217" on="0"/>
        <pt x="402" y="280" on="0"/>
      </contour>
    </TTGlyph>
    <TTGlyph name="dollar" xMin="34" yMin="-211" xMax="1102" yMax="1654">
      <contour>
        <pt x="430" y="-5" on="1"/>
        <pt x="315" y="14" on="0"/>
        <pt x="106" y="109" on="0"/>
        <pt x="34" y="176" on="1"/>
        <pt x="130" y="315" on="1"/>
        <pt x="142" y="332" on="0"/>
        <pt x="183" y="355" on="0"/>
        <pt x="206" y="355" on="1"/>
        <pt x="230" y="355" on="0"/>
        <pt x="280" y="330" on="0"/>
        <pt x="339" y="294" on="0"/>
        <pt x="409" y="257" on="0"/>
        <pt x="454" y="245" on="1"/>
        <pt x="491" y="623" on="1"/>
        <pt x="419" y="643" on="0"/>
        <pt x="277" y="697" on="0"/>
        <pt x="163" y="789" on="0"/>
        <pt x="92" y="931" on="0"/>
        <pt x="92" y="1038" on="1"/>
        <pt x="92" y="1117" on="0"/>
        <pt x="156" y="1267" on="0"/>
        <pt x="279" y="1387" on="0"/>
        <pt x="459" y="1464" on="0"/>
        <pt x="575" y="1470" on="1"/>
        <pt x="586" y="1581" on="1"/>
        <pt x="589" y="1609" on="0"/>
        <pt x="633" y="1654" on="0"/>
        <pt x="668" y="1654" on="1"/>
        <pt x="782" y="1654" on="1"/>
        <pt x="762" y="1457" on="1"/>
        <pt x="870" y="1437" on="0"/>
        <pt x="1026" y="1348" on="0"/>
        <pt x="1080" y="1297" on="1"/>
        <pt x="1004" y="1186" on="1"/>
        <pt x="987" y="1161" on="0"/>
        <pt x="952" y="1138" on="0"/>
        <pt x="928" y="1138" on="1"/>
        <pt x="912" y="1138" on="0"/>
        <pt x="872" y="1152" on="0"/>
        <pt x="824" y="1173" on="0"/>
        <pt x="769" y="1197" on="0"/>
        <pt x="738" y="1206" on="1"/>
        <pt x="703" y="851" on="1"/>
        <pt x="751" y="837" on="0"/>
        <pt x="847" y="804" on="0"/>
        <pt x="936" y="761" on="0"/>
        <pt x="1013" y="705" on="0"/>
        <pt x="1070" y="629" on="0"/>
        <pt x="1102" y="530" on="0"/>
        <pt x="1102" y="467" on="1"/>
        <pt x="1102" y="372" on="0"/>
        <pt x="1038" y="205" on="0"/>
        <pt x="914" y="77" on="0"/>
        <pt x="734" y="-4" on="0"/>
        <pt x="618" y="-13" on="1"/>
        <pt x="606" y="-138" on="1"/>
        <pt x="603" y="-166" on="0"/>
        <pt x="559" y="-211" on="0"/>
        <pt x="524" y="-211" on="1"/>
        <pt x="410" y="-211" on="1"/>
      </contour>
      <contour>
        <pt x="808" y="421" on="1"/>
        <pt x="808" y="478" on="0"/>
        <pt x="735" y="546" on="0"/>
        <pt x="675" y="569" on="1"/>
        <pt x="643" y="239" on="1"/>
        <pt x="808" y="268" on="0"/>
      </contour>
      <contour>
        <pt x="384" y="1068" on="1"/>
        <pt x="384" y="1009" on="0"/>
        <pt x="459" y="936" on="0"/>
        <pt x="520" y="911" on="1"/>
        <pt x="550" y="1213" on="1"/>
        <pt x="504" y="1206" on="0"/>
        <pt x="441" y="1179" on="0"/>
        <pt x="402" y="1141" on="0"/>
        <pt x="384" y="1094" on="0"/>
      </contour>
    </TTGlyph>
    <TTGlyph name="dotaccent" xMin="144" yMin="1142" xMax="518" yMax="1504">
      <contour>
        <pt x="518" y="1322" on="1"/>
        <pt x="518" y="1285" on="0"/>
        <pt x="488" y="1219" on="0"/>
        <pt x="436" y="1170" on="0"/>
        <pt x="367" y="1142" on="0"/>
        <pt x="328" y="1142" on="1"/>
        <pt x="290" y="1142" on="0"/>
        <pt x="224" y="1170" on="0"/>
        <pt x="173" y="1219" on="0"/>
        <pt x="144" y="1285" on="0"/>
        <pt x="144" y="1322" on="1"/>
        <pt x="144" y="1359" on="0"/>
        <pt x="173" y="1426" on="0"/>
        <pt x="224" y="1475" on="0"/>
        <pt x="290" y="1504" on="0"/>
        <pt x="328" y="1504" on="1"/>
        <pt x="367" y="1504" on="0"/>
        <pt x="436" y="1475" on="0"/>
        <pt x="488" y="1426" on="0"/>
        <pt x="518" y="1359" on="0"/>
      </contour>
    </TTGlyph>
    <TTGlyph name="dotaccent.case" xMin="152" yMin="1532" xMax="508" yMax="1877">
      <contour>
        <pt x="508" y="1702" on="1"/>
        <pt x="508" y="1668" on="0"/>
        <pt x="479" y="1606" on="0"/>
        <pt x="430" y="1560" on="0"/>
        <pt x="363" y="1532" on="0"/>
        <pt x="326" y="1532" on="1"/>
        <pt x="291" y="1532" on="0"/>
        <pt x="228" y="1560" on="0"/>
        <pt x="180" y="1606" on="0"/>
        <pt x="152" y="1668" on="0"/>
        <pt x="152" y="1702" on="1"/>
        <pt x="152" y="1738" on="0"/>
        <pt x="180" y="1801" on="0"/>
        <pt x="228" y="1849" on="0"/>
        <pt x="291" y="1877" on="0"/>
        <pt x="326" y="1877" on="1"/>
        <pt x="363" y="1877" on="0"/>
        <pt x="430" y="1849" on="0"/>
        <pt x="479" y="1801" on="0"/>
        <pt x="508" y="1738" on="0"/>
      </contour>
    </TTGlyph>
    <TTGlyph name="dotlessi" xMin="130" yMin="0" xMax="440" yMax="1037">
      <contour>
        <pt x="440" y="1037" on="1"/>
        <pt x="440" y="0" on="1"/>
        <pt x="130" y="0" on="1"/>
        <pt x="130" y="1037" on="1"/>
      </contour>
    </TTGlyph>
    <TTGlyph name="e" xMin="52" yMin="-16" xMax="1030" yMax="1053">
      <contour>
        <pt x="564" y="1053" on="1"/>
        <pt x="667" y="1053" on="0"/>
        <pt x="838" y="989" on="0"/>
        <pt x="961" y="867" on="0"/>
        <pt x="1030" y="690" on="0"/>
        <pt x="1030" y="578" on="1"/>
        <pt x="1030" y="543" on="0"/>
        <pt x="1024" y="499" on="0"/>
        <pt x="1008" y="473" on="0"/>
        <pt x="981" y="463" on="0"/>
        <pt x="960" y="463" on="1"/>
        <pt x="362" y="463" on="1"/>
        <pt x="377" y="333" on="0"/>
        <pt x="505" y="216" on="0"/>
        <pt x="606" y="216" on="1"/>
        <pt x="660" y="216" on="0"/>
        <pt x="738" y="242" on="0"/>
        <pt x="799" y="274" on="0"/>
        <pt x="850" y="300" on="0"/>
        <pt x="878" y="300" on="1"/>
        <pt x="915" y="300" on="0"/>
        <pt x="934" y="273" on="1"/>
        <pt x="1024" y="162" on="1"/>
        <pt x="976" y="107" on="0"/>
        <pt x="865" y="38" on="0"/>
        <pt x="748" y="-1" on="0"/>
        <pt x="631" y="-16" on="0"/>
        <pt x="578" y="-16" on="1"/>
        <pt x="469" y="-16" on="0"/>
        <pt x="278" y="55" on="0"/>
        <pt x="135" y="195" on="0"/>
        <pt x="52" y="403" on="0"/>
        <pt x="52" y="541" on="1"/>
        <pt x="52" y="645" on="0"/>
        <pt x="123" y="831" on="0"/>
        <pt x="256" y="971" on="0"/>
        <pt x="445" y="1053" on="0"/>
      </contour>
      <contour>
        <pt x="570" y="839" on="1"/>
        <pt x="481" y="839" on="0"/>
        <pt x="381" y="738" on="0"/>
        <pt x="365" y="643" on="1"/>
        <pt x="752" y="643" on="1"/>
        <pt x="752" y="680" on="0"/>
        <pt x="733" y="750" on="0"/>
        <pt x="690" y="805" on="0"/>
        <pt x="620" y="839" on="0"/>
      </contour>
    </TTGlyph>
    <TTGlyph name="eacute" xMin="52" yMin="-16" xMax="1030" yMax="1473">
      <component glyphName="e" x="0" y="0" flags="0x204"/>
      <component glyphName="acute" x="242" y="0" flags="0x4"/>
    </TTGlyph>
    <TTGlyph name="ecircumflex" xMin="52" yMin="-16" xMax="1030" yMax="1457">
      <component glyphName="e" x="0" y="0" flags="0x204"/>
      <component glyphName="circumflex" x="242" y="0" flags="0x4"/>
    </TTGlyph>
    <TTGlyph name="edieresis" xMin="52" yMin="-16" xMax="1030" yMax="1454">
      <component glyphName="e" x="0" y="0" flags="0x204"/>
      <component glyphName="dieresis" x="242" y="0" flags="0x4"/>
    </TTGlyph>
    <TTGlyph name="egrave" xMin="52" yMin="-16" xMax="1030" yMax="1473">
      <component glyphName="e" x="0" y="0" flags="0x204"/>
      <component glyphName="grave" x="242" y="0" flags="0x4"/>
    </TTGlyph>
    <TTGlyph name="eight" xMin="60" yMin="-16" xMax="1100" yMax="1473">
      <contour>
        <pt x="580" y="-16" on="1"/>
        <pt x="464" y="-16" on="0"/>
        <pt x="272" y="46" on="0"/>
        <pt x="135" y="159" on="0"/>
        <pt x="60" y="319" on="0"/>
        <pt x="60" y="417" on="1"/>
        <pt x="60" y="476" on="0"/>
        <pt x="87" y="581" on="0"/>
        <pt x="146" y="668" on="0"/>
        <pt x="239" y="736" on="0"/>
        <pt x="305" y="759" on="1"/>
        <pt x="205" y="804" on="0"/>
        <pt x="108" y="964" on="0"/>
        <pt x="108" y="1076" on="1"/>
        <pt x="108" y="1161" on="0"/>
        <pt x="178" y="1306" on="0"/>
        <pt x="304" y="1412" on="0"/>
        <pt x="477" y="1473" on="0"/>
        <pt x="580" y="1473" on="1"/>
        <pt x="683" y="1473" on="0"/>
        <pt x="856" y="1412" on="0"/>
        <pt x="982" y="1306" on="0"/>
        <pt x="1052" y="1161" on="0"/>
        <pt x="1052" y="1076" on="1"/>
        <pt x="1052" y="964" on="0"/>
        <pt x="954" y="804" on="0"/>
        <pt x="855" y="759" on="1"/>
        <pt x="920" y="736" on="0"/>
        <pt x="1013" y="668" on="0"/>
        <pt x="1072" y="581" on="0"/>
        <pt x="1100" y="476" on="0"/>
        <pt x="1100" y="417" on="1"/>
        <pt x="1100" y="319" on="0"/>
        <pt x="1025" y="159" on="0"/>
        <pt x="888" y="46" on="0"/>
        <pt x="696" y="-16" on="0"/>
      </contour>
      <contour>
        <pt x="580" y="218" on="1"/>
        <pt x="632" y="218" on="0"/>
        <pt x="708" y="250" on="0"/>
        <pt x="757" y="305" on="0"/>
        <pt x="780" y="380" on="0"/>
        <pt x="780" y="423" on="1"/>
        <pt x="780" y="470" on="0"/>
        <pt x="760" y="548" on="0"/>
        <pt x="714" y="603" on="0"/>
        <pt x="637" y="634" on="0"/>
        <pt x="580" y="634" on="1"/>
        <pt x="523" y="634" on="0"/>
        <pt x="446" y="603" on="0"/>
        <pt x="400" y="548" on="0"/>
        <pt x="380" y="470" on="0"/>
        <pt x="380" y="423" on="1"/>
        <pt x="380" y="380" on="0"/>
        <pt x="403" y="305" on="0"/>
        <pt x="452" y="250" on="0"/>
        <pt x="527" y="218" on="0"/>
      </contour>
      <contour>
        <pt x="580" y="870" on="1"/>
        <pt x="632" y="870" on="0"/>
        <pt x="698" y="904" on="0"/>
        <pt x="736" y="960" on="0"/>
        <pt x="750" y="1032" on="0"/>
        <pt x="750" y="1070" on="1"/>
        <pt x="750" y="1104" on="0"/>
        <pt x="732" y="1168" on="0"/>
        <pt x="691" y="1217" on="0"/>
        <pt x="626" y="1247" on="0"/>
        <pt x="580" y="1247" on="1"/>
        <pt x="533" y="1247" on="0"/>
        <pt x="469" y="1217" on="0"/>
        <pt x="428" y="1168" on="0"/>
        <pt x="410" y="1104" on="0"/>
        <pt x="410" y="1070" on="1"/>
        <pt x="410" y="1032" on="0"/>
        <pt x="424" y="960" on="0"/>
        <pt x="462" y="904" on="0"/>
        <pt x="528" y="870" on="0"/>
      </contour>
    </TTGlyph>
    <TTGlyph name="ellipsis" xMin="60" yMin="-14" xMax="1516" yMax="328">
      <contour>
        <pt x="60" y="157" on="1"/>
        <pt x="60" y="193" on="0"/>
        <pt x="87" y="255" on="0"/>
        <pt x="134" y="301" on="0"/>
        <pt x="198" y="328" on="0"/>
        <pt x="236" y="328" on="1"/>
        <pt x="273" y="328" on="0"/>
        <pt x="337" y="301" on="0"/>
        <pt x="385" y="255" on="0"/>
        <pt x="412" y="193" on="0"/>
        <pt x="412" y="157" on="1"/>
        <pt x="412" y="121" on="0"/>
        <pt x="385" y="58" on="0"/>
        <pt x="337" y="12" on="0"/>
        <pt x="273" y="-14" on="0"/>
        <pt x="236" y="-14" on="1"/>
        <pt x="198" y="-14" on="0"/>
        <pt x="134" y="12" on="0"/>
        <pt x="87" y="58" on="0"/>
        <pt x="60" y="121" on="0"/>
      </contour>
      <contour>
        <pt x="1164" y="157" on="1"/>
        <pt x="1164" y="193" on="0"/>
        <pt x="1191" y="255" on="0"/>
        <pt x="1238" y="301" on="0"/>
        <pt x="1302" y="328" on="0"/>
        <pt x="1340" y="328" on="1"/>
        <pt x="1377" y="328" on="0"/>
        <pt x="1441" y="301" on="0"/>
        <pt x="1489" y="255" on="0"/>
        <pt x="1516" y="193" on="0"/>
        <pt x="1516" y="157" on="1"/>
        <pt x="1516" y="121" on="0"/>
        <pt x="1489" y="58" on="0"/>
        <pt x="1441" y="12" on="0"/>
        <pt x="1377" y="-14" on="0"/>
        <pt x="1340" y="-14" on="1"/>
        <pt x="1302" y="-14" on="0"/>
        <pt x="1238" y="12" on="0"/>
        <pt x="1191" y="58" on="0"/>
        <pt x="1164" y="121" on="0"/>
      </contour>
      <contour>
        <pt x="612" y="157" on="1"/>
        <pt x="612" y="193" on="0"/>
        <pt x="639" y="255" on="0"/>
        <pt x="686" y="301" on="0"/>
        <pt x="750" y="328" on="0"/>
        <pt x="788" y="328" on="1"/>
        <pt x="825" y="328" on="0"/>
        <pt x="889" y="301" on="0"/>
        <pt x="937" y="255" on="0"/>
        <pt x="964" y="193" on="0"/>
        <pt x="964" y="157" on="1"/>
        <pt x="964" y="121" on="0"/>
        <pt x="937" y="58" on="0"/>
        <pt x="889" y="12" on="0"/>
        <pt x="825" y="-14" on="0"/>
        <pt x="788" y="-14" on="1"/>
        <pt x="750" y="-14" on="0"/>
        <pt x="686" y="12" on="0"/>
        <pt x="639" y="58" on="0"/>
        <pt x="612" y="121" on="0"/>
      </contour>
    </TTGlyph>
    <TTGlyph name="emdash" xMin="170" yMin="501" xMax="1552" yMax="713">
      <contour>
        <pt x="170" y="713" on="1"/>
        <pt x="1552" y="713" on="1"/>
        <pt x="1552" y="501" on="1"/>
        <pt x="170" y="501" on="1"/>
      </contour>
    </TTGlyph>
    <TTGlyph name="endash" xMin="170" yMin="501" xMax="990" yMax="713">
      <contour>
        <pt x="170" y="713" on="1"/>
        <pt x="990" y="713" on="1"/>
        <pt x="990" y="501" on="1"/>
        <pt x="170" y="501" on="1"/>
      </contour>
    </TTGlyph>
    <TTGlyph name="eogonek" xMin="52" yMin="-347" xMax="1030" yMax="1053">
      <contour>
        <pt x="744" y="-167" on="1"/>
        <pt x="765" y="-167" on="0"/>
        <pt x="772" y="-186" on="1"/>
        <pt x="818" y="-297" on="1"/>
        <pt x="783" y="-318" on="0"/>
        <pt x="679" y="-347" on="0"/>
        <pt x="620" y="-347" on="1"/>
        <pt x="513" y="-347" on="0"/>
        <pt x="402" y="-263" on="0"/>
        <pt x="402" y="-198" on="1"/>
        <pt x="402" y="-150" on="0"/>
        <pt x="460" y="-55" on="0"/>
        <pt x="523" y="-13" on="1"/>
        <pt x="424" y="-5" on="0"/>
        <pt x="252" y="74" on="0"/>
        <pt x="125" y="213" on="0"/>
        <pt x="52" y="412" on="0"/>
        <pt x="52" y="541" on="1"/>
        <pt x="52" y="645" on="0"/>
        <pt x="123" y="831" on="0"/>
        <pt x="256" y="971" on="0"/>
        <pt x="445" y="1053" on="0"/>
        <pt x="564" y="1053" on="1"/>
        <pt x="667" y="1053" on="0"/>
        <pt x="838" y="989" on="0"/>
        <pt x="961" y="867" on="0"/>
        <pt x="1030" y="690" on="0"/>
        <pt x="1030" y="578" on="1"/>
        <pt x="1030" y="543" on="0"/>
        <pt x="1024" y="499" on="0"/>
        <pt x="1008" y="473" on="0"/>
        <pt x="981" y="463" on="0"/>
        <pt x="960" y="463" on="1"/>
        <pt x="362" y="463" on="1"/>
        <pt x="377" y="333" on="0"/>
        <pt x="505" y="216" on="0"/>
        <pt x="606" y="216" on="1"/>
        <pt x="660" y="216" on="0"/>
        <pt x="738" y="242" on="0"/>
        <pt x="799" y="274" on="0"/>
        <pt x="850" y="300" on="0"/>
        <pt x="878" y="300" on="1"/>
        <pt x="915" y="300" on="0"/>
        <pt x="934" y="273" on="1"/>
        <pt x="1024" y="162" on="1"/>
        <pt x="958" y="86" on="0"/>
        <pt x="798" y="10" on="0"/>
        <pt x="718" y="-4" on="1"/>
        <pt x="682" y="-25" on="0"/>
        <pt x="632" y="-85" on="0"/>
        <pt x="632" y="-122" on="1"/>
        <pt x="632" y="-146" on="0"/>
        <pt x="659" y="-175" on="0"/>
        <pt x="686" y="-175" on="1"/>
        <pt x="701" y="-175" on="0"/>
        <pt x="719" y="-173" on="0"/>
        <pt x="731" y="-170" on="0"/>
        <pt x="739" y="-167" on="0"/>
      </contour>
      <contour>
        <pt x="570" y="839" on="1"/>
        <pt x="481" y="839" on="0"/>
        <pt x="381" y="738" on="0"/>
        <pt x="365" y="643" on="1"/>
        <pt x="752" y="643" on="1"/>
        <pt x="752" y="680" on="0"/>
        <pt x="733" y="750" on="0"/>
        <pt x="690" y="805" on="0"/>
        <pt x="620" y="839" on="0"/>
      </contour>
    </TTGlyph>
    <TTGlyph name="equal" xMin="124" yMin="377" xMax="1034" yMax="966">
      <contour>
        <pt x="124" y="599" on="1"/>
        <pt x="1034" y="599" on="1"/>
        <pt x="1034" y="377" on="1"/>
        <pt x="124" y="377" on="1"/>
      </contour>
      <contour>
        <pt x="124" y="966" on="1"/>
        <pt x="1034" y="966" on="1"/>
        <pt x="1034" y="743" on="1"/>
        <pt x="124" y="743" on="1"/>
      </contour>
    </TTGlyph>
    <TTGlyph name="eth" xMin="56" yMin="-16" xMax="1100" yMax="1446">
      <contour>
        <pt x="358" y="1059" on="1"/>
        <pt x="345" y="1080" on="0"/>
        <pt x="345" y="1099" on="1"/>
        <pt x="345" y="1116" on="0"/>
        <pt x="366" y="1146" on="0"/>
        <pt x="386" y="1155" on="1"/>
        <pt x="432" y="1177" on="1"/>
        <pt x="412" y="1184" on="0"/>
        <pt x="372" y="1197" on="0"/>
        <pt x="350" y="1203" on="1"/>
        <pt x="319" y="1211" on="0"/>
        <pt x="280" y="1254" on="0"/>
        <pt x="280" y="1290" on="1"/>
        <pt x="280" y="1314" on="0"/>
        <pt x="290" y="1343" on="1"/>
        <pt x="326" y="1446" on="1"/>
        <pt x="432" y="1429" on="0"/>
        <pt x="626" y="1365" on="0"/>
        <pt x="711" y="1316" on="1"/>
        <pt x="894" y="1423" on="1"/>
        <pt x="956" y="1325" on="1"/>
        <pt x="967" y="1308" on="0"/>
        <pt x="967" y="1289" on="1"/>
        <pt x="967" y="1272" on="0"/>
        <pt x="949" y="1243" on="0"/>
        <pt x="932" y="1235" on="1"/>
        <pt x="866" y="1202" on="1"/>
        <pt x="975" y="1099" on="0"/>
        <pt x="1100" y="806" on="0"/>
        <pt x="1100" y="611" on="1"/>
        <pt x="1100" y="461" on="0"/>
        <pt x="1029" y="228" on="0"/>
        <pt x="892" y="67" on="0"/>
        <pt x="692" y="-16" on="0"/>
        <pt x="564" y="-16" on="1"/>
        <pt x="455" y="-16" on="0"/>
        <pt x="269" y="51" on="0"/>
        <pt x="133" y="179" on="0"/>
        <pt x="56" y="363" on="0"/>
        <pt x="56" y="480" on="1"/>
        <pt x="56" y="570" on="0"/>
        <pt x="123" y="735" on="0"/>
        <pt x="246" y="861" on="0"/>
        <pt x="418" y="935" on="0"/>
        <pt x="522" y="935" on="1"/>
        <pt x="612" y="935" on="0"/>
        <pt x="753" y="879" on="0"/>
        <pt x="810" y="828" on="1"/>
        <pt x="790" y="910" on="0"/>
        <pt x="704" y="1036" on="0"/>
        <pt x="628" y="1087" on="1"/>
        <pt x="416" y="963" on="1"/>
      </contour>
      <contour>
        <pt x="572" y="212" on="1"/>
        <pt x="617" y="212" on="0"/>
        <pt x="699" y="245" on="0"/>
        <pt x="764" y="324" on="0"/>
        <pt x="804" y="459" on="0"/>
        <pt x="807" y="561" on="1"/>
        <pt x="778" y="624" on="0"/>
        <pt x="671" y="707" on="0"/>
        <pt x="586" y="707" on="1"/>
        <pt x="532" y="707" on="0"/>
        <pt x="449" y="671" on="0"/>
        <pt x="393" y="609" on="0"/>
        <pt x="364" y="526" on="0"/>
        <pt x="364" y="478" on="1"/>
        <pt x="364" y="413" on="0"/>
        <pt x="396" y="313" on="0"/>
        <pt x="452" y="246" on="0"/>
        <pt x="528" y="212" on="0"/>
      </contour>
    </TTGlyph>
    <TTGlyph name="exclam" xMin="200" yMin="-14" xMax="552" yMax="1457">
      <contour>
        <pt x="524" y="1457" on="1"/>
        <pt x="524" y="885" on="1"/>
        <pt x="524" y="793" on="0"/>
        <pt x="502" y="612" on="0"/>
        <pt x="484" y="518" on="1"/>
        <pt x="274" y="518" on="1"/>
        <pt x="256" y="612" on="0"/>
        <pt x="234" y="793" on="0"/>
        <pt x="234" y="885" on="1"/>
        <pt x="234" y="1457" on="1"/>
      </contour>
      <contour>
        <pt x="200" y="157" on="1"/>
        <pt x="200" y="193" on="0"/>
        <pt x="227" y="255" on="0"/>
        <pt x="274" y="301" on="0"/>
        <pt x="338" y="328" on="0"/>
        <pt x="376" y="328" on="1"/>
        <pt x="413" y="328" on="0"/>
        <pt x="477" y="301" on="0"/>
        <pt x="525" y="255" on="0"/>
        <pt x="552" y="193" on="0"/>
        <pt x="552" y="157" on="1"/>
        <pt x="552" y="121" on="0"/>
        <pt x="525" y="58" on="0"/>
        <pt x="477" y="12" on="0"/>
        <pt x="413" y="-14" on="0"/>
        <pt x="376" y="-14" on="1"/>
        <pt x="338" y="-14" on="0"/>
        <pt x="274" y="12" on="0"/>
        <pt x="227" y="58" on="0"/>
        <pt x="200" y="121" on="0"/>
      </contour>
    </TTGlyph>
    <TTGlyph name="exclamdown" xMin="200" yMin="-329" xMax="552" yMax="1053">
      <contour>
        <pt x="234" y="-329" on="1"/>
        <pt x="234" y="198" on="1"/>
        <pt x="234" y="290" on="0"/>
        <pt x="256" y="472" on="0"/>
        <pt x="274" y="565" on="1"/>
        <pt x="484" y="565" on="1"/>
        <pt x="502" y="472" on="0"/>
        <pt x="524" y="290" on="0"/>
        <pt x="524" y="198" on="1"/>
        <pt x="524" y="-329" on="1"/>
      </contour>
      <contour>
        <pt x="200" y="882" on="1"/>
        <pt x="200" y="918" on="0"/>
        <pt x="227" y="981" on="0"/>
        <pt x="274" y="1027" on="0"/>
        <pt x="338" y="1053" on="0"/>
        <pt x="376" y="1053" on="1"/>
        <pt x="413" y="1053" on="0"/>
        <pt x="477" y="1027" on="0"/>
        <pt x="525" y="981" on="0"/>
        <pt x="552" y="918" on="0"/>
        <pt x="552" y="882" on="1"/>
        <pt x="552" y="846" on="0"/>
        <pt x="525" y="784" on="0"/>
        <pt x="477" y="738" on="0"/>
        <pt x="413" y="711" on="0"/>
        <pt x="376" y="711" on="1"/>
        <pt x="338" y="711" on="0"/>
        <pt x="274" y="738" on="0"/>
        <pt x="227" y="784" on="0"/>
        <pt x="200" y="846" on="0"/>
      </contour>
    </TTGlyph>
    <TTGlyph name="f" xMin="20" yMin="0" xMax="720" yMax="1485">
      <contour>
        <pt x="166" y="0" on="1"/>
        <pt x="166" y="824" on="1"/>
        <pt x="98" y="838" on="1"/>
        <pt x="63" y="846" on="0"/>
        <pt x="20" y="880" on="0"/>
        <pt x="20" y="913" on="1"/>
        <pt x="20" y="1035" on="1"/>
        <pt x="166" y="1035" on="1"/>
        <pt x="166" y="1094" on="1"/>
        <pt x="166" y="1183" on="0"/>
        <pt x="223" y="1327" on="0"/>
        <pt x="330" y="1429" on="0"/>
        <pt x="484" y="1485" on="0"/>
        <pt x="582" y="1485" on="1"/>
        <pt x="620" y="1485" on="0"/>
        <pt x="685" y="1476" on="0"/>
        <pt x="720" y="1466" on="1"/>
        <pt x="714" y="1315" on="1"/>
        <pt x="713" y="1299" on="0"/>
        <pt x="698" y="1278" on="0"/>
        <pt x="676" y="1265" on="0"/>
        <pt x="649" y="1259" on="0"/>
        <pt x="636" y="1259" on="1"/>
        <pt x="595" y="1259" on="0"/>
        <pt x="531" y="1243" on="0"/>
        <pt x="488" y="1202" on="0"/>
        <pt x="466" y="1135" on="0"/>
        <pt x="466" y="1084" on="1"/>
        <pt x="466" y="1035" on="1"/>
        <pt x="710" y="1035" on="1"/>
        <pt x="710" y="823" on="1"/>
        <pt x="476" y="823" on="1"/>
        <pt x="476" y="0" on="1"/>
      </contour>
    </TTGlyph>
    <TTGlyph name="fi" xMin="20" yMin="0" xMax="1124" yMax="1506">
      <contour>
        <pt x="166" y="0" on="1"/>
        <pt x="166" y="824" on="1"/>
        <pt x="98" y="838" on="1"/>
        <pt x="63" y="846" on="0"/>
        <pt x="20" y="880" on="0"/>
        <pt x="20" y="913" on="1"/>
        <pt x="20" y="1035" on="1"/>
        <pt x="166" y="1035" on="1"/>
        <pt x="166" y="1050" on="1"/>
        <pt x="166" y="1144" on="0"/>
        <pt x="231" y="1311" on="0"/>
        <pt x="367" y="1434" on="0"/>
        <pt x="578" y="1506" on="0"/>
        <pt x="724" y="1506" on="1"/>
        <pt x="769" y="1506" on="0"/>
        <pt x="865" y="1497" on="0"/>
        <pt x="900" y="1488" on="1"/>
        <pt x="890" y="1331" on="1"/>
        <pt x="888" y="1306" on="0"/>
        <pt x="842" y="1290" on="0"/>
        <pt x="816" y="1290" on="1"/>
        <pt x="712" y="1290" on="0"/>
        <pt x="576" y="1258" on="0"/>
        <pt x="497" y="1195" on="0"/>
        <pt x="466" y="1101" on="0"/>
        <pt x="466" y="1040" on="1"/>
        <pt x="466" y="1035" on="1"/>
        <pt x="1124" y="1035" on="1"/>
        <pt x="1124" y="0" on="1"/>
        <pt x="814" y="0" on="1"/>
        <pt x="814" y="823" on="1"/>
        <pt x="476" y="823" on="1"/>
        <pt x="476" y="0" on="1"/>
      </contour>
    </TTGlyph>
    <TTGlyph name="five" xMin="46" yMin="-16" xMax="1052" yMax="1457">
      <contour>
        <pt x="998" y="1329" on="1"/>
        <pt x="998" y="1297" on="0"/>
        <pt x="978" y="1245" on="0"/>
        <pt x="935" y="1206" on="0"/>
        <pt x="865" y="1185" on="0"/>
        <pt x="816" y="1185" on="1"/>
        <pt x="468" y="1185" on="1"/>
        <pt x="427" y="944" on="1"/>
        <pt x="468" y="951" on="0"/>
        <pt x="544" y="958" on="0"/>
        <pt x="580" y="958" on="1"/>
        <pt x="695" y="958" on="0"/>
        <pt x="871" y="888" on="0"/>
        <pt x="991" y="767" on="0"/>
        <pt x="1052" y="604" on="0"/>
        <pt x="1052" y="511" on="1"/>
        <pt x="1052" y="394" on="0"/>
        <pt x="969" y="201" on="0"/>
        <pt x="821" y="61" on="0"/>
        <pt x="616" y="-16" on="0"/>
        <pt x="494" y="-16" on="1"/>
        <pt x="423" y="-16" on="0"/>
        <pt x="294" y="14" on="0"/>
        <pt x="181" y="65" on="0"/>
        <pt x="85" y="132" on="0"/>
        <pt x="46" y="170" on="1"/>
        <pt x="142" y="298" on="1"/>
        <pt x="157" y="318" on="0"/>
        <pt x="197" y="339" on="0"/>
        <pt x="220" y="339" on="1"/>
        <pt x="250" y="339" on="0"/>
        <pt x="303" y="306" on="0"/>
        <pt x="366" y="267" on="0"/>
        <pt x="450" y="235" on="0"/>
        <pt x="512" y="235" on="1"/>
        <pt x="574" y="235" on="0"/>
        <pt x="662" y="276" on="0"/>
        <pt x="717" y="347" on="0"/>
        <pt x="742" y="442" on="0"/>
        <pt x="742" y="496" on="1"/>
        <pt x="742" y="602" on="0"/>
        <pt x="622" y="713" on="0"/>
        <pt x="512" y="713" on="1"/>
        <pt x="414" y="713" on="0"/>
        <pt x="320" y="676" on="1"/>
        <pt x="128" y="728" on="1"/>
        <pt x="252" y="1457" on="1"/>
        <pt x="998" y="1457" on="1"/>
      </contour>
    </TTGlyph>
    <TTGlyph name="fl" xMin="20" yMin="0" xMax="1144" yMax="1489">
      <contour>
        <pt x="166" y="0" on="1"/>
        <pt x="166" y="824" on="1"/>
        <pt x="98" y="838" on="1"/>
        <pt x="63" y="846" on="0"/>
        <pt x="20" y="880" on="0"/>
        <pt x="20" y="913" on="1"/>
        <pt x="20" y="1035" on="1"/>
        <pt x="166" y="1035" on="1"/>
        <pt x="166" y="1071" on="1"/>
        <pt x="166" y="1150" on="0"/>
        <pt x="218" y="1301" on="0"/>
        <pt x="326" y="1418" on="0"/>
        <pt x="494" y="1489" on="0"/>
        <pt x="610" y="1489" on="1"/>
        <pt x="708" y="1489" on="0"/>
        <pt x="881" y="1477" on="0"/>
        <pt x="970" y="1477" on="1"/>
        <pt x="1144" y="1477" on="1"/>
        <pt x="1144" y="0" on="1"/>
        <pt x="836" y="0" on="1"/>
        <pt x="836" y="1269" on="1"/>
        <pt x="785" y="1271" on="0"/>
        <pt x="690" y="1276" on="0"/>
        <pt x="660" y="1276" on="1"/>
        <pt x="565" y="1276" on="0"/>
        <pt x="466" y="1171" on="0"/>
        <pt x="466" y="1071" on="1"/>
        <pt x="466" y="1035" on="1"/>
        <pt x="690" y="1035" on="1"/>
        <pt x="690" y="823" on="1"/>
        <pt x="476" y="823" on="1"/>
        <pt x="476" y="0" on="1"/>
      </contour>
    </TTGlyph>
    <TTGlyph name="florin" xMin="90" yMin="-339" xMax="1040" yMax="1485">
      <contour>
        <pt x="737" y="727" on="1"/>
        <pt x="658" y="72" on="1"/>
        <pt x="645" y="-37" on="0"/>
        <pt x="566" y="-192" on="0"/>
        <pt x="428" y="-292" on="0"/>
        <pt x="226" y="-339" on="0"/>
        <pt x="90" y="-339" on="1"/>
        <pt x="90" y="-182" on="1"/>
        <pt x="90" y="-134" on="0"/>
        <pt x="136" y="-90" on="0"/>
        <pt x="186" y="-90" on="1"/>
        <pt x="222" y="-90" on="0"/>
        <pt x="278" y="-72" on="0"/>
        <pt x="318" y="-31" on="0"/>
        <pt x="344" y="35" on="0"/>
        <pt x="350" y="82" on="1"/>
        <pt x="429" y="722" on="1"/>
        <pt x="334" y="742" on="1"/>
        <pt x="301" y="750" on="0"/>
        <pt x="266" y="785" on="0"/>
        <pt x="266" y="817" on="1"/>
        <pt x="266" y="939" on="1"/>
        <pt x="455" y="939" on="1"/>
        <pt x="472" y="1073" on="1"/>
        <pt x="485" y="1175" on="0"/>
        <pt x="563" y="1329" on="0"/>
        <pt x="701" y="1432" on="0"/>
        <pt x="903" y="1485" on="0"/>
        <pt x="1040" y="1485" on="1"/>
        <pt x="1040" y="1320" on="1"/>
        <pt x="1040" y="1272" on="0"/>
        <pt x="994" y="1236" on="0"/>
        <pt x="944" y="1236" on="1"/>
        <pt x="872" y="1236" on="0"/>
        <pt x="785" y="1158" on="0"/>
        <pt x="772" y="1064" on="1"/>
        <pt x="755" y="939" on="1"/>
        <pt x="1024" y="939" on="1"/>
        <pt x="1024" y="727" on="1"/>
      </contour>
    </TTGlyph>
    <TTGlyph name="four" xMin="6" yMin="0" xMax="1126" yMax="1457">
      <contour>
        <pt x="976" y="566" on="1"/>
        <pt x="1126" y="566" on="1"/>
        <pt x="1126" y="392" on="1"/>
        <pt x="1126" y="369" on="0"/>
        <pt x="1095" y="335" on="0"/>
        <pt x="1066" y="335" on="1"/>
        <pt x="976" y="335" on="1"/>
        <pt x="976" y="0" on="1"/>
        <pt x="706" y="0" on="1"/>
        <pt x="706" y="335" on="1"/>
        <pt x="120" y="335" on="1"/>
        <pt x="91" y="335" on="0"/>
        <pt x="44" y="371" on="0"/>
        <pt x="38" y="398" on="1"/>
        <pt x="6" y="551" on="1"/>
        <pt x="680" y="1457" on="1"/>
        <pt x="976" y="1457" on="1"/>
      </contour>
      <contour>
        <pt x="706" y="946" on="1"/>
        <pt x="706" y="981" on="0"/>
        <pt x="711" y="1062" on="0"/>
        <pt x="716" y="1105" on="1"/>
        <pt x="331" y="566" on="1"/>
        <pt x="706" y="566" on="1"/>
      </contour>
    </TTGlyph>
    <TTGlyph name="fraction" xMin="-166" yMin="0" xMax="974" yMax="1457">
      <contour>
        <pt x="118" y="85" on="1"/>
        <pt x="102" y="60" on="0"/>
        <pt x="69" y="27" on="0"/>
        <pt x="32" y="8" on="0"/>
        <pt x="-10" y="0" on="0"/>
        <pt x="-34" y="0" on="1"/>
        <pt x="-166" y="0" on="1"/>
        <pt x="682" y="1359" on="1"/>
        <pt x="712" y="1406" on="0"/>
        <pt x="788" y="1457" on="0"/>
        <pt x="842" y="1457" on="1"/>
        <pt x="974" y="1457" on="1"/>
      </contour>
    </TTGlyph>
    <TTGlyph name="g" xMin="14" yMin="-357" xMax="1032" yMax="1055">
      <contour>
        <pt x="486" y="1055" on="1"/>
        <pt x="552" y="1055" on="0"/>
        <pt x="669" y="1029" on="0"/>
        <pt x="719" y="1005" on="1"/>
        <pt x="1032" y="1005" on="1"/>
        <pt x="1032" y="892" on="1"/>
        <pt x="1032" y="866" on="0"/>
        <pt x="1003" y="836" on="0"/>
        <pt x="968" y="828" on="1"/>
        <pt x="892" y="811" on="1"/>
        <pt x="906" y="766" on="0"/>
        <pt x="906" y="718" on="1"/>
        <pt x="906" y="640" on="0"/>
        <pt x="841" y="516" on="0"/>
        <pt x="728" y="429" on="0"/>
        <pt x="574" y="382" on="0"/>
        <pt x="486" y="382" on="1"/>
        <pt x="437" y="382" on="0"/>
        <pt x="394" y="388" on="1"/>
        <pt x="360" y="368" on="0"/>
        <pt x="360" y="342" on="1"/>
        <pt x="360" y="316" on="0"/>
        <pt x="415" y="293" on="0"/>
        <pt x="505" y="284" on="0"/>
        <pt x="621" y="281" on="0"/>
        <pt x="741" y="270" on="0"/>
        <pt x="857" y="244" on="0"/>
        <pt x="947" y="186" on="0"/>
        <pt x="1002" y="89" on="0"/>
        <pt x="1002" y="14" on="1"/>
        <pt x="1002" y="-56" on="0"/>
        <pt x="934" y="-190" on="0"/>
        <pt x="802" y="-294" on="0"/>
        <pt x="610" y="-357" on="0"/>
        <pt x="486" y="-357" on="1"/>
        <pt x="364" y="-357" on="0"/>
        <pt x="187" y="-311" on="0"/>
        <pt x="70" y="-236" on="0"/>
        <pt x="14" y="-138" on="0"/>
        <pt x="14" y="-85" on="1"/>
        <pt x="14" y="-16" on="0"/>
        <pt x="98" y="79" on="0"/>
        <pt x="171" y="106" on="1"/>
        <pt x="136" y="129" on="0"/>
        <pt x="94" y="201" on="0"/>
        <pt x="94" y="256" on="1"/>
        <pt x="94" y="279" on="0"/>
        <pt x="110" y="330" on="0"/>
        <pt x="144" y="378" on="0"/>
        <pt x="196" y="422" on="0"/>
        <pt x="232" y="439" on="1"/>
        <pt x="151" y="482" on="0"/>
        <pt x="58" y="624" on="0"/>
        <pt x="58" y="718" on="1"/>
        <pt x="58" y="796" on="0"/>
        <pt x="124" y="921" on="0"/>
        <pt x="239" y="1008" on="0"/>
        <pt x="395" y="1055" on="0"/>
      </contour>
      <contour>
        <pt x="716" y="-38" on="1"/>
        <pt x="716" y="-13" on="0"/>
        <pt x="685" y="17" on="0"/>
        <pt x="632" y="35" on="0"/>
        <pt x="561" y="43" on="0"/>
        <pt x="479" y="47" on="0"/>
        <pt x="391" y="50" on="0"/>
        <pt x="348" y="55" on="1"/>
        <pt x="319" y="35" on="0"/>
        <pt x="282" y="-14" on="0"/>
        <pt x="282" y="-45" on="1"/>
        <pt x="282" y="-67" on="0"/>
        <pt x="301" y="-103" on="0"/>
        <pt x="349" y="-129" on="0"/>
        <pt x="430" y="-144" on="0"/>
        <pt x="492" y="-144" on="1"/>
        <pt x="559" y="-144" on="0"/>
        <pt x="645" y="-128" on="0"/>
        <pt x="696" y="-100" on="0"/>
        <pt x="716" y="-61" on="0"/>
      </contour>
      <contour>
        <pt x="486" y="573" on="1"/>
        <pt x="563" y="573" on="0"/>
        <pt x="632" y="650" on="0"/>
        <pt x="632" y="711" on="1"/>
        <pt x="632" y="774" on="0"/>
        <pt x="563" y="846" on="0"/>
        <pt x="486" y="846" on="1"/>
        <pt x="409" y="846" on="0"/>
        <pt x="340" y="774" on="0"/>
        <pt x="340" y="711" on="1"/>
        <pt x="340" y="681" on="0"/>
        <pt x="357" y="631" on="0"/>
        <pt x="393" y="594" on="0"/>
        <pt x="448" y="573" on="0"/>
      </contour>
    </TTGlyph>
    <TTGlyph name="germandbls" xMin="166" yMin="-16" xMax="1266" yMax="1485">
      <contour>
        <pt x="724" y="1485" on="1"/>
        <pt x="854" y="1485" on="0"/>
        <pt x="1034" y="1411" on="0"/>
        <pt x="1145" y="1301" on="0"/>
        <pt x="1194" y="1177" on="0"/>
        <pt x="1194" y="1126" on="1"/>
        <pt x="1194" y="1070" on="0"/>
        <pt x="1158" y="990" on="0"/>
        <pt x="1104" y="932" on="0"/>
        <pt x="1042" y="889" on="0"/>
        <pt x="988" y="851" on="0"/>
        <pt x="952" y="812" on="0"/>
        <pt x="952" y="786" on="1"/>
        <pt x="952" y="758" on="0"/>
        <pt x="999" y="713" on="0"/>
        <pt x="1068" y="665" on="0"/>
        <pt x="1150" y="609" on="0"/>
        <pt x="1219" y="530" on="0"/>
        <pt x="1266" y="421" on="0"/>
        <pt x="1266" y="345" on="1"/>
        <pt x="1266" y="254" on="0"/>
        <pt x="1197" y="119" on="0"/>
        <pt x="1083" y="29" on="0"/>
        <pt x="933" y="-16" on="0"/>
        <pt x="852" y="-16" on="1"/>
        <pt x="808" y="-16" on="0"/>
        <pt x="716" y="4" on="0"/>
        <pt x="629" y="38" on="0"/>
        <pt x="552" y="85" on="0"/>
        <pt x="522" y="112" on="1"/>
        <pt x="594" y="226" on="1"/>
        <pt x="607" y="246" on="0"/>
        <pt x="643" y="269" on="0"/>
        <pt x="672" y="269" on="1"/>
        <pt x="699" y="269" on="0"/>
        <pt x="743" y="245" on="0"/>
        <pt x="788" y="217" on="0"/>
        <pt x="842" y="193" on="0"/>
        <pt x="880" y="193" on="1"/>
        <pt x="919" y="193" on="0"/>
        <pt x="976" y="250" on="0"/>
        <pt x="976" y="297" on="1"/>
        <pt x="976" y="337" on="0"/>
        <pt x="924" y="393" on="0"/>
        <pt x="846" y="441" on="0"/>
        <pt x="756" y="490" on="0"/>
        <pt x="678" y="559" on="0"/>
        <pt x="626" y="654" on="0"/>
        <pt x="626" y="725" on="1"/>
        <pt x="626" y="785" on="0"/>
        <pt x="665" y="871" on="0"/>
        <pt x="725" y="934" on="0"/>
        <pt x="793" y="984" on="0"/>
        <pt x="853" y="1032" on="0"/>
        <pt x="892" y="1087" on="0"/>
        <pt x="892" y="1124" on="1"/>
        <pt x="892" y="1191" on="0"/>
        <pt x="805" y="1268" on="0"/>
        <pt x="710" y="1268" on="1"/>
        <pt x="647" y="1268" on="0"/>
        <pt x="558" y="1227" on="0"/>
        <pt x="502" y="1150" on="0"/>
        <pt x="476" y="1038" on="0"/>
        <pt x="476" y="968" on="1"/>
        <pt x="476" y="0" on="1"/>
        <pt x="166" y="0" on="1"/>
        <pt x="166" y="978" on="1"/>
        <pt x="166" y="1085" on="0"/>
        <pt x="241" y="1270" on="0"/>
        <pt x="385" y="1407" on="0"/>
        <pt x="592" y="1485" on="0"/>
      </contour>
    </TTGlyph>
    <TTGlyph name="grave" xMin="-38" yMin="1168" xMax="498" yMax="1473">
      <contour>
        <pt x="252" y="1473" on="1"/>
        <pt x="299" y="1473" on="0"/>
        <pt x="345" y="1442" on="0"/>
        <pt x="362" y="1413" on="1"/>
        <pt x="498" y="1168" on="1"/>
        <pt x="322" y="1168" on="1"/>
        <pt x="287" y="1168" on="0"/>
        <pt x="245" y="1187" on="0"/>
        <pt x="222" y="1210" on="1"/>
        <pt x="-38" y="1473" on="1"/>
      </contour>
    </TTGlyph>
    <TTGlyph name="grave.case" xMin="-118" yMin="1551" xMax="528" yMax="1798">
      <contour>
        <pt x="224" y="1798" on="1"/>
        <pt x="247" y="1798" on="0"/>
        <pt x="282" y="1793" on="0"/>
        <pt x="309" y="1782" on="0"/>
        <pt x="333" y="1763" on="0"/>
        <pt x="346" y="1749" on="1"/>
        <pt x="528" y="1551" on="1"/>
        <pt x="282" y="1551" on="1"/>
        <pt x="264" y="1551" on="0"/>
        <pt x="238" y="1553" on="0"/>
        <pt x="215" y="1560" on="0"/>
        <pt x="194" y="1571" on="0"/>
        <pt x="182" y="1580" on="1"/>
        <pt x="-118" y="1798" on="1"/>
      </contour>
    </TTGlyph>
    <TTGlyph name="greater" xMin="220" yMin="191" xMax="1030" yMax="1159">
      <contour>
        <pt x="1030" y="614" on="1"/>
        <pt x="220" y="191" on="1"/>
        <pt x="220" y="406" on="1"/>
        <pt x="220" y="429" on="0"/>
        <pt x="244" y="467" on="0"/>
        <pt x="270" y="481" on="1"/>
        <pt x="554" y="635" on="1"/>
        <pt x="579" y="649" on="0"/>
        <pt x="638" y="666" on="0"/>
        <pt x="670" y="674" on="1"/>
        <pt x="638" y="682" on="0"/>
        <pt x="579" y="701" on="0"/>
        <pt x="554" y="715" on="1"/>
        <pt x="270" y="868" on="1"/>
        <pt x="244" y="882" on="0"/>
        <pt x="220" y="921" on="0"/>
        <pt x="220" y="944" on="1"/>
        <pt x="220" y="1159" on="1"/>
        <pt x="1030" y="735" on="1"/>
      </contour>
    </TTGlyph>
    <TTGlyph name="greaterequal" xMin="220" yMin="80" xMax="1030" yMax="1259">
      <contour>
        <pt x="1030" y="878" on="1"/>
        <pt x="1030" y="757" on="1"/>
        <pt x="220" y="373" on="1"/>
        <pt x="220" y="579" on="1"/>
        <pt x="220" y="602" on="0"/>
        <pt x="247" y="643" on="0"/>
        <pt x="285" y="660" on="1"/>
        <pt x="554" y="781" on="1"/>
        <pt x="583" y="792" on="0"/>
        <pt x="648" y="811" on="0"/>
        <pt x="683" y="819" on="1"/>
        <pt x="612" y="834" on="0"/>
        <pt x="554" y="855" on="1"/>
        <pt x="284" y="972" on="1"/>
        <pt x="246" y="989" on="0"/>
        <pt x="220" y="1030" on="0"/>
        <pt x="220" y="1053" on="1"/>
        <pt x="220" y="1259" on="1"/>
      </contour>
      <contour>
        <pt x="1030" y="80" on="1"/>
        <pt x="220" y="80" on="1"/>
        <pt x="220" y="302" on="1"/>
        <pt x="1030" y="302" on="1"/>
      </contour>
    </TTGlyph>
    <TTGlyph name="guillemotleft" xMin="110" yMin="123" xMax="881" yMax="966">
      <contour>
        <pt x="110" y="525" on="1"/>
        <pt x="110" y="564" on="1"/>
        <pt x="372" y="966" on="1"/>
        <pt x="474" y="920" on="1"/>
        <pt x="498" y="909" on="0"/>
        <pt x="521" y="877" on="0"/>
        <pt x="521" y="857" on="1"/>
        <pt x="521" y="833" on="0"/>
        <pt x="506" y="806" on="1"/>
        <pt x="386" y="591" on="1"/>
        <pt x="369" y="561" on="0"/>
        <pt x="350" y="544" on="1"/>
        <pt x="368" y="528" on="0"/>
        <pt x="386" y="498" on="1"/>
        <pt x="506" y="282" on="1"/>
        <pt x="521" y="256" on="0"/>
        <pt x="521" y="232" on="1"/>
        <pt x="521" y="212" on="0"/>
        <pt x="498" y="180" on="0"/>
        <pt x="474" y="169" on="1"/>
        <pt x="372" y="123" on="1"/>
      </contour>
      <contour>
        <pt x="470" y="525" on="1"/>
        <pt x="470" y="564" on="1"/>
        <pt x="732" y="966" on="1"/>
        <pt x="834" y="920" on="1"/>
        <pt x="858" y="909" on="0"/>
        <pt x="881" y="877" on="0"/>
        <pt x="881" y="857" on="1"/>
        <pt x="881" y="833" on="0"/>
        <pt x="866" y="806" on="1"/>
        <pt x="746" y="591" on="1"/>
        <pt x="729" y="561" on="0"/>
        <pt x="710" y="544" on="1"/>
        <pt x="728" y="528" on="0"/>
        <pt x="746" y="498" on="1"/>
        <pt x="866" y="282" on="1"/>
        <pt x="881" y="256" on="0"/>
        <pt x="881" y="232" on="1"/>
        <pt x="881" y="212" on="0"/>
        <pt x="858" y="180" on="0"/>
        <pt x="834" y="169" on="1"/>
        <pt x="732" y="123" on="1"/>
      </contour>
    </TTGlyph>
    <TTGlyph name="guillemotright" xMin="131" yMin="123" xMax="902" yMax="966">
      <contour>
        <pt x="280" y="123" on="1"/>
        <pt x="178" y="169" on="1"/>
        <pt x="154" y="180" on="0"/>
        <pt x="131" y="212" on="0"/>
        <pt x="131" y="232" on="1"/>
        <pt x="131" y="256" on="0"/>
        <pt x="146" y="282" on="1"/>
        <pt x="266" y="498" on="1"/>
        <pt x="281" y="526" on="0"/>
        <pt x="302" y="544" on="1"/>
        <pt x="292" y="553" on="0"/>
        <pt x="274" y="577" on="0"/>
        <pt x="266" y="591" on="1"/>
        <pt x="146" y="806" on="1"/>
        <pt x="131" y="833" on="0"/>
        <pt x="131" y="857" on="1"/>
        <pt x="131" y="877" on="0"/>
        <pt x="154" y="909" on="0"/>
        <pt x="178" y="920" on="1"/>
        <pt x="280" y="966" on="1"/>
        <pt x="542" y="564" on="1"/>
        <pt x="542" y="525" on="1"/>
      </contour>
      <contour>
        <pt x="902" y="564" on="1"/>
        <pt x="902" y="525" on="1"/>
        <pt x="640" y="123" on="1"/>
        <pt x="538" y="169" on="1"/>
        <pt x="514" y="180" on="0"/>
        <pt x="491" y="212" on="0"/>
        <pt x="491" y="232" on="1"/>
        <pt x="491" y="256" on="0"/>
        <pt x="506" y="282" on="1"/>
        <pt x="626" y="498" on="1"/>
        <pt x="641" y="526" on="0"/>
        <pt x="662" y="544" on="1"/>
        <pt x="652" y="553" on="0"/>
        <pt x="634" y="577" on="0"/>
        <pt x="626" y="591" on="1"/>
        <pt x="506" y="806" on="1"/>
        <pt x="491" y="833" on="0"/>
        <pt x="491" y="857" on="1"/>
        <pt x="491" y="877" on="0"/>
        <pt x="514" y="909" on="0"/>
        <pt x="538" y="920" on="1"/>
        <pt x="640" y="966" on="1"/>
      </contour>
    </TTGlyph>
    <TTGlyph name="guilsinglleft" xMin="110" yMin="123" xMax="521" yMax="966">
      <contour>
        <pt x="110" y="525" on="1"/>
        <pt x="110" y="564" on="1"/>
        <pt x="372" y="966" on="1"/>
        <pt x="474" y="920" on="1"/>
        <pt x="498" y="909" on="0"/>
        <pt x="521" y="877" on="0"/>
        <pt x="521" y="857" on="1"/>
        <pt x="521" y="833" on="0"/>
        <pt x="506" y="806" on="1"/>
        <pt x="386" y="591" on="1"/>
        <pt x="369" y="561" on="0"/>
        <pt x="350" y="544" on="1"/>
        <pt x="368" y="528" on="0"/>
        <pt x="386" y="498" on="1"/>
        <pt x="506" y="282" on="1"/>
        <pt x="521" y="256" on="0"/>
        <pt x="521" y="232" on="1"/>
        <pt x="521" y="212" on="0"/>
        <pt x="498" y="180" on="0"/>
        <pt x="474" y="169" on="1"/>
        <pt x="372" y="123" on="1"/>
      </contour>
    </TTGlyph>
    <TTGlyph name="guilsinglright" xMin="131" yMin="123" xMax="542" yMax="966">
      <contour>
        <pt x="280" y="123" on="1"/>
        <pt x="178" y="169" on="1"/>
        <pt x="154" y="180" on="0"/>
        <pt x="131" y="212" on="0"/>
        <pt x="131" y="232" on="1"/>
        <pt x="131" y="256" on="0"/>
        <pt x="146" y="282" on="1"/>
        <pt x="266" y="498" on="1"/>
        <pt x="281" y="526" on="0"/>
        <pt x="302" y="544" on="1"/>
        <pt x="292" y="553" on="0"/>
        <pt x="274" y="577" on="0"/>
        <pt x="266" y="591" on="1"/>
        <pt x="146" y="806" on="1"/>
        <pt x="131" y="833" on="0"/>
        <pt x="131" y="857" on="1"/>
        <pt x="131" y="877" on="0"/>
        <pt x="154" y="909" on="0"/>
        <pt x="178" y="920" on="1"/>
        <pt x="280" y="966" on="1"/>
        <pt x="542" y="564" on="1"/>
        <pt x="542" y="525" on="1"/>
      </contour>
    </TTGlyph>
    <TTGlyph name="h" xMin="120" yMin="0" xMax="1060" yMax="1497">
      <contour>
        <pt x="120" y="0" on="1"/>
        <pt x="120" y="1497" on="1"/>
        <pt x="430" y="1497" on="1"/>
        <pt x="430" y="946" on="1"/>
        <pt x="486" y="994" on="0"/>
        <pt x="617" y="1053" on="0"/>
        <pt x="708" y="1053" on="1"/>
        <pt x="793" y="1053" on="0"/>
        <pt x="924" y="994" on="0"/>
        <pt x="1014" y="889" on="0"/>
        <pt x="1060" y="744" on="0"/>
        <pt x="1060" y="659" on="1"/>
        <pt x="1060" y="0" on="1"/>
        <pt x="750" y="0" on="1"/>
        <pt x="750" y="659" on="1"/>
        <pt x="750" y="735" on="0"/>
        <pt x="680" y="820" on="0"/>
        <pt x="612" y="820" on="1"/>
        <pt x="561" y="820" on="0"/>
        <pt x="471" y="776" on="0"/>
        <pt x="430" y="739" on="1"/>
        <pt x="430" y="0" on="1"/>
      </contour>
    </TTGlyph>
    <TTGlyph name="hungarumlaut" xMin="46" yMin="1168" xMax="852" yMax="1473">
      <contour>
        <pt x="472" y="1473" on="1"/>
        <pt x="272" y="1210" on="1"/>
        <pt x="252" y="1185" on="0"/>
        <pt x="207" y="1168" on="0"/>
        <pt x="172" y="1168" on="1"/>
        <pt x="46" y="1168" on="1"/>
        <pt x="162" y="1413" on="1"/>
        <pt x="176" y="1443" on="0"/>
        <pt x="225" y="1473" on="0"/>
        <pt x="272" y="1473" on="1"/>
      </contour>
      <contour>
        <pt x="852" y="1473" on="1"/>
        <pt x="592" y="1210" on="1"/>
        <pt x="569" y="1187" on="0"/>
        <pt x="527" y="1168" on="0"/>
        <pt x="492" y="1168" on="1"/>
        <pt x="346" y="1168" on="1"/>
        <pt x="522" y="1413" on="1"/>
        <pt x="532" y="1427" on="0"/>
        <pt x="551" y="1449" on="0"/>
        <pt x="576" y="1465" on="0"/>
        <pt x="609" y="1473" on="0"/>
        <pt x="632" y="1473" on="1"/>
      </contour>
    </TTGlyph>
    <TTGlyph name="hungarumlaut.case" xMin="36" yMin="1551" xMax="874" yMax="1779">
      <contour>
        <pt x="484" y="1779" on="1"/>
        <pt x="282" y="1594" on="1"/>
        <pt x="259" y="1573" on="0"/>
        <pt x="217" y="1551" on="0"/>
        <pt x="182" y="1551" on="1"/>
        <pt x="36" y="1551" on="1"/>
        <pt x="160" y="1719" on="1"/>
        <pt x="180" y="1745" on="0"/>
        <pt x="237" y="1779" on="0"/>
        <pt x="284" y="1779" on="1"/>
      </contour>
      <contour>
        <pt x="874" y="1779" on="1"/>
        <pt x="612" y="1594" on="1"/>
        <pt x="585" y="1575" on="0"/>
        <pt x="537" y="1551" on="0"/>
        <pt x="502" y="1551" on="1"/>
        <pt x="336" y="1551" on="1"/>
        <pt x="512" y="1719" on="1"/>
        <pt x="537" y="1743" on="0"/>
        <pt x="597" y="1779" on="0"/>
        <pt x="644" y="1779" on="1"/>
      </contour>
    </TTGlyph>
    <TTGlyph name="hyphen" xMin="100" yMin="483" xMax="640" yMax="733">
      <contour>
        <pt x="100" y="733" on="1"/>
        <pt x="640" y="733" on="1"/>
        <pt x="640" y="483" on="1"/>
        <pt x="100" y="483" on="1"/>
      </contour>
    </TTGlyph>
    <TTGlyph name="i" xMin="102" yMin="0" xMax="476" yMax="1503">
      <contour>
        <pt x="440" y="1037" on="1"/>
        <pt x="440" y="0" on="1"/>
        <pt x="130" y="0" on="1"/>
        <pt x="130" y="1037" on="1"/>
      </contour>
      <contour>
        <pt x="476" y="1321" on="1"/>
        <pt x="476" y="1284" on="0"/>
        <pt x="446" y="1219" on="0"/>
        <pt x="394" y="1170" on="0"/>
        <pt x="325" y="1141" on="0"/>
        <pt x="286" y="1141" on="1"/>
        <pt x="248" y="1141" on="0"/>
        <pt x="182" y="1170" on="0"/>
        <pt x="131" y="1219" on="0"/>
        <pt x="102" y="1284" on="0"/>
        <pt x="102" y="1321" on="1"/>
        <pt x="102" y="1359" on="0"/>
        <pt x="131" y="1425" on="0"/>
        <pt x="182" y="1475" on="0"/>
        <pt x="248" y="1503" on="0"/>
        <pt x="286" y="1503" on="1"/>
        <pt x="325" y="1503" on="0"/>
        <pt x="394" y="1475" on="0"/>
        <pt x="446" y="1425" on="0"/>
        <pt x="476" y="1359" on="0"/>
      </contour>
    </TTGlyph>
    <TTGlyph name="iacute" xMin="130" yMin="0" xMax="691" yMax="1473">
      <component glyphName="dotlessi" x="0" y="0" flags="0x204"/>
      <component glyphName="acute" x="-35" y="0" flags="0x4"/>
    </TTGlyph>
    <TTGlyph name="icircumflex" xMin="-85" yMin="0" xMax="675" yMax="1457">
      <component glyphName="dotlessi" x="0" y="0" flags="0x204"/>
      <component glyphName="circumflex" x="-35" y="0" flags="0x4"/>
    </TTGlyph>
    <TTGlyph name="idieresis" xMin="-59" yMin="0" xMax="649" yMax="1454">
      <component glyphName="dotlessi" x="0" y="0" flags="0x204"/>
      <component glyphName="dieresis" x="-35" y="0" flags="0x4"/>
    </TTGlyph>
    <TTGlyph name="igrave" xMin="-73" yMin="0" xMax="463" yMax="1473">
      <component glyphName="dotlessi" x="0" y="0" flags="0x204"/>
      <component glyphName="grave" x="-35" y="0" flags="0x4"/>
    </TTGlyph>
    <TTGlyph name="infinity" xMin="34" yMin="214" xMax="1344" yMax="969">
      <contour>
        <pt x="997" y="214" on="1"/>
        <pt x="943" y="214" on="0"/>
        <pt x="852" y="240" on="0"/>
        <pt x="777" y="285" on="0"/>
        <pt x="715" y="346" on="0"/>
        <pt x="689" y="381" on="1"/>
        <pt x="662" y="346" on="0"/>
        <pt x="600" y="285" on="0"/>
        <pt x="525" y="240" on="0"/>
        <pt x="435" y="214" on="0"/>
        <pt x="381" y="214" on="1"/>
        <pt x="311" y="214" on="0"/>
        <pt x="185" y="270" on="0"/>
        <pt x="90" y="371" on="0"/>
        <pt x="34" y="509" on="0"/>
        <pt x="34" y="592" on="1"/>
        <pt x="34" y="674" on="0"/>
        <pt x="90" y="813" on="0"/>
        <pt x="185" y="913" on="0"/>
        <pt x="311" y="969" on="0"/>
        <pt x="381" y="969" on="1"/>
        <pt x="435" y="969" on="0"/>
        <pt x="525" y="943" on="0"/>
        <pt x="600" y="897" on="0"/>
        <pt x="662" y="836" on="0"/>
        <pt x="689" y="802" on="1"/>
        <pt x="715" y="836" on="0"/>
        <pt x="777" y="897" on="0"/>
        <pt x="852" y="943" on="0"/>
        <pt x="943" y="969" on="0"/>
        <pt x="997" y="969" on="1"/>
        <pt x="1067" y="969" on="0"/>
        <pt x="1193" y="913" on="0"/>
        <pt x="1288" y="813" on="0"/>
        <pt x="1344" y="674" on="0"/>
        <pt x="1344" y="592" on="1"/>
        <pt x="1344" y="509" on="0"/>
        <pt x="1288" y="371" on="0"/>
        <pt x="1193" y="270" on="0"/>
        <pt x="1067" y="214" on="0"/>
      </contour>
      <contour>
        <pt x="394" y="456" on="1"/>
        <pt x="419" y="456" on="0"/>
        <pt x="464" y="477" on="0"/>
        <pt x="503" y="513" on="0"/>
        <pt x="539" y="563" on="0"/>
        <pt x="557" y="592" on="1"/>
        <pt x="539" y="621" on="0"/>
        <pt x="503" y="671" on="0"/>
        <pt x="464" y="707" on="0"/>
        <pt x="419" y="728" on="0"/>
        <pt x="394" y="728" on="1"/>
        <pt x="371" y="728" on="0"/>
        <pt x="329" y="714" on="0"/>
        <pt x="296" y="682" on="0"/>
        <pt x="276" y="630" on="0"/>
        <pt x="276" y="592" on="1"/>
        <pt x="276" y="554" on="0"/>
        <pt x="296" y="502" on="0"/>
        <pt x="329" y="470" on="0"/>
        <pt x="371" y="456" on="0"/>
      </contour>
      <contour>
        <pt x="985" y="456" on="1"/>
        <pt x="1008" y="456" on="0"/>
        <pt x="1050" y="470" on="0"/>
        <pt x="1083" y="502" on="0"/>
        <pt x="1102" y="554" on="0"/>
        <pt x="1102" y="592" on="1"/>
        <pt x="1102" y="630" on="0"/>
        <pt x="1082" y="682" on="0"/>
        <pt x="1050" y="714" on="0"/>
        <pt x="1007" y="728" on="0"/>
        <pt x="985" y="728" on="1"/>
        <pt x="959" y="728" on="0"/>
        <pt x="915" y="707" on="0"/>
        <pt x="875" y="671" on="0"/>
        <pt x="839" y="621" on="0"/>
        <pt x="821" y="592" on="1"/>
        <pt x="839" y="563" on="0"/>
        <pt x="875" y="513" on="0"/>
        <pt x="915" y="477" on="0"/>
        <pt x="959" y="456" on="0"/>
      </contour>
    </TTGlyph>
    <TTGlyph name="integral" xMin="-74" yMin="-336" xMax="888" yMax="1473">
      <contour>
        <pt x="345" y="1097" on="1"/>
        <pt x="355" y="1184" on="0"/>
        <pt x="411" y="1323" on="0"/>
        <pt x="503" y="1420" on="0"/>
        <pt x="634" y="1473" on="0"/>
        <pt x="720" y="1473" on="1"/>
        <pt x="758" y="1473" on="0"/>
        <pt x="847" y="1456" on="0"/>
        <pt x="888" y="1436" on="1"/>
        <pt x="874" y="1289" on="1"/>
        <pt x="873" y="1278" on="0"/>
        <pt x="867" y="1254" on="0"/>
        <pt x="854" y="1233" on="0"/>
        <pt x="829" y="1219" on="0"/>
        <pt x="810" y="1219" on="1"/>
        <pt x="763" y="1219" on="0"/>
        <pt x="703" y="1199" on="0"/>
        <pt x="665" y="1158" on="0"/>
        <pt x="645" y="1097" on="0"/>
        <pt x="640" y="1057" on="1"/>
        <pt x="513" y="72" on="1"/>
        <pt x="499" y="-33" on="0"/>
        <pt x="429" y="-187" on="0"/>
        <pt x="321" y="-288" on="0"/>
        <pt x="179" y="-336" on="0"/>
        <pt x="94" y="-336" on="1"/>
        <pt x="56" y="-336" on="0"/>
        <pt x="-33" y="-319" on="0"/>
        <pt x="-74" y="-298" on="1"/>
        <pt x="-58" y="-172" on="1"/>
        <pt x="-56" y="-157" on="0"/>
        <pt x="-49" y="-134" on="0"/>
        <pt x="-33" y="-118" on="0"/>
        <pt x="-4" y="-110" on="0"/>
        <pt x="20" y="-110" on="1"/>
        <pt x="77" y="-110" on="0"/>
        <pt x="149" y="-90" on="0"/>
        <pt x="193" y="-48" on="0"/>
        <pt x="213" y="17" on="0"/>
        <pt x="218" y="63" on="1"/>
      </contour>
    </TTGlyph>
    <TTGlyph name="j" xMin="-62" yMin="-357" xMax="476" yMax="1503">
      <contour>
        <pt x="440" y="1037" on="1"/>
        <pt x="440" y="-2" on="1"/>
        <pt x="440" y="-75" on="0"/>
        <pt x="403" y="-204" on="0"/>
        <pt x="318" y="-301" on="0"/>
        <pt x="179" y="-357" on="0"/>
        <pt x="76" y="-357" on="1"/>
        <pt x="38" y="-357" on="0"/>
        <pt x="-27" y="-348" on="0"/>
        <pt x="-62" y="-339" on="1"/>
        <pt x="-52" y="-176" on="1"/>
        <pt x="-50" y="-155" on="0"/>
        <pt x="-26" y="-135" on="0"/>
        <pt x="10" y="-135" on="1"/>
        <pt x="46" y="-135" on="0"/>
        <pt x="92" y="-123" on="0"/>
        <pt x="119" y="-93" on="0"/>
        <pt x="130" y="-42" on="0"/>
        <pt x="130" y="-2" on="1"/>
        <pt x="130" y="1037" on="1"/>
      </contour>
      <contour>
        <pt x="476" y="1321" on="1"/>
        <pt x="476" y="1284" on="0"/>
        <pt x="446" y="1219" on="0"/>
        <pt x="394" y="1170" on="0"/>
        <pt x="325" y="1141" on="0"/>
        <pt x="286" y="1141" on="1"/>
        <pt x="248" y="1141" on="0"/>
        <pt x="182" y="1170" on="0"/>
        <pt x="131" y="1219" on="0"/>
        <pt x="102" y="1284" on="0"/>
        <pt x="102" y="1321" on="1"/>
        <pt x="102" y="1359" on="0"/>
        <pt x="131" y="1425" on="0"/>
        <pt x="182" y="1475" on="0"/>
        <pt x="248" y="1503" on="0"/>
        <pt x="286" y="1503" on="1"/>
        <pt x="325" y="1503" on="0"/>
        <pt x="394" y="1475" on="0"/>
        <pt x="446" y="1425" on="0"/>
        <pt x="476" y="1359" on="0"/>
      </contour>
    </TTGlyph>
    <TTGlyph name="k" xMin="120" yMin="0" xMax="1142" yMax="1497">
      <contour>
        <pt x="430" y="1497" on="1"/>
        <pt x="430" y="658" on="1"/>
        <pt x="476" y="658" on="1"/>
        <pt x="505" y="658" on="0"/>
        <pt x="536" y="674" on="0"/>
        <pt x="550" y="695" on="1"/>
        <pt x="746" y="987" on="1"/>
        <pt x="763" y="1013" on="0"/>
        <pt x="810" y="1037" on="0"/>
        <pt x="846" y="1037" on="1"/>
        <pt x="1130" y="1037" on="1"/>
        <pt x="862" y="668" on="1"/>
        <pt x="843" y="642" on="0"/>
        <pt x="798" y="602" on="0"/>
        <pt x="772" y="586" on="1"/>
        <pt x="817" y="552" on="0"/>
        <pt x="850" y="496" on="1"/>
        <pt x="1142" y="0" on="1"/>
        <pt x="862" y="0" on="1"/>
        <pt x="827" y="0" on="0"/>
        <pt x="776" y="23" on="0"/>
        <pt x="760" y="52" on="1"/>
        <pt x="564" y="419" on="1"/>
        <pt x="550" y="444" on="0"/>
        <pt x="520" y="459" on="0"/>
        <pt x="490" y="459" on="1"/>
        <pt x="430" y="459" on="1"/>
        <pt x="430" y="0" on="1"/>
        <pt x="120" y="0" on="1"/>
        <pt x="120" y="1497" on="1"/>
      </contour>
    </TTGlyph>
    <TTGlyph name="l" xMin="130" yMin="0" xMax="440" yMax="1497">
      <contour>
        <pt x="440" y="1497" on="1"/>
        <pt x="440" y="0" on="1"/>
        <pt x="130" y="0" on="1"/>
        <pt x="130" y="1497" on="1"/>
      </contour>
    </TTGlyph>
    <TTGlyph name="less" xMin="130" yMin="191" xMax="940" yMax="1159">
      <contour>
        <pt x="130" y="735" on="1"/>
        <pt x="940" y="1159" on="1"/>
        <pt x="940" y="944" on="1"/>
        <pt x="940" y="921" on="0"/>
        <pt x="916" y="882" on="0"/>
        <pt x="890" y="868" on="1"/>
        <pt x="606" y="715" on="1"/>
        <pt x="580" y="701" on="0"/>
        <pt x="522" y="682" on="0"/>
        <pt x="490" y="674" on="1"/>
        <pt x="522" y="666" on="0"/>
        <pt x="580" y="649" on="0"/>
        <pt x="606" y="635" on="1"/>
        <pt x="890" y="481" on="1"/>
        <pt x="916" y="467" on="0"/>
        <pt x="940" y="429" on="0"/>
        <pt x="940" y="406" on="1"/>
        <pt x="940" y="191" on="1"/>
        <pt x="130" y="614" on="1"/>
      </contour>
    </TTGlyph>
    <TTGlyph name="lessequal" xMin="130" yMin="80" xMax="940" yMax="1259">
      <contour>
        <pt x="130" y="878" on="1"/>
        <pt x="940" y="1259" on="1"/>
        <pt x="940" y="1053" on="1"/>
        <pt x="940" y="1030" on="0"/>
        <pt x="914" y="989" on="0"/>
        <pt x="876" y="972" on="1"/>
        <pt x="606" y="855" on="1"/>
        <pt x="545" y="834" on="0"/>
        <pt x="476" y="819" on="1"/>
        <pt x="512" y="811" on="0"/>
        <pt x="577" y="792" on="0"/>
        <pt x="606" y="781" on="1"/>
        <pt x="875" y="660" on="1"/>
        <pt x="913" y="643" on="0"/>
        <pt x="940" y="602" on="0"/>
        <pt x="940" y="579" on="1"/>
        <pt x="940" y="373" on="1"/>
        <pt x="130" y="757" on="1"/>
      </contour>
      <contour>
        <pt x="130" y="302" on="1"/>
        <pt x="940" y="302" on="1"/>
        <pt x="940" y="80" on="1"/>
        <pt x="130" y="80" on="1"/>
      </contour>
    </TTGlyph>
    <TTGlyph name="logicalnot" xMin="124" yMin="282" xMax="1034" yMax="783">
      <contour>
        <pt x="124" y="783" on="1"/>
        <pt x="1034" y="783" on="1"/>
        <pt x="1034" y="282" on="1"/>
        <pt x="772" y="282" on="1"/>
        <pt x="772" y="561" on="1"/>
        <pt x="124" y="561" on="1"/>
      </contour>
    </TTGlyph>
    <TTGlyph name="lozenge" xMin="100" yMin="-70" xMax="1060" yMax="1538">
      <contour>
        <pt x="100" y="734" on="1"/>
        <pt x="472" y="1538" on="1"/>
        <pt x="688" y="1538" on="1"/>
        <pt x="1060" y="734" on="1"/>
        <pt x="688" y="-70" on="1"/>
        <pt x="472" y="-70" on="1"/>
      </contour>
      <contour>
        <pt x="352" y="734" on="1"/>
        <pt x="540" y="298" on="1"/>
        <pt x="553" y="268" on="0"/>
        <pt x="572" y="215" on="0"/>
        <pt x="580" y="190" on="1"/>
        <pt x="588" y="215" on="0"/>
        <pt x="606" y="268" on="0"/>
        <pt x="620" y="298" on="1"/>
        <pt x="814" y="734" on="1"/>
        <pt x="620" y="1171" on="1"/>
        <pt x="595" y="1228" on="0"/>
        <pt x="580" y="1278" on="1"/>
        <pt x="572" y="1253" on="0"/>
        <pt x="552" y="1201" on="0"/>
        <pt x="540" y="1171" on="1"/>
      </contour>
    </TTGlyph>
    <TTGlyph name="lslash" xMin="50" yMin="0" xMax="660" yMax="1497">
      <contour>
        <pt x="510" y="1497" on="1"/>
        <pt x="510" y="951" on="1"/>
        <pt x="660" y="1010" on="1"/>
        <pt x="660" y="836" on="1"/>
        <pt x="660" y="791" on="0"/>
        <pt x="620" y="774" on="1"/>
        <pt x="510" y="728" on="1"/>
        <pt x="510" y="0" on="1"/>
        <pt x="200" y="0" on="1"/>
        <pt x="200" y="624" on="1"/>
        <pt x="50" y="566" on="1"/>
        <pt x="50" y="746" on="1"/>
        <pt x="50" y="785" on="0"/>
        <pt x="86" y="800" on="1"/>
        <pt x="200" y="847" on="1"/>
        <pt x="200" y="1497" on="1"/>
      </contour>
    </TTGlyph>
    <TTGlyph name="m" xMin="120" yMin="0" xMax="1622" yMax="1053">
      <contour>
        <pt x="120" y="0" on="1"/>
        <pt x="120" y="1037" on="1"/>
        <pt x="312" y="1037" on="1"/>
        <pt x="341" y="1037" on="0"/>
        <pt x="380" y="1011" on="0"/>
        <pt x="388" y="985" on="1"/>
        <pt x="405" y="929" on="1"/>
        <pt x="431" y="956" on="0"/>
        <pt x="487" y="1001" on="0"/>
        <pt x="552" y="1034" on="0"/>
        <pt x="627" y="1053" on="0"/>
        <pt x="672" y="1053" on="1"/>
        <pt x="766" y="1053" on="0"/>
        <pt x="889" y="956" on="0"/>
        <pt x="921" y="875" on="1"/>
        <pt x="947" y="923" on="0"/>
        <pt x="1022" y="991" on="0"/>
        <pt x="1109" y="1033" on="0"/>
        <pt x="1206" y="1053" on="0"/>
        <pt x="1254" y="1053" on="1"/>
        <pt x="1343" y="1053" on="0"/>
        <pt x="1481" y="1000" on="0"/>
        <pt x="1574" y="899" on="0"/>
        <pt x="1622" y="752" on="0"/>
        <pt x="1622" y="659" on="1"/>
        <pt x="1622" y="0" on="1"/>
        <pt x="1312" y="0" on="1"/>
        <pt x="1312" y="659" on="1"/>
        <pt x="1312" y="820" on="0"/>
        <pt x="1174" y="820" on="1"/>
        <pt x="1111" y="820" on="0"/>
        <pt x="1028" y="737" on="0"/>
        <pt x="1028" y="659" on="1"/>
        <pt x="1028" y="0" on="1"/>
        <pt x="718" y="0" on="1"/>
        <pt x="718" y="659" on="1"/>
        <pt x="718" y="748" on="0"/>
        <pt x="648" y="820" on="0"/>
        <pt x="580" y="820" on="1"/>
        <pt x="538" y="820" on="0"/>
        <pt x="463" y="782" on="0"/>
        <pt x="430" y="750" on="1"/>
        <pt x="430" y="0" on="1"/>
      </contour>
    </TTGlyph>
    <TTGlyph name="macron" xMin="20" yMin="1201" xMax="640" yMax="1391">
      <contour>
        <pt x="20" y="1391" on="1"/>
        <pt x="640" y="1391" on="1"/>
        <pt x="640" y="1201" on="1"/>
        <pt x="20" y="1201" on="1"/>
      </contour>
    </TTGlyph>
    <TTGlyph name="macron.case" xMin="40" yMin="1554" xMax="620" yMax="1725">
      <contour>
        <pt x="40" y="1725" on="1"/>
        <pt x="620" y="1725" on="1"/>
        <pt x="620" y="1554" on="1"/>
        <pt x="40" y="1554" on="1"/>
      </contour>
    </TTGlyph>
    <TTGlyph name="minus" xMin="124" yMin="561" xMax="1034" yMax="783">
      <contour>
        <pt x="124" y="783" on="1"/>
        <pt x="1034" y="783" on="1"/>
        <pt x="1034" y="561" on="1"/>
        <pt x="124" y="561" on="1"/>
      </contour>
    </TTGlyph>
    <TTGlyph name="mu" xMin="100" yMin="-329" xMax="1040" yMax="1037">
      <contour>
        <pt x="410" y="1037" on="1"/>
        <pt x="410" y="371" on="1"/>
        <pt x="410" y="298" on="0"/>
        <pt x="482" y="218" on="0"/>
        <pt x="548" y="218" on="1"/>
        <pt x="599" y="218" on="0"/>
        <pt x="688" y="260" on="0"/>
        <pt x="730" y="298" on="1"/>
        <pt x="730" y="1037" on="1"/>
        <pt x="1040" y="1037" on="1"/>
        <pt x="1040" y="0" on="1"/>
        <pt x="848" y="0" on="1"/>
        <pt x="819" y="0" on="0"/>
        <pt x="780" y="26" on="0"/>
        <pt x="772" y="52" on="1"/>
        <pt x="753" y="113" on="1"/>
        <pt x="724" y="87" on="0"/>
        <pt x="672" y="52" on="0"/>
        <pt x="619" y="31" on="0"/>
        <pt x="562" y="22" on="0"/>
        <pt x="528" y="22" on="1"/>
        <pt x="480" y="22" on="0"/>
        <pt x="398" y="49" on="0"/>
        <pt x="364" y="74" on="1"/>
        <pt x="379" y="28" on="0"/>
        <pt x="390" y="-75" on="0"/>
        <pt x="390" y="-120" on="1"/>
        <pt x="390" y="-329" on="1"/>
        <pt x="236" y="-329" on="1"/>
        <pt x="171" y="-329" on="0"/>
        <pt x="100" y="-265" on="0"/>
        <pt x="100" y="-205" on="1"/>
        <pt x="100" y="1037" on="1"/>
      </contour>
    </TTGlyph>
</ttFont>
